{
.appVersion = "3148";
DisplayStrings = (
"/calc"
);
copyright = "Copyright 2010, 2012 Adobe Systems Incorporated. All Rights Reserved.";
customParameters = (
{
name = panose;
value = (
2,
11,
5,
3,
3,
4,
3,
2,
2,
4
);
},
{
name = unicodeRanges;
value = (
0,
1,
2,
29,
32
);
},
{
name = codePageRanges;
value = (
1252,
1250,
1254,
1257,
1258,
"bit 29"
);
},
{
name = fsType;
value = (
);
},
{
name = blueScale;
value = 0.0625;
},
{
name = glyphOrder;
value = (
.notdef,
space,
A,
B,
C,
D,
E,
F,
G,
H,
I,
J,
K,
L,
M,
N,
O,
P,
Q,
R,
S,
T,
U,
V,
W,
X,
Y,
Z,
a,
b,
c,
d,
e,
f,
g,
h,
i,
j,
k,
l,
m,
n,
o,
p,
q,
r,
s,
t,
u,
v,
w,
x,
y,
z,
Agrave,
Aacute,
Acircumflex,
Atilde,
Adieresis,
Amacron,
Abreve,
Aring,
uni01CD,
uni1EA0,
uni1EA2,
uni1EA4,
uni1EA6,
uni1EA8,
uni1EAA,
uni1EAC,
uni1EAE,
uni1EB0,
uni1EB2,
uni1EB4,
uni1EB6,
Aogonek,
AE,
Ccedilla,
Cacute,
Ccircumflex,
Ccaron,
Cdotaccent,
Dcaron,
uni1E0C,
uni1E0E,
Dcroat,
Egrave,
Eacute,
Ecircumflex,
Ecaron,
Edieresis,
Emacron,
Ebreve,
Edotaccent,
uni1EB8,
uni1EBA,
uni1EBC,
uni1EBE,
uni1EC0,
uni1EC2,
uni1EC4,
uni1EC6,
Eogonek,
Gcircumflex,
Gbreve,
Gdotaccent,
uni0122,
Gcaron,
uni1E20,
uni00470303,
Hcircumflex,
uni1E24,
uni1E2A,
Hbar,
Igrave,
Iacute,
Icircumflex,
Itilde,
Idieresis,
Imacron,
Idotaccent,
uni01CF,
uni1EC8,
uni1ECA,
Iogonek,
Jcircumflex,
uni0136,
Lacute,
Lcaron,
uni013B,
Ldot,
uni1E36,
uni1E38,
uni1E3A,
Lslash,
uni1E42,
Nacute,
Ncaron,
Ntilde,
uni0145,
uni1E44,
uni1E46,
uni1E48,
Ograve,
Oacute,
Ocircumflex,
Otilde,
Odieresis,
Omacron,
Ohungarumlaut,
uni01D1,
uni1ECC,
uni1ECE,
uni1ED0,
uni1ED2,
uni1ED4,
uni1ED6,
uni1ED8,
Oslash,
OE,
Ohorn,
uni1EDA,
uni1EDC,
uni1EDE,
uni1EE0,
uni1EE2,
uni01EA,
Racute,
Rcaron,
uni0156,
uni1E5A,
uni1E5C,
uni1E5E,
Sacute,
Scircumflex,
Scaron,
uni015E,
uni0218,
uni1E60,
uni1E62,
uni1E9E,
Tcaron,
uni0162,
uni021A,
uni1E6C,
uni1E6E,
Ugrave,
Uacute,
Ucircumflex,
Utilde,
Udieresis,
Umacron,
Ubreve,
Uring,
Uhungarumlaut,
uni01D3,
uni01D5,
uni01D7,
uni01D9,
uni01DB,
uni1EE4,
uni1EE6,
Uogonek,

glyphs = (
{
glyphname = A;
layers = (
{
hints = (
{
horizontal = 1;
place = "{0, 21}";
target = up;
type = BottomGhost;
},
{
horizontal = 1;
place = "{200, 67}";
type = Stem;
},
{
horizontal = 1;
place = "{588, 68}";
type = Stem;
},
{
place = "{0, 538}";
type = Stem;
}
);
layerId = "8B4EFE1E-6C47-485C-9646-016EA71CC488";
paths = (
{
closed = 1;
nodes = (
"169 267 LINE",
"201 367 LINE SMOOTH",
"224 440 OFFCURVE",
"245 512 OFFCURVE",
"266 588 CURVE",
"270 588 LINE",
"291 512 OFFCURVE",
"312 440 OFFCURVE",
"335 367 CURVE SMOOTH",
"366 267 LINE"
);
},
{
closed = 1;
nodes = (
"450 0 LINE",
"538 0 LINE",
"316 656 LINE",
"222 656 LINE",
"0 0 LINE",
"85 0 LINE",
"148 200 LINE",
"387 200 LINE"
);
}
);
width = 538;
}
);
leftKerningGroup = A;
note = A;
rightKerningGroup = A;
unicode = 0041;
},
{
glyphname = B;
layers = (
{
hints = (
{
horizontal = 1;
place = "{0, 66}";
type = Stem;
},
{
horizontal = 1;
place = "{314, 62}";
type = Stem;
},
{
horizontal = 1;
place = "{590, 66}";
type = Stem;
},
{
place = "{87, 84}";
type = Stem;
},
{
place = "{463, 82}";
type = Stem;
},
{
place = "{426, 82}";
type = Stem;
}
);
layerId = "8B4EFE1E-6C47-485C-9646-016EA71CC488";
paths = (
{
closed = 1;
nodes = (
"87 0 LINE",
"297 0 LINE SMOOTH",
"443 0 OFFCURVE",
"545 63 OFFCURVE",
"545 192 CURVE SMOOTH",
"545 282 OFFCURVE",
"489 334 OFFCURVE",
"393 349 CURVE",
"393 353 LINE",
"471 373 OFFCURVE",
"508 431 OFFCURVE",
"508 496 CURVE SMOOTH",
"508 611 OFFCURVE",
"415 656 OFFCURVE",
"282 656 CURVE SMOOTH",
"87 656 LINE"
);
},
{
closed = 1;
nodes = (
"171 376 LINE",
"171 590 LINE",
"272 590 LINE SMOOTH",
"373 590 OFFCURVE",
"426 560 OFFCURVE",
"426 489 CURVE SMOOTH",
"426 416 OFFCURVE",
"379 376 OFFCURVE",
"268 376 CURVE SMOOTH"
);
},
{
closed = 1;
nodes = (
"171 66 LINE",
"171 314 LINE",
"285 314 LINE SMOOTH",
"400 314 OFFCURVE",
"463 277 OFFCURVE",
"463 196 CURVE SMOOTH",
"463 107 OFFCURVE",
"397 66 OFFCURVE",
"285 66 CURVE SMOOTH"
);
}
);
width = 583;
}
);
note = B;
rightKerningGroup = B;
unicode = 0042;
},
{
glyphname = C;
layers = (
{
hints = (
{
horizontal = 1;
place = "{-12, 73}";
type = Stem;
},
{
horizontal = 1;
place = "{595, 73}";
type = Stem;
},
{
place = "{49, 86}";
type = Stem;
}
);
layerId = "8B4EFE1E-6C47-485C-9646-016EA71CC488";
paths = (
{
closed = 1;
nodes = (
"49 114 OFFCURVE",
"172 -12 OFFCURVE",
"337 -12 CURVE SMOOTH",
"420 -12 OFFCURVE",
"485 23 OFFCURVE",
"536 83 CURVE",
"489 134 LINE",
"447 87 OFFCURVE",
"401 61 OFFCURVE",
"339 61 CURVE SMOOTH",
"214 61 OFFCURVE",
"135 165 OFFCURVE",
"135 330 CURVE SMOOTH",
"135 493 OFFCURVE",
"218 595 OFFCURVE",
"343 595 CURVE SMOOTH",
"397 595 OFFCURVE",
"439 571 OFFCURVE",
"474 534 CURVE",
"521 587 LINE",
"482 630 OFFCURVE",
"420 668 OFFCURVE",
"342 668 CURVE SMOOTH",
"174 668 OFFCURVE",
"49 539 OFFCURVE",
"49 328 CURVE SMOOTH"
);
}
);
width = 566;
}
);
leftKerningGroup = C;
note = C;
rightKerningGroup = C;
unicode = 0043;
},
{
glyphname = D;
layers = (
{
hints = (
{
horizontal = 1;
place = "{0, 68}";
type = Stem;
},
{
horizontal = 1;
place = "{588, 68}";
type = Stem;
},
{
place = "{87, 84}";
type = Stem;
},
{
place = "{475, 86}";
type = Stem;
}
);
layerId = "8B4EFE1E-6C47-485C-9646-016EA71CC488";
paths = (
{
closed = 1;
nodes = (
"87 0 LINE",
"255 0 LINE SMOOTH",
"453 0 OFFCURVE",
"561 122 OFFCURVE",
"561 331 CURVE SMOOTH",
"561 539 OFFCURVE",
"453 656 OFFCURVE",
"251 656 CURVE SMOOTH",
"87 656 LINE"
);
},
{
closed = 1;
nodes = (
"171 68 LINE",
"171 588 LINE",
"245 588 LINE SMOOTH",
"399 588 OFFCURVE",
"475 496 OFFCURVE",
"475 331 CURVE SMOOTH",
"475 165 OFFCURVE",
"399 68 OFFCURVE",
"245 68 CURVE SMOOTH"
);
}
);
width = 612;
}
);
note = D;
rightKerningGroup = D;
unicode = 0044;
},
{
glyphname = E;
layers = (
{
hints = (
{
horizontal = 1;
place = "{0, 71}";
type = Stem;
},
{
horizontal = 1;
place = "{309, 71}";
type = Stem;
},
{
horizontal = 1;
place = "{586, 70}";
type = Stem;
},
{
place = "{87, 84}";
type = Stem;
}
);
layerId = "8B4EFE1E-6C47-485C-9646-016EA71CC488";
paths = (
{
closed = 1;
nodes = (
"87 0 LINE",
"475 0 LINE",
"475 71 LINE",
"171 71 LINE",
"171 309 LINE",
"419 309 LINE",
"419 380 LINE",
"171 380 LINE",
"171 586 LINE",
"465 586 LINE",
"465 656 LINE",
"87 656 LINE"
);
}
);
width = 522;
}
);
note = E;
unicode = 0045;
},
{
glyphname = F;
layers = (
{
hints = (
{
horizontal = 1;
place = "{0, 21}";
target = up;
type = BottomGhost;
},
{
horizontal = 1;
place = "{294, 70}";
type = Stem;
},
{
horizontal = 1;
place = "{586, 70}";
type = Stem;
},
{
place = "{87, 84}";
type = Stem;
}
);
layerId = "8B4EFE1E-6C47-485C-9646-016EA71CC488";
paths = (
{
closed = 1;
nodes = (
"87 0 LINE",
"171 0 LINE",
"171 294 LINE",
"421 294 LINE",
"421 364 LINE",
"171 364 LINE",
"171 586 LINE",
"466 586 LINE",
"466 656 LINE",
"87 656 LINE"
);
}
);
width = 489;
}
);
note = F;
rightKerningGroup = F;
unicode = 0046;
},
{
glyphname = G;
layers = (
{
hints = (
{
horizontal = 1;
place = "{-12, 73}";
type = Stem;
},
{
horizontal = 1;
place = "{271, 69}";
type = Stem;
},
{
horizontal = 1;
place = "{595, 73}";
type = Stem;
},
{
place = "{49, 86}";
type = Stem;
},
{
place = "{472, 76}";
type = Stem;
}
);
layerId = "8B4EFE1E-6C47-485C-9646-016EA71CC488";
paths = (
{
closed = 1;
nodes = (
"49 114 OFFCURVE",
"172 -12 OFFCURVE",
"344 -12 CURVE SMOOTH",
"432 -12 OFFCURVE",
"505 22 OFFCURVE",
"548 64 CURVE",
"548 340 LINE",
"333 340 LINE",
"333 271 LINE",
"472 271 LINE",
"472 100 LINE",
"446 76 OFFCURVE",
"400 61 OFFCURVE",
"353 61 CURVE SMOOTH",
"213 61 OFFCURVE",
"135 165 OFFCURVE",
"135 330 CURVE SMOOTH",
"135 493 OFFCURVE",
"220 595 OFFCURVE",
"353 595 CURVE SMOOTH",
"418 595 OFFCURVE",
"459 569 OFFCURVE",
"492 534 CURVE",
"540 587 LINE",
"501 627 OFFCURVE",
"441 668 OFFCURVE",
"352 668 CURVE SMOOTH",
"176 668 OFFCURVE",
"49 539 OFFCURVE",
"49 328 CURVE SMOOTH"
);
}
);
width = 612;
}
);
leftKerningGroup = C;
note = G;
rightKerningGroup = G;
unicode = 0047;
},
{
glyphname = H;
lastChange = "2019-12-26 16:41:18 +0000";
layers = (
{
hints = (
{
horizontal = 1;
place = "{0, 21}";
target = up;
type = BottomGhost;
},
{
horizontal = 1;
place = "{309, 72}";
type = Stem;
},
{
horizontal = 1;
place = "{656, -20}";
target = down;
type = TopGhost;
},
{
place = "{87, 84}";
type = Stem;
},
{
place = "{476, 83}";
type = Stem;
}
);
layerId = "8B4EFE1E-6C47-485C-9646-016EA71CC488";
paths = (
{
closed = 1;
nodes = (
"87 0 LINE",
"171 0 LINE",
"171 309 LINE",
"476 309 LINE",
"476 0 LINE",
"559 0 LINE",
"559 656 LINE",
"476 656 LINE",
"476 381 LINE",
"171 381 LINE",
"171 656 LINE",
"87 656 LINE"
);
}
);
width = 650;
}
);
note = H;
unicode = 0048;
},
{
glyphname = I;
layers = (
{
hints = (
{
horizontal = 1;
place = "{0, 21}";
target = up;
type = BottomGhost;
},
{
horizontal = 1;
place = "{656, -20}";
target = down;
type = TopGhost;
},
{
place = "{87, 84}";
type = Stem;
}
);
layerId = "8B4EFE1E-6C47-485C-9646-016EA71CC488";
paths = (
{
closed = 1;
nodes = (
"87 0 LINE",
"171 0 LINE",
"171 656 LINE",
"87 656 LINE"
);
}
);
width = 258;
}
);
note = I;
unicode = 0049;
},
{
glyphname = J;
layers = (
{
hints = (
{
horizontal = 1;
place = "{-12, 73}";
type = Stem;
},
{
horizontal = 1;
place = "{656, -20}";
target = down;
type = TopGhost;
},
{
place = "{307, 83}";
type = Stem;
}
);
layerId = "8B4EFE1E-6C47-485C-9646-016EA71CC488";
paths = (
{
closed = 1;
nodes = (
"29 93 LINE",
"67 24 OFFCURVE",
"126 -12 OFFCURVE",
"209 -12 CURVE SMOOTH",
"338 -12 OFFCURVE",
"390 80 OFFCURVE",
"390 193 CURVE SMOOTH",
"390 656 LINE",
"307 656 LINE",
"307 201 LINE SMOOTH",
"307 101 OFFCURVE",
"272 61 OFFCURVE",
"202 61 CURVE SMOOTH",
"155 61 OFFCURVE",
"118 83 OFFCURVE",
"88 135 CURVE"
);
}
);
width = 474;
}
);
leftKerningGroup = J;
note = J;
rightKerningGroup = J;
unicode = 004A;
},
{
glyphname = K;
layers = (
{
hints = (
{
horizontal = 1;
place = "{0, 21}";
target = up;
type = BottomGhost;
},
{
horizontal = 1;
place = "{656, -20}";
target = down;
type = TopGhost;
},
{
place = "{87, 84}";
type = Stem;
}
);
layerId = "8B4EFE1E-6C47-485C-9646-016EA71CC488";
paths = (
{
closed = 1;
nodes = (
"87 0 LINE",
"171 0 LINE",
"171 208 LINE",
"283 341 LINE",
"479 0 LINE",
"572 0 LINE",
"335 406 LINE",
"541 656 LINE",
"446 656 LINE",
"173 327 LINE",
"171 327 LINE",
"171 656 LINE",
"87 656 LINE"
);
}
);
width = 574;
}
);
note = K;
rightKerningGroup = K;
unicode = 004B;
},
{
glyphname = L;
layers = (
{
hints = (
{
horizontal = 1;
place = "{0, 71}";
type = Stem;
},
{
horizontal = 1;
place = "{656, -20}";
target = down;
type = TopGhost;
},
{
place = "{87, 84}";
type = Stem;
}
);
layerId = "8B4EFE1E-6C47-485C-9646-016EA71CC488";
paths = (
{
closed = 1;
nodes = (
"87 0 LINE",
"457 0 LINE",
"457 71 LINE",
"171 71 LINE",
"171 656 LINE",
"87 656 LINE"
);
}
);
width = 481;
}
);
note = L;
rightKerningGroup = L;
unicode = 004C;
},
{
glyphname = M;
layers = (
{
hints = (
{
horizontal = 1;
place = "{0, 21}";
target = up;
type = BottomGhost;
},
{
horizontal = 1;
place = "{66, 104}";
type = Stem;
},
{
horizontal = 1;
place = "{555, 101}";
type = Stem;
},
{
place = "{87, 77}";
type = Stem;
},
{
place = "{555, 79}";
type = Stem;
}
);
layerId = "8B4EFE1E-6C47-485C-9646-016EA71CC488";
paths = (
{
closed = 1;
nodes = (
"87 0 LINE",
"164 0 LINE",
"164 361 LINE SMOOTH",
"164 419 OFFCURVE",
"158 497 OFFCURVE",
"154 555 CURVE",
"158 555 LINE",
"210 409 LINE",
"336 66 LINE",
"384 66 LINE",
"510 409 LINE",
"562 555 LINE",
"566 555 LINE",
"562 497 OFFCURVE",
"555 419 OFFCURVE",
"555 361 CURVE SMOOTH",
"555 0 LINE",
"634 0 LINE",
"634 656 LINE",
"536 656 LINE",
"410 304 LINE",
"364 170 LINE",
"360 170 LINE",
"313 304 LINE",
"186 656 LINE",
"87 656 LINE"
);
}
);
width = 722;
}
);
note = M;
unicode = 004D;
},
{
glyphname = N;
layers = (
{
hints = (
{
horizontal = 1;
place = "{0, 21}";
target = up;
type = BottomGhost;
},
{
horizontal = 1;
place = "{656, -20}";
target = down;
type = TopGhost;
},
{
place = "{87, 79}";
type = Stem;
},
{
place = "{475, 79}";
type = Stem;
},
{
horizontal = 1;
place = "{548, 108}";
type = Stem;
},
{
horizontal = 1;
place = "{0, 108}";
type = Stem;
}
);
layerId = "8B4EFE1E-6C47-485C-9646-016EA71CC488";
paths = (
{
closed = 1;
nodes = (
"87 0 LINE",
"166 0 LINE",
"166 343 LINE SMOOTH",
"166 412 OFFCURVE",
"160 482 OFFCURVE",
"156 548 CURVE",
"160 548 LINE",
"231 413 LINE",
"468 0 LINE",
"554 0 LINE",
"554 656 LINE",
"475 656 LINE",
"475 317 LINE SMOOTH",
"475 248 OFFCURVE",
"482 174 OFFCURVE",
"486 108 CURVE",
"482 108 LINE",
"411 244 LINE",
"173 656 LINE",
"87 656 LINE"
);
}
);
width = 642;
}
);
note = N;
unicode = 004E;
},
{
glyphname = O;
layers = (
{
hints = (
{
horizontal = 1;
place = "{-12, 73}";
type = Stem;
},
{
horizontal = 1;
place = "{595, 73}";
type = Stem;
},
{
place = "{49, 86}";
type = Stem;
},
{
place = "{524, 86}";
type = Stem;
}
);
layerId = "8B4EFE1E-6C47-485C-9646-016EA71CC488";
paths = (
{
closed = 1;
nodes = (
"494 -12 OFFCURVE",
"610 120 OFFCURVE",
"610 331 CURVE SMOOTH",
"610 540 OFFCURVE",
"494 668 OFFCURVE",
"330 668 CURVE SMOOTH",
"165 668 OFFCURVE",
"49 541 OFFCURVE",
"49 331 CURVE SMOOTH",
"49 120 OFFCURVE",
"165 -12 OFFCURVE",
"330 -12 CURVE SMOOTH"
);
},
{
closed = 1;
nodes = (
"212 61 OFFCURVE",
"135 167 OFFCURVE",
"135 331 CURVE SMOOTH",
"135 494 OFFCURVE",
"212 595 OFFCURVE",
"330 595 CURVE SMOOTH",
"447 595 OFFCURVE",
"524 494 OFFCURVE",
"524 331 CURVE SMOOTH",
"524 167 OFFCURVE",
"447 61 OFFCURVE",
"330 61 CURVE SMOOTH"
);
}
);
width = 659;
}
);
leftKerningGroup = C;
note = O;
rightKerningGroup = D;
unicode = 004F;
},
{
glyphname = P;
layers = (
{
hints = (
{
horizontal = 1;
place = "{0, 21}";
target = up;
type = BottomGhost;
},
{
horizontal = 1;
place = "{260, 68}";
type = Stem;
},
{
horizontal = 1;
place = "{589, 67}";
type = Stem;
},
{
place = "{87, 84}";
type = Stem;
},
{
place = "{448, 83}";
type = Stem;
}
);
layerId = "8B4EFE1E-6C47-485C-9646-016EA71CC488";
paths = (
{
closed = 1;
nodes = (
"87 0 LINE",
"171 0 LINE",
"171 260 LINE",
"289 260 LINE SMOOTH",
"432 260 OFFCURVE",
"531 325 OFFCURVE",
"531 463 CURVE SMOOTH",
"531 607 OFFCURVE",
"434 656 OFFCURVE",
"289 656 CURVE SMOOTH",
"87 656 LINE"
);
},
{
closed = 1;
nodes = (
"171 328 LINE",
"171 589 LINE",
"278 589 LINE SMOOTH",
"391 589 OFFCURVE",
"448 558 OFFCURVE",
"448 463 CURVE SMOOTH",
"448 370 OFFCURVE",
"393 328 OFFCURVE",
"278 328 CURVE SMOOTH"
);
}
);
width = 571;
}
);
note = P;
rightKerningGroup = P;
unicode = 0050;
},
{
glyphname = Q;
layers = (
{
hints = (
{
horizontal = 1;
place = "{-164, 70}";
type = Stem;
},
{
horizontal = 1;
place = "{-8, 69}";
type = Stem;
},
{
horizontal = 1;
place = "{595, 73}";
type = Stem;
},
{
place = "{48, 86}";
type = Stem;
},
{
place = "{522, 87}";
type = Stem;
}
);
layerId = "8B4EFE1E-6C47-485C-9646-016EA71CC488";
paths = (
{
closed = 1;
nodes = (
"134 494 OFFCURVE",
"211 595 OFFCURVE",
"328 595 CURVE SMOOTH",
"445 595 OFFCURVE",
"522 494 OFFCURVE",
"522 331 CURVE SMOOTH",
"522 167 OFFCURVE",
"445 61 OFFCURVE",
"328 61 CURVE SMOOTH",
"211 61 OFFCURVE",
"134 167 OFFCURVE",
"134 331 CURVE SMOOTH"
);
},
{
closed = 1;
nodes = (
"607 -84 LINE",
"589 -89 OFFCURVE",
"567 -94 OFFCURVE",
"538 -94 CURVE SMOOTH",
"467 -94 OFFCURVE",
"407 -66 OFFCURVE",
"377 -8 CURVE",
"516 16 OFFCURVE",
"609 142 OFFCURVE",
"609 331 CURVE SMOOTH",
"609 540 OFFCURVE",
"493 668 OFFCURVE",
"328 668 CURVE SMOOTH",
"163 668 OFFCURVE",
"48 541 OFFCURVE",
"48 331 CURVE SMOOTH",
"48 138 OFFCURVE",
"144 11 OFFCURVE",
"287 -9 CURVE",
"325 -99 OFFCURVE",
"408 -164 OFFCURVE",
"529 -164 CURVE SMOOTH",
"568 -164 OFFCURVE",
"603 -156 OFFCURVE",
"623 -149 CURVE"
);
}
);
width = 659;
}
);
leftKerningGroup = C;
note = Q;
rightKerningGroup = D;
unicode = 0051;
},
{
glyphname = R;
layers = (
{
hints = (
{
horizontal = 1;
place = "{0, 21}";
target = up;
type = BottomGhost;
},
{
horizontal = 1;
place = "{277, 68}";
type = Stem;
},
{
horizontal = 1;
place = "{589, 67}";
type = Stem;
},
{
place = "{87, 84}";
type = Stem;
},
{
place = "{439, 83}";
type = Stem;
}
);
layerId = "8B4EFE1E-6C47-485C-9646-016EA71CC488";
paths = (
{
closed = 1;
nodes = (
"171 589 LINE",
"281 589 LINE SMOOTH",
"383 589 OFFCURVE",
"439 558 OFFCURVE",
"439 472 CURVE SMOOTH",
"439 387 OFFCURVE",
"383 345 OFFCURVE",
"281 345 CURVE SMOOTH",
"171 345 LINE"
);
},
{
closed = 1;
nodes = (
"542 0 LINE",
"375 286 LINE",
"464 309 OFFCURVE",
"522 370 OFFCURVE",
"522 472 CURVE SMOOTH",
"522 608 OFFCURVE",
"426 656 OFFCURVE",
"293 656 CURVE SMOOTH",
"87 656 LINE",
"87 0 LINE",
"171 0 LINE",
"171 277 LINE",
"289 277 LINE",
"447 0 LINE"
);
}
);
width = 576;
}
);
note = R;
rightKerningGroup = R;
unicode = 0052;
},
{
glyphname = S;
layers = (
{
hints = (
{
horizontal = 1;
place = "{-12, 73}";
type = Stem;
},
{
horizontal = 1;
place = "{595, 73}";
type = Stem;
},
{
place = "{71, 84}";
type = Stem;
},
{
place = "{408, 85}";
type = Stem;
}
);
layerId = "8B4EFE1E-6C47-485C-9646-016EA71CC488";
paths = (
{
closed = 1;
nodes = (
"40 85 LINE",
"97 26 OFFCURVE",
"177 -12 OFFCURVE",
"269 -12 CURVE SMOOTH",
"407 -12 OFFCURVE",
"493 71 OFFCURVE",
"493 175 CURVE SMOOTH",
"493 272 OFFCURVE",
"434 317 OFFCURVE",
"358 350 CURVE SMOOTH",
"264 390 LINE SMOOTH",
"213 412 OFFCURVE",
"155 436 OFFCURVE",
"155 499 CURVE SMOOTH",
"155 558 OFFCURVE",
"204 595 OFFCURVE",
"278 595 CURVE SMOOTH",
"338 595 OFFCURVE",
"387 571 OFFCURVE",
"427 533 CURVE",
"471 587 LINE",
"425 635 OFFCURVE",
"356 668 OFFCURVE",
"278 668 CURVE SMOOTH",
"159 668 OFFCURVE",
"71 594 OFFCURVE",
"71 494 CURVE SMOOTH",
"71 398 OFFCURVE",
"143 351 OFFCURVE",
"204 325 CURVE SMOOTH",
"298 284 LINE SMOOTH",
"360 256 OFFCURVE",
"408 235 OFFCURVE",
"408 168 CURVE SMOOTH",
"408 104 OFFCURVE",
"357 61 OFFCURVE",
"271 61 CURVE SMOOTH",
"202 61 OFFCURVE",
"137 94 OFFCURVE",
"90 143 CURVE"
);
}
);
width = 529;
}
);
leftKerningGroup = S;
note = S;
rightKerningGroup = S;
unicode = 0053;
},
{
glyphname = T;
layers = (
{
hints = (
{
horizontal = 1;
place = "{0, 21}";
target = up;
type = BottomGhost;
},
{
horizontal = 1;
place = "{586, 70}";
type = Stem;
},
{
place = "{224, 83}";
type = Stem;
}
);
layerId = "8B4EFE1E-6C47-485C-9646-016EA71CC488";
paths = (
{
closed = 1;
nodes = (
"224 0 LINE",
"307 0 LINE",
"307 586 LINE",
"506 586 LINE",
"506 656 LINE",
"25 656 LINE",
"25 586 LINE",
"224 586 LINE"
);
}
);
width = 531;
}
);
leftKerningGroup = T;
note = T;
rightKerningGroup = T;
unicode = 0054;
},
{
glyphname = U;
layers = (
{
hints = (
{
horizontal = 1;
place = "{-12, 73}";
type = Stem;
},
{
horizontal = 1;
place = "{656, -20}";
target = down;
type = TopGhost;
},
{
place = "{84, 84}";
type = Stem;
},
{
place = "{476, 80}";
type = Stem;
}
);
layerId = "8B4EFE1E-6C47-485C-9646-016EA71CC488";
paths = (
{
closed = 1;
nodes = (
"84 271 LINE SMOOTH",
"84 60 OFFCURVE",
"186 -12 OFFCURVE",
"320 -12 CURVE SMOOTH",
"454 -12 OFFCURVE",
"556 60 OFFCURVE",
"556 271 CURVE SMOOTH",
"556 656 LINE",
"476 656 LINE",
"476 269 LINE SMOOTH",
"476 111 OFFCURVE",
"407 61 OFFCURVE",
"320 61 CURVE SMOOTH",
"235 61 OFFCURVE",
"168 111 OFFCURVE",
"168 269 CURVE SMOOTH",
"168 656 LINE",
"84 656 LINE"
);
}
);
width = 640;
}
);
leftKerningGroup = U;
note = U;
rightKerningGroup = U;
unicode = 0055;
},
{
glyphname = V;
layers = (
{
hints = (
{
horizontal = 1;
place = "{0, 85}";
type = Stem;
},
{
horizontal = 1;
place = "{656, -20}";
target = down;
type = TopGhost;
},
{
place = "{-2, 514}";
type = Stem;
}
);
layerId = "8B4EFE1E-6C47-485C-9646-016EA71CC488";
paths = (
{
closed = 1;
nodes = (
"207 0 LINE",
"304 0 LINE",
"512 656 LINE",
"427 656 LINE",
"322 302 LINE SMOOTH",
"300 224 OFFCURVE",
"283 162 OFFCURVE",
"259 85 CURVE",
"255 85 LINE",
"231 162 OFFCURVE",
"215 224 OFFCURVE",
"192 302 CURVE SMOOTH",
"86 656 LINE",
"-2 656 LINE"
);
}
);
width = 510;
}
);
leftKerningGroup = V;
note = V;
rightKerningGroup = V;
unicode = 0056;
},
{
glyphname = W;
layers = (
{
hints = (
{
horizontal = 1;
place = "{0, 87}";
type = Stem;
},
{
horizontal = 1;
place = "{656, -20}";
target = down;
type = TopGhost;
},
{
place = "{20, 740}";
type = Stem;
},
{
horizontal = 1;
place = "{544, 112}";
type = Stem;
}
);
layerId = "8B4EFE1E-6C47-485C-9646-016EA71CC488";
paths = (
{
closed = 1;
nodes = (
"159 0 LINE",
"258 0 LINE",
"356 395 LINE SMOOTH",
"367 446 OFFCURVE",
"378 493 OFFCURVE",
"389 544 CURVE",
"393 544 LINE",
"402 493 OFFCURVE",
"413 446 OFFCURVE",
"424 395 CURVE SMOOTH",
"523 0 LINE",
"624 0 LINE",
"760 656 LINE",
"679 656 LINE",
"610 299 LINE SMOOTH",
"598 229 OFFCURVE",
"586 158 OFFCURVE",
"573 87 CURVE",
"569 87 LINE",
"553 158 OFFCURVE",
"537 230 OFFCURVE",
"522 299 CURVE",
"431 656 LINE",
"355 656 LINE",
"264 299 LINE SMOOTH",
"248 229 OFFCURVE",
"232 158 OFFCURVE",
"218 87 CURVE",
"214 87 LINE",
"201 158 OFFCURVE",
"188 228 OFFCURVE",
"175 299 CURVE SMOOTH",
"106 656 LINE",
"20 656 LINE"
);
}
);
width = 781;
}
);
leftKerningGroup = W;
note = W;
rightKerningGroup = W;
unicode = 0057;
},
{
glyphname = X;
layers = (
{
hints = (
{
horizontal = 1;
place = "{0, 21}";
target = up;
type = BottomGhost;
},
{
horizontal = 1;
place = "{656, -20}";
target = down;
type = TopGhost;
},
{
place = "{13, 483}";
type = Stem;
}
);
layerId = "8B4EFE1E-6C47-485C-9646-016EA71CC488";
paths = (
{
closed = 1;
nodes = (
"13 0 LINE",
"100 0 LINE",
"195 177 LINE SMOOTH",
"212 209 OFFCURVE",
"228 242 OFFCURVE",
"247 282 CURVE",
"251 282 LINE",
"272 242 OFFCURVE",
"290 209 OFFCURVE",
"307 177 CURVE SMOOTH",
"404 0 LINE",
"496 0 LINE",
"305 335 LINE",
"483 656 LINE",
"395 656 LINE",
"308 488 LINE SMOOTH",
"292 458 OFFCURVE",
"280 431 OFFCURVE",
"262 393 CURVE",
"258 393 LINE",
"237 431 OFFCURVE",
"223 458 OFFCURVE",
"207 488 CURVE SMOOTH",
"117 656 LINE",
"25 656 LINE",
"204 339 LINE"
);
}
);
width = 508;
}
);
leftKerningGroup = X;
note = X;
rightKerningGroup = X;
unicode = 0058;
},
{
glyphname = Y;
layers = (
{
hints = (
{
horizontal = 1;
place = "{0, 21}";
target = up;
type = BottomGhost;
},
{
horizontal = 1;
place = "{656, -20}";
target = down;
type = TopGhost;
},
{
place = "{194, 83}";
type = Stem;
}
);
layerId = "8B4EFE1E-6C47-485C-9646-016EA71CC488";
paths = (
{
closed = 1;
nodes = (
"194 0 LINE",
"277 0 LINE",
"277 254 LINE",
"474 656 LINE",
"388 656 LINE",
"303 471 LINE SMOOTH",
"283 423 OFFCURVE",
"260 377 OFFCURVE",
"238 328 CURVE",
"234 328 LINE",
"211 377 OFFCURVE",
"191 423 OFFCURVE",
"170 471 CURVE SMOOTH",
"86 656 LINE",
"-4 656 LINE",
"194 254 LINE"
);
}
);
width = 471;
}
);
leftKerningGroup = Y;
note = Y;
rightKerningGroup = Y;
unicode = 0059;
},
{
glyphname = Z;
layers = (
{
hints = (
{
horizontal = 1;
place = "{0, 71}";
type = Stem;
},
{
horizontal = 1;
place = "{586, 70}";
type = Stem;
},
{
place = "{42, 452}";
type = Stem;
}
);
layerId = "8B4EFE1E-6C47-485C-9646-016EA71CC488";
paths = (
{
closed = 1;
nodes = (
"42 0 LINE",
"494 0 LINE",
"494 71 LINE",
"145 71 LINE",
"491 607 LINE",
"491 656 LINE",
"73 656 LINE",
"73 586 LINE",
"388 586 LINE",
"42 50 LINE"
);
}
);
width = 534;
}
);
leftKerningGroup = Z;
note = Z;
rightKerningGroup = Z;
unicode = 005A;
},
{
glyphname = a;
layers = (
{
hints = (
{
horizontal = 1;
place = "{-12, 66}";
type = Stem;
},
{
horizontal = 1;
place = "{430, 68}";
type = Stem;
},
{
place = "{58, 81}";
type = Stem;
},
{
place = "{357, 82}";
type = Stem;
},
{
horizontal = 1;
place = "{0, 21}";
target = up;
type = BottomGhost;
}
);
layerId = "8B4EFE1E-6C47-485C-9646-016EA71CC488";
paths = (
{
closed = 1;
nodes = (
"58 39 OFFCURVE",
"119 -12 OFFCURVE",
"201 -12 CURVE SMOOTH",
"261 -12 OFFCURVE",
"315 20 OFFCURVE",
"362 58 CURVE",
"364 58 LINE",
"371 0 LINE",
"439 0 LINE",
"439 298 LINE SMOOTH",
"439 419 OFFCURVE",
"389 498 OFFCURVE",
"270 498 CURVE SMOOTH",
"192 498 OFFCURVE",
"124 464 OFFCURVE",
"79 435 CURVE",
"112 378 LINE",
"150 404 OFFCURVE",
"200 430 OFFCURVE",
"257 430 CURVE SMOOTH",
"336 430 OFFCURVE",
"357 370 OFFCURVE",
"357 308 CURVE",
"150 285 OFFCURVE",
"58 232 OFFCURVE",
"58 126 CURVE SMOOTH"
);
},
{
closed = 1;
nodes = (
"139 194 OFFCURVE",
"194 234 OFFCURVE",
"357 254 CURVE",
"357 119 LINE",
"310 77 OFFCURVE",
"271 54 OFFCURVE",
"224 54 CURVE SMOOTH",
"176 54 OFFCURVE",
"139 77 OFFCURVE",
"139 132 CURVE SMOOTH"
);
}
);
width = 512;
}
);
leftKerningGroup = a;
note = a;
rightKerningGroup = a;
unicode = 0061;
},
{
glyphname = b;
layers = (
{
hints = (
{
horizontal = 1;
place = "{0, 21}";
target = up;
type = BottomGhost;
},
{
horizontal = 1;
place = "{429, 69}";
type = Stem;
},
{
horizontal = 1;
place = "{712, -20}";
target = down;
type = TopGhost;
},
{
place = "{82, 82}";
type = Stem;
},
{
place = "{422, 85}";
type = Stem;
},
{
horizontal = 1;
place = "{-12, 69}";
type = Stem;
}
);
layerId = "8B4EFE1E-6C47-485C-9646-016EA71CC488";
paths = (
{
closed = 1;
nodes = (
"82 0 LINE",
"148 0 LINE",
"155 48 LINE",
"158 48 LINE",
"201 10 OFFCURVE",
"252 -12 OFFCURVE",
"297 -12 CURVE SMOOTH",
"408 -12 OFFCURVE",
"507 85 OFFCURVE",
"507 251 CURVE SMOOTH",
"507 401 OFFCURVE",
"440 498 OFFCURVE",
"314 498 CURVE SMOOTH",
"260 498 OFFCURVE",
"206 469 OFFCURVE",
"162 430 CURVE",
"164 518 LINE",
"164 712 LINE",
"82 712 LINE"
);
},
{
closed = 1;
nodes = (
"164 363 LINE",
"210 406 OFFCURVE",
"253 429 OFFCURVE",
"294 429 CURVE SMOOTH",
"386 429 OFFCURVE",
"422 357 OFFCURVE",
"422 250 CURVE SMOOTH",
"422 130 OFFCURVE",
"363 57 OFFCURVE",
"283 57 CURVE SMOOTH",
"251 57 OFFCURVE",
"207 71 OFFCURVE",
"164 108 CURVE"
);
}
);
width = 555;
}
);
note = b;
rightKerningGroup = b;
unicode = 0062;
},
{
glyphname = c;
layers = (
{
hints = (
{
horizontal = 1;
place = "{-12, 68}";
type = Stem;
},
{
horizontal = 1;
place = "{430, 68}";
type = Stem;
},
{
place = "{46, 85}";
type = Stem;
}
);
layerId = "8B4EFE1E-6C47-485C-9646-016EA71CC488";
paths = (
{
closed = 1;
nodes = (
"46 81 OFFCURVE",
"145 -12 OFFCURVE",
"274 -12 CURVE SMOOTH",
"332 -12 OFFCURVE",
"388 12 OFFCURVE",
"432 51 CURVE",
"395 105 LINE",
"366 79 OFFCURVE",
"327 56 OFFCURVE",
"281 56 CURVE SMOOTH",
"192 56 OFFCURVE",
"131 131 OFFCURVE",
"131 242 CURVE SMOOTH",
"131 354 OFFCURVE",
"195 430 OFFCURVE",
"283 430 CURVE SMOOTH",
"322 430 OFFCURVE",
"352 412 OFFCURVE",
"381 387 CURVE",
"422 440 LINE",
"389 471 OFFCURVE",
"344 498 OFFCURVE",
"280 498 CURVE SMOOTH",
"155 498 OFFCURVE",
"46 405 OFFCURVE",
"46 242 CURVE SMOOTH"
);
}
);
width = 456;
}
);
leftKerningGroup = c;
note = c;
rightKerningGroup = c;
unicode = 0063;
},
{
glyphname = d;
layers = (
{
hints = (
{
horizontal = 1;
place = "{-12, 69}";
type = Stem;
},
{
horizontal = 1;
place = "{429, 69}";
type = Stem;
},
{
horizontal = 1;
place = "{712, -20}";
target = down;
type = TopGhost;
},
{
place = "{47, 85}";
type = Stem;
},
{
place = "{390, 83}";
type = Stem;
},
{
horizontal = 1;
place = "{0, 21}";
target = up;
type = BottomGhost;
}
);
layerId = "8B4EFE1E-6C47-485C-9646-016EA71CC488";
paths = (
{
closed = 1;
nodes = (
"47 80 OFFCURVE",
"126 -12 OFFCURVE",
"248 -12 CURVE SMOOTH",
"305 -12 OFFCURVE",
"357 20 OFFCURVE",
"395 57 CURVE",
"398 57 LINE",
"405 0 LINE",
"473 0 LINE",
"473 712 LINE",
"390 712 LINE",
"390 525 LINE",
"394 442 LINE",
"351 477 OFFCURVE",
"314 498 OFFCURVE",
"258 498 CURVE SMOOTH",
"147 498 OFFCURVE",
"47 400 OFFCURVE",
"47 242 CURVE SMOOTH"
);
},
{
closed = 1;
nodes = (
"132 354 OFFCURVE",
"194 429 OFFCURVE",
"272 429 CURVE SMOOTH",
"312 429 OFFCURVE",
"349 415 OFFCURVE",
"390 378 CURVE",
"390 124 LINE",
"350 79 OFFCURVE",
"311 57 OFFCURVE",
"266 57 CURVE SMOOTH",
"181 57 OFFCURVE",
"132 127 OFFCURVE",
"132 243 CURVE SMOOTH"
);
}
);
width = 555;
}
);
leftKerningGroup = c;
note = d;
unicode = 0064;
},
{
glyphname = e;
layers = (
{
hints = (
{
horizontal = 1;
place = "{-12, 66}";
type = Stem;
},
{
horizontal = 1;
place = "{225, 54}";
type = Stem;
},
{
horizontal = 1;
place = "{433, 65}";
type = Stem;
},
{
place = "{46, 80}";
type = Stem;
},
{
place = "{386, 72}";
type = Stem;
}
);
layerId = "8B4EFE1E-6C47-485C-9646-016EA71CC488";
paths = (
{
closed = 1;
nodes = (
"46 83 OFFCURVE",
"149 -12 OFFCURVE",
"279 -12 CURVE SMOOTH",
"345 -12 OFFCURVE",
"397 11 OFFCURVE",
"439 38 CURVE",
"410 92 LINE",
"374 69 OFFCURVE",
"335 54 OFFCURVE",
"289 54 CURVE SMOOTH",
"196 54 OFFCURVE",
"133 120 OFFCURVE",
"127 225 CURVE",
"455 225 LINE",
"457 237 OFFCURVE",
"458 253 OFFCURVE",
"458 270 CURVE SMOOTH",
"458 409 OFFCURVE",
"388 498 OFFCURVE",
"264 498 CURVE SMOOTH",
"153 498 OFFCURVE",
"46 401 OFFCURVE",
"46 242 CURVE SMOOTH"
);
},
{
closed = 1;
nodes = (
"126 279 LINE",
"136 377 OFFCURVE",
"198 433 OFFCURVE",
"266 433 CURVE SMOOTH",
"342 433 OFFCURVE",
"386 378 OFFCURVE",
"386 279 CURVE"
);
}
);
width = 496;
}
);
leftKerningGroup = c;
note = e;
rightKerningGroup = e;
unicode = 0065;
},
{
glyphname = f;
layers = (
{
hints = (
{
horizontal = 1;
place = "{0, 21}";
target = up;
type = BottomGhost;
},
{
horizontal = 1;
place = "{419, 67}";
type = Stem;
},
{
horizontal = 1;
place = "{657, 67}";
type = Stem;
},
{
place = "{96, 82}";
type = Stem;
}
);
layerId = "8B4EFE1E-6C47-485C-9646-016EA71CC488";
paths = (
{
closed = 1;
nodes = (
"319 708 LINE",
"297 717 OFFCURVE",
"268 724 OFFCURVE",
"238 724 CURVE SMOOTH",
"141 724 OFFCURVE",
"96 662 OFFCURVE",
"96 563 CURVE SMOOTH",
"96 486 LINE",
"30 481 LINE",
"30 419 LINE",
"96 419 LINE",
"96 0 LINE",
"178 0 LINE",
"178 419 LINE",
"281 419 LINE",
"281 486 LINE",
"178 486 LINE",
"178 563 LINE SMOOTH",
"178 625 OFFCURVE",
"200 657 OFFCURVE",
"246 657 CURVE SMOOTH",
"264 657 OFFCURVE",
"283 653 OFFCURVE",
"301 645 CURVE"
);
}
);
width = 292;
}
);
leftKerningGroup = f;
note = f;
rightKerningGroup = f;
unicode = 0066;
},
{
glyphname = g;
layers = (
{
hints = (
{
horizontal = 1;
place = "{-224, 57}";
type = Stem;
},
{
horizontal = 1;
place = "{0, 21}";
target = up;
type = BottomGhost;
},
{
horizontal = 1;
place = "{154, 55}";
type = Stem;
},
{
horizontal = 1;
place = "{423, 63}";
type = Stem;
},
{
place = "{45, 72}";
type = Stem;
},
{
place = "{349, 75}";
type = Stem;
},
{
horizontal = 1;
place = "{-8, 68}";
type = Stem;
},
{
place = "{63, 80}";
type = Stem;
},
{
place = "{412, 80}";
type = Stem;
},
{
place = "{73, 69}";
type = Stem;
},
{
horizontal = 1;
place = "{438, 60}";
type = Stem;
}
);
layerId = "8B4EFE1E-6C47-485C-9646-016EA71CC488";
paths = (
{
closed = 1;
nodes = (
"117 -54 OFFCURVE",
"132 -25 OFFCURVE",
"167 0 CURVE",
"188 -6 OFFCURVE",
"211 -8 OFFCURVE",
"230 -8 CURVE SMOOTH",
"314 -8 LINE SMOOTH",
"377 -8 OFFCURVE",
"412 -23 OFFCURVE",
"412 -68 CURVE SMOOTH",
"412 -119 OFFCURVE",
"351 -167 OFFCURVE",
"258 -167 CURVE SMOOTH",
"170 -167 OFFCURVE",
"117 -134 OFFCURVE",
"117 -82 CURVE SMOOTH"
);
},
{
closed = 1;
nodes = (
"45 -177 OFFCURVE",
"127 -224 OFFCURVE",
"246 -224 CURVE SMOOTH",
"397 -224 OFFCURVE",
"492 -146 OFFCURVE",
"492 -56 CURVE SMOOTH",
"492 25 OFFCURVE",
"435 60 OFFCURVE",
"322 60 CURVE SMOOTH",
"228 60 LINE SMOOTH",
"162 60 OFFCURVE",
"142 82 OFFCURVE",
"142 113 CURVE SMOOTH",
"142 140 OFFCURVE",
"156 156 OFFCURVE",
"173 171 CURVE",
"195 160 OFFCURVE",
"222 154 OFFCURVE",
"246 154 CURVE SMOOTH",
"345 154 OFFCURVE",
"424 219 OFFCURVE",
"424 323 CURVE SMOOTH",
"424 364 OFFCURVE",
"407 401 OFFCURVE",
"384 423 CURVE",
"484 423 LINE",
"484 486 LINE",
"315 486 LINE",
"297 493 OFFCURVE",
"273 498 OFFCURVE",
"246 498 CURVE SMOOTH",
"147 498 OFFCURVE",
"63 431 OFFCURVE",
"63 325 CURVE SMOOTH",
"63 267 OFFCURVE",
"94 220 OFFCURVE",
"126 194 CURVE",
"126 190 LINE",
"101 173 OFFCURVE",
"73 141 OFFCURVE",
"73 100 CURVE SMOOTH",
"73 62 OFFCURVE",
"92 36 OFFCURVE",
"116 21 CURVE",
"116 17 LINE",
"72 -13 OFFCURVE",
"45 -52 OFFCURVE",
"45 -93 CURVE SMOOTH"
);
},
{
closed = 1;
nodes = (
"190 209 OFFCURVE",
"143 254 OFFCURVE",
"143 325 CURVE SMOOTH",
"143 396 OFFCURVE",
"189 438 OFFCURVE",
"246 438 CURVE SMOOTH",
"303 438 OFFCURVE",
"349 396 OFFCURVE",
"349 325 CURVE SMOOTH",
"349 254 OFFCURVE",
"302 209 OFFCURVE",
"246 209 CURVE SMOOTH"
);
}
);
width = 504;
}
);
leftKerningGroup = g;
note = g;
rightKerningGroup = g;
unicode = 0067;
},
{
glyphname = h;
layers = (
{
hints = (
{
horizontal = 1;
place = "{0, 21}";
target = up;
type = BottomGhost;
},
{
horizontal = 1;
place = "{427, 71}";
type = Stem;
},
{
horizontal = 1;
place = "{712, -20}";
target = down;
type = TopGhost;
},
{
place = "{82, 82}";
type = Stem;
},
{
place = "{389, 82}";
type = Stem;
}
);
layerId = "8B4EFE1E-6C47-485C-9646-016EA71CC488";
paths = (
{
closed = 1;
nodes = (
"82 0 LINE",
"164 0 LINE",
"164 352 LINE",
"213 401 OFFCURVE",
"247 427 OFFCURVE",
"297 427 CURVE SMOOTH",
"361 427 OFFCURVE",
"389 388 OFFCURVE",
"389 297 CURVE SMOOTH",
"389 0 LINE",
"471 0 LINE",
"471 308 LINE SMOOTH",
"471 432 OFFCURVE",
"425 498 OFFCURVE",
"323 498 CURVE SMOOTH",
"256 498 OFFCURVE",
"207 462 OFFCURVE",
"161 418 CURVE",
"164 518 LINE",
"164 712 LINE",
"82 712 LINE"
);
}
);
width = 544;
}
);
note = h;
rightKerningGroup = h;
unicode = 0068;
},
{
glyphname = i;
layers = (
{
hints = (
{
horizontal = 1;
place = "{0, 21}";
target = up;
type = BottomGhost;
},
{
horizontal = 1;
place = "{486, -20}";
target = down;
type = TopGhost;
},
{
horizontal = 1;
place = "{586, 106}";
type = Stem;
},
{
place = "{67, 114}";
type = Stem;
},
{
place = "{82, 82}";
type = Stem;
}
);
layerId = "8B4EFE1E-6C47-485C-9646-016EA71CC488";
paths = (
{
closed = 1;
nodes = (
"156 586 OFFCURVE",
"181 608 OFFCURVE",
"181 639 CURVE SMOOTH",
"181 671 OFFCURVE",
"156 692 OFFCURVE",
"124 692 CURVE SMOOTH",
"92 692 OFFCURVE",
"67 671 OFFCURVE",
"67 639 CURVE SMOOTH",
"67 608 OFFCURVE",
"92 586 OFFCURVE",
"124 586 CURVE SMOOTH"
);
},
{
closed = 1;
nodes = (
"82 0 LINE",
"164 0 LINE",
"164 486 LINE",
"82 486 LINE"
);
}
);
width = 246;
}
);
leftKerningGroup = i;
note = i;
unicode = 0069;
},
{
glyphname = j;
layers = (
{
hints = (
{
horizontal = 1;
place = "{-217, 67}";
type = Stem;
},
{
horizontal = 1;
place = "{486, -20}";
target = down;
type = TopGhost;
},
{
horizontal = 1;
place = "{586, 106}";
type = Stem;
},
{
place = "{83, 82}";
type = Stem;
},
{
place = "{68, 113}";
type = Stem;
}
);
layerId = "8B4EFE1E-6C47-485C-9646-016EA71CC488";
paths = (
{
closed = 1;
nodes = (
"83 -55 LINE SMOOTH",
"83 -114 OFFCURVE",
"71 -150 OFFCURVE",
"23 -150 CURVE SMOOTH",
"6 -150 OFFCURVE",
"-11 -146 OFFCURVE",
"-23 -142 CURVE",
"-40 -204 LINE",
"-23 -211 OFFCURVE",
"2 -217 OFFCURVE",
"32 -217 CURVE SMOOTH",
"129 -217 OFFCURVE",
"165 -154 OFFCURVE",
"165 -55 CURVE SMOOTH",
"165 486 LINE",
"83 486 LINE"
);
},
{
closed = 1;
nodes = (
"156 586 OFFCURVE",
"181 608 OFFCURVE",
"181 639 CURVE SMOOTH",
"181 671 OFFCURVE",
"156 692 OFFCURVE",
"125 692 CURVE SMOOTH",
"93 692 OFFCURVE",
"68 671 OFFCURVE",
"68 639 CURVE SMOOTH",
"68 608 OFFCURVE",
"93 586 OFFCURVE",
"125 586 CURVE SMOOTH"
);
}
);
width = 247;
}
);
leftKerningGroup = j;
note = j;
unicode = 006A;
},
{
glyphname = k;
layers = (
{
hints = (
{
horizontal = 1;
place = "{0, 21}";
target = up;
type = BottomGhost;
},
{
horizontal = 1;
place = "{486, -20}";
target = down;
type = TopGhost;
},
{
horizontal = 1;
place = "{712, -20}";
target = down;
type = TopGhost;
},
{
place = "{82, 81}";
type = Stem;
}
);
layerId = "8B4EFE1E-6C47-485C-9646-016EA71CC488";
paths = (
{
closed = 1;
nodes = (
"82 0 LINE",
"163 0 LINE",
"163 128 LINE",
"254 234 LINE",
"396 0 LINE",
"486 0 LINE",
"301 291 LINE",
"464 486 LINE",
"373 486 LINE",
"166 230 LINE",
"163 230 LINE",
"163 712 LINE",
"82 712 LINE"
);
}
);
width = 495;
}
);
note = k;
rightKerningGroup = k;
unicode = 006B;
},
{
glyphname = l;
layers = (
{
hints = (
{
horizontal = 1;
place = "{-4, 21}";
target = up;
type = BottomGhost;
},
{
horizontal = 1;
place = "{712, -20}";
target = down;
type = TopGhost;
},
{
place = "{82, 82}";
type = Stem;
},
{
horizontal = 1;
place = "{-12, 68}";
type = Stem;
}
);
layerId = "8B4EFE1E-6C47-485C-9646-016EA71CC488";
paths = (
{
closed = 1;
nodes = (
"82 98 LINE SMOOTH",
"82 27 OFFCURVE",
"107 -12 OFFCURVE",
"169 -12 CURVE SMOOTH",
"191 -12 OFFCURVE",
"205 -9 OFFCURVE",
"216 -4 CURVE",
"205 58 LINE",
"196 56 OFFCURVE",
"192 56 OFFCURVE",
"187 56 CURVE SMOOTH",
"175 56 OFFCURVE",
"164 66 OFFCURVE",
"164 92 CURVE SMOOTH",
"164 712 LINE",
"82 712 LINE"
);
}
);
width = 255;
}
);
note = l;
unicode = 006C;
},
{
glyphname = m;
layers = (
{
hints = (
{
horizontal = 1;
place = "{0, 21}";
target = up;
type = BottomGhost;
},
{
horizontal = 1;
place = "{427, 71}";
type = Stem;
},
{
place = "{82, 82}";
type = Stem;
},
{
place = "{377, 82}";
type = Stem;
},
{
place = "{671, 82}";
type = Stem;
},
{
horizontal = 1;
place = "{486, -20}";
target = down;
type = TopGhost;
}
);
layerId = "8B4EFE1E-6C47-485C-9646-016EA71CC488";
paths = (
{
closed = 1;
nodes = (
"82 0 LINE",
"164 0 LINE",
"164 352 LINE",
"209 402 OFFCURVE",
"250 427 OFFCURVE",
"286 427 CURVE SMOOTH",
"348 427 OFFCURVE",
"377 388 OFFCURVE",
"377 297 CURVE SMOOTH",
"377 0 LINE",
"459 0 LINE",
"459 352 LINE",
"504 402 OFFCURVE",
"543 427 OFFCURVE",
"581 427 CURVE SMOOTH",
"642 427 OFFCURVE",
"671 388 OFFCURVE",
"671 297 CURVE SMOOTH",
"671 0 LINE",
"753 0 LINE",
"753 308 LINE SMOOTH",
"753 432 OFFCURVE",
"705 498 OFFCURVE",
"605 498 CURVE SMOOTH",
"546 498 OFFCURVE",
"496 460 OFFCURVE",
"445 405 CURVE",
"425 463 OFFCURVE",
"385 498 OFFCURVE",
"311 498 CURVE SMOOTH",
"253 498 OFFCURVE",
"202 462 OFFCURVE",
"160 416 CURVE",
"157 416 LINE",
"150 486 LINE",
"82 486 LINE"
);
}
);
width = 829;
}
);
leftKerningGroup = m;
note = m;
rightKerningGroup = h;
unicode = 006D;
},
{
glyphname = n;
layers = (
{
hints = (
{
horizontal = 1;
place = "{0, 21}";
target = up;
type = BottomGhost;
},
{
horizontal = 1;
place = "{427, 71}";
type = Stem;
},
{
place = "{82, 82}";
type = Stem;
},
{
place = "{389, 82}";
type = Stem;
},
{
horizontal = 1;
place = "{486, -20}";
target = down;
type = TopGhost;
}
);
layerId = "8B4EFE1E-6C47-485C-9646-016EA71CC488";
paths = (
{
closed = 1;
nodes = (
"82 0 LINE",
"164 0 LINE",
"164 352 LINE",
"213 401 OFFCURVE",
"247 427 OFFCURVE",
"297 427 CURVE SMOOTH",
"361 427 OFFCURVE",
"389 388 OFFCURVE",
"389 297 CURVE SMOOTH",
"389 0 LINE",
"471 0 LINE",
"471 308 LINE SMOOTH",
"471 432 OFFCURVE",
"425 498 OFFCURVE",
"323 498 CURVE SMOOTH",
"256 498 OFFCURVE",
"206 462 OFFCURVE",
"160 416 CURVE",
"157 416 LINE",
"150 486 LINE",
"82 486 LINE"
);
}
);
width = 547;
}
);
leftKerningGroup = m;
note = n;
rightKerningGroup = h;
unicode = 006E;
},
{
glyphname = o;
layers = (
{
hints = (
{
horizontal = 1;
place = "{-12, 68}";
type = Stem;
},
{
horizontal = 1;
place = "{430, 68}";
type = Stem;
},
{
place = "{46, 85}";
type = Stem;
},
{
place = "{411, 85}";
type = Stem;
}
);
layerId = "8B4EFE1E-6C47-485C-9646-016EA71CC488";
paths = (
{
closed = 1;
nodes = (
"46 81 OFFCURVE",
"152 -12 OFFCURVE",
"271 -12 CURVE SMOOTH",
"390 -12 OFFCURVE",
"496 81 OFFCURVE",
"496 242 CURVE SMOOTH",
"496 405 OFFCURVE",
"390 498 OFFCURVE",
"271 498 CURVE SMOOTH",
"152 498 OFFCURVE",
"46 405 OFFCURVE",
"46 242 CURVE SMOOTH"
);
},
{
closed = 1;
nodes = (
"131 354 OFFCURVE",
"188 430 OFFCURVE",
"271 430 CURVE SMOOTH",
"355 430 OFFCURVE",
"411 354 OFFCURVE",
"411 242 CURVE SMOOTH",
"411 131 OFFCURVE",
"355 56 OFFCURVE",
"271 56 CURVE SMOOTH",
"188 56 OFFCURVE",
"131 131 OFFCURVE",
"131 242 CURVE SMOOTH"
);
}
);
width = 542;
}
);
leftKerningGroup = c;
note = o;
rightKerningGroup = b;
unicode = 006F;
},
{
glyphname = p;
layers = (
{
hints = (
{
horizontal = 1;
place = "{-205, 21}";
target = up;
type = BottomGhost;
},
{
horizontal = 1;
place = "{-12, 69}";
type = Stem;
},
{
horizontal = 1;
place = "{429, 69}";
type = Stem;
},
{
place = "{82, 82}";
type = Stem;
},
{
place = "{422, 85}";
type = Stem;
},
{
horizontal = 1;
place = "{486, -20}";
target = down;
type = TopGhost;
}
);
layerId = "8B4EFE1E-6C47-485C-9646-016EA71CC488";
paths = (
{
closed = 1;
nodes = (
"162 44 LINE",
"207 9 OFFCURVE",
"252 -12 OFFCURVE",
"297 -12 CURVE SMOOTH",
"408 -12 OFFCURVE",
"507 85 OFFCURVE",
"507 250 CURVE SMOOTH",
"507 401 OFFCURVE",
"440 498 OFFCURVE",
"315 498 CURVE SMOOTH",
"258 498 OFFCURVE",
"204 467 OFFCURVE",
"160 430 CURVE",
"157 430 LINE",
"150 486 LINE",
"82 486 LINE",
"82 -205 LINE",
"164 -205 LINE",
"164 -41 LINE"
);
},
{
closed = 1;
nodes = (
"164 363 LINE",
"212 406 OFFCURVE",
"253 429 OFFCURVE",
"294 429 CURVE SMOOTH",
"386 429 OFFCURVE",
"422 357 OFFCURVE",
"422 250 CURVE SMOOTH",
"422 130 OFFCURVE",
"363 57 OFFCURVE",
"283 57 CURVE SMOOTH",
"251 57 OFFCURVE",
"208 71 OFFCURVE",
"164 108 CURVE"
);
}
);
width = 555;
}
);
leftKerningGroup = m;
note = p;
rightKerningGroup = b;
unicode = 0070;
},
{
glyphname = q;
layers = (
{
hints = (
{
horizontal = 1;
place = "{-205, 21}";
target = up;
type = BottomGhost;
},
{
horizontal = 1;
place = "{-12, 69}";
type = Stem;
},
{
horizontal = 1;
place = "{429, 69}";
type = Stem;
},
{
place = "{47, 85}";
type = Stem;
},
{
place = "{390, 83}";
type = Stem;
},
{
horizontal = 1;
place = "{486, -20}";
target = down;
type = TopGhost;
}
);
layerId = "8B4EFE1E-6C47-485C-9646-016EA71CC488";
paths = (
{
closed = 1;
nodes = (
"47 80 OFFCURVE",
"126 -12 OFFCURVE",
"248 -12 CURVE SMOOTH",
"304 -12 OFFCURVE",
"355 18 OFFCURVE",
"394 54 CURVE",
"390 -32 LINE",
"390 -205 LINE",
"473 -205 LINE",
"473 486 LINE",
"407 486 LINE",
"399 440 LINE",
"397 440 LINE",
"353 478 OFFCURVE",
"314 498 OFFCURVE",
"258 498 CURVE SMOOTH",
"147 498 OFFCURVE",
"47 400 OFFCURVE",
"47 242 CURVE SMOOTH"
);
},
{
closed = 1;
nodes = (
"132 354 OFFCURVE",
"194 429 OFFCURVE",
"272 429 CURVE SMOOTH",
"312 429 OFFCURVE",
"349 415 OFFCURVE",
"390 378 CURVE",
"390 124 LINE",
"350 79 OFFCURVE",
"311 57 OFFCURVE",
"266 57 CURVE SMOOTH",
"181 57 OFFCURVE",
"132 127 OFFCURVE",
"132 243 CURVE SMOOTH"
);
}
);
width = 550;
}
);
leftKerningGroup = c;
note = q;
rightKerningGroup = q;
unicode = 0071;
},
{
glyphname = r;
layers = (
{
hints = (
{
horizontal = 1;
place = "{0, 21}";
target = up;
type = BottomGhost;
},
{
horizontal = 1;
place = "{424, 74}";
type = Stem;
},
{
place = "{82, 82}";
type = Stem;
},
{
horizontal = 1;
place = "{488, -20}";
target = down;
type = TopGhost;
},
{
horizontal = 1;
place = "{486, -20}";
target = down;
type = TopGhost;
}
);
layerId = "8B4EFE1E-6C47-485C-9646-016EA71CC488";
paths = (
{
closed = 1;
nodes = (
"82 0 LINE",
"164 0 LINE",
"164 312 LINE",
"197 394 OFFCURVE",
"246 424 OFFCURVE",
"287 424 CURVE SMOOTH",
"307 424 OFFCURVE",
"318 421 OFFCURVE",
"334 416 CURVE",
"350 488 LINE",
"334 495 OFFCURVE",
"319 498 OFFCURVE",
"298 498 CURVE SMOOTH",
"243 498 OFFCURVE",
"193 459 OFFCURVE",
"160 398 CURVE",
"157 398 LINE",
"150 486 LINE",
"82 486 LINE"
);
}
);
width = 347;
}
);
leftKerningGroup = m;
note = r;
rightKerningGroup = r;
unicode = 0072;
},
{
glyphname = s;
layers = (
{
hints = (
{
horizontal = 1;
place = "{-12, 64}";
type = Stem;
},
{
horizontal = 1;
place = "{434, 64}";
type = Stem;
},
{
place = "{52, 79}";
type = Stem;
},
{
place = "{308, 79}";
type = Stem;
}
);
layerId = "8B4EFE1E-6C47-485C-9646-016EA71CC488";
paths = (
{
closed = 1;
nodes = (
"28 55 LINE",
"74 17 OFFCURVE",
"140 -12 OFFCURVE",
"209 -12 CURVE SMOOTH",
"324 -12 OFFCURVE",
"387 54 OFFCURVE",
"387 133 CURVE SMOOTH",
"387 225 OFFCURVE",
"309 254 OFFCURVE",
"239 280 CURVE SMOOTH",
"184 301 OFFCURVE",
"131 319 OFFCURVE",
"131 364 CURVE SMOOTH",
"131 401 OFFCURVE",
"159 434 OFFCURVE",
"220 434 CURVE SMOOTH",
"263 434 OFFCURVE",
"298 416 OFFCURVE",
"331 391 CURVE",
"370 443 LINE",
"333 473 OFFCURVE",
"280 498 OFFCURVE",
"219 498 CURVE SMOOTH",
"114 498 OFFCURVE",
"52 438 OFFCURVE",
"52 360 CURVE SMOOTH",
"52 278 OFFCURVE",
"128 245 OFFCURVE",
"197 220 CURVE SMOOTH",
"250 200 OFFCURVE",
"308 178 OFFCURVE",
"308 128 CURVE SMOOTH",
"308 86 OFFCURVE",
"276 52 OFFCURVE",
"212 52 CURVE SMOOTH",
"154 52 OFFCURVE",
"111 76 OFFCURVE",
"69 110 CURVE"
);
}
);
width = 419;
}
);
leftKerningGroup = s;
note = s;
rightKerningGroup = s;
unicode = 0073;
},
{
glyphname = t;
layers = (
{
hints = (
{
horizontal = 1;
place = "{-12, 67}";
type = Stem;
},
{
horizontal = 1;
place = "{419, 67}";
type = Stem;
},
{
place = "{96, 83}";
type = Stem;
}
);
layerId = "8B4EFE1E-6C47-485C-9646-016EA71CC488";
paths = (
{
closed = 1;
nodes = (
"96 150 LINE SMOOTH",
"96 54 OFFCURVE",
"131 -12 OFFCURVE",
"235 -12 CURVE SMOOTH",
"265 -12 OFFCURVE",
"298 -3 OFFCURVE",
"325 6 CURVE",
"309 68 LINE",
"293 62 OFFCURVE",
"271 55 OFFCURVE",
"254 55 CURVE SMOOTH",
"198 55 OFFCURVE",
"179 89 OFFCURVE",
"179 149 CURVE SMOOTH",
"179 419 LINE",
"310 419 LINE",
"310 486 LINE",
"179 486 LINE",
"179 622 LINE",
"110 622 LINE",
"100 486 LINE",
"24 481 LINE",
"24 419 LINE",
"96 419 LINE"
);
}
);
width = 338;
}
);
leftKerningGroup = t;
note = t;
rightKerningGroup = t;
unicode = 0074;
},
{
glyphname = u;
layers = (
{
hints = (
{
horizontal = 1;
place = "{-12, 71}";
type = Stem;
},
{
horizontal = 1;
place = "{486, -20}";
target = down;
type = TopGhost;
},
{
place = "{75, 83}";
type = Stem;
},
{
place = "{380, 82}";
type = Stem;
},
{
horizontal = 1;
place = "{0, 21}";
target = up;
type = BottomGhost;
}
);
layerId = "8B4EFE1E-6C47-485C-9646-016EA71CC488";
paths = (
{
closed = 1;
nodes = (
"75 178 LINE SMOOTH",
"75 54 OFFCURVE",
"121 -12 OFFCURVE",
"224 -12 CURVE SMOOTH",
"291 -12 OFFCURVE",
"339 23 OFFCURVE",
"384 76 CURVE",
"387 76 LINE",
"394 0 LINE",
"462 0 LINE",
"462 486 LINE",
"380 486 LINE",
"380 141 LINE",
"334 84 OFFCURVE",
"299 59 OFFCURVE",
"249 59 CURVE SMOOTH",
"185 59 OFFCURVE",
"158 98 OFFCURVE",
"158 189 CURVE SMOOTH",
"158 486 LINE",
"75 486 LINE"
);
}
);
width = 544;
}
);
leftKerningGroup = u;
note = u;
rightKerningGroup = q;
unicode = 0075;
},
{
glyphname = v;
layers = (
{
hints = (
{
horizontal = 1;
place = "{0, 67}";
type = Stem;
},
{
horizontal = 1;
place = "{486, -20}";
target = down;
type = TopGhost;
},
{
place = "{12, 443}";
type = Stem;
}
);
layerId = "8B4EFE1E-6C47-485C-9646-016EA71CC488";
paths = (
{
closed = 1;
nodes = (
"187 0 LINE",
"283 0 LINE",
"455 486 LINE",
"374 486 LINE",
"282 210 LINE SMOOTH",
"268 162 OFFCURVE",
"252 113 OFFCURVE",
"238 67 CURVE",
"234 67 LINE",
"219 113 OFFCURVE",
"203 162 OFFCURVE",
"189 210 CURVE SMOOTH",
"97 486 LINE",
"12 486 LINE"
);
}
);
width = 467;
}
);
leftKerningGroup = v;
note = v;
rightKerningGroup = v;
unicode = 0076;
},
{
glyphname = w;
layers = (
{
hints = (
{
horizontal = 1;
place = "{0, 70}";
type = Stem;
},
{
horizontal = 1;
place = "{401, 85}";
type = Stem;
},
{
place = "{24, 670}";
type = Stem;
}
);
layerId = "8B4EFE1E-6C47-485C-9646-016EA71CC488";
paths = (
{
closed = 1;
nodes = (
"159 0 LINE",
"255 0 LINE",
"323 260 LINE SMOOTH",
"336 306 OFFCURVE",
"346 352 OFFCURVE",
"357 401 CURVE",
"361 401 LINE",
"373 352 OFFCURVE",
"382 307 OFFCURVE",
"394 261 CURVE SMOOTH",
"464 0 LINE",
"564 0 LINE",
"694 486 LINE",
"616 486 LINE",
"545 205 LINE SMOOTH",
"535 159 OFFCURVE",
"526 115 OFFCURVE",
"515 70 CURVE",
"511 70 LINE",
"500 115 OFFCURVE",
"489 159 OFFCURVE",
"477 205 CURVE SMOOTH",
"401 486 LINE",
"321 486 LINE",
"246 205 LINE SMOOTH",
"234 160 OFFCURVE",
"224 115 OFFCURVE",
"213 70 CURVE",
"209 70 LINE",
"200 115 OFFCURVE",
"191 159 OFFCURVE",
"180 205 CURVE SMOOTH",
"108 486 LINE",
"24 486 LINE"
);
}
);
width = 718;
}
);
leftKerningGroup = w;
note = w;
rightKerningGroup = w;
unicode = 0077;
},
{
glyphname = x;
layers = (
{
hints = (
{
horizontal = 1;
place = "{0, 21}";
target = up;
type = BottomGhost;
},
{
horizontal = 1;
place = "{486, -20}";
target = down;
type = TopGhost;
},
{
place = "{14, 418}";
type = Stem;
}
);
layerId = "8B4EFE1E-6C47-485C-9646-016EA71CC488";
paths = (
{
closed = 1;
nodes = (
"14 0 LINE",
"100 0 LINE",
"166 113 LINE SMOOTH",
"182 143 OFFCURVE",
"198 172 OFFCURVE",
"215 200 CURVE",
"219 200 LINE",
"237 172 OFFCURVE",
"255 142 OFFCURVE",
"272 113 CURVE SMOOTH",
"343 0 LINE",
"432 0 LINE",
"274 245 LINE",
"421 486 LINE",
"335 486 LINE",
"276 379 LINE SMOOTH",
"261 353 OFFCURVE",
"246 325 OFFCURVE",
"232 298 CURVE",
"228 298 LINE",
"211 325 OFFCURVE",
"195 353 OFFCURVE",
"180 379 CURVE SMOOTH",
"115 486 LINE",
"26 486 LINE",
"173 254 LINE"
);
}
);
width = 446;
}
);
leftKerningGroup = x;
note = x;
rightKerningGroup = x;
unicode = 0078;
},
{
glyphname = y;
layers = (
{
hints = (
{
horizontal = 1;
place = "{-209, 68}";
type = Stem;
},
{
horizontal = 1;
place = "{486, -20}";
target = down;
type = TopGhost;
},
{
place = "{12, 443}";
type = Stem;
}
);
layerId = "8B4EFE1E-6C47-485C-9646-016EA71CC488";
paths = (
{
closed = 1;
nodes = (
"33 -199 LINE",
"49 -205 OFFCURVE",
"68 -209 OFFCURVE",
"90 -209 CURVE SMOOTH",
"188 -209 OFFCURVE",
"238 -136 OFFCURVE",
"272 -40 CURVE SMOOTH",
"455 486 LINE",
"375 486 LINE",
"288 217 LINE SMOOTH",
"275 174 OFFCURVE",
"261 124 OFFCURVE",
"247 80 CURVE",
"243 80 LINE",
"228 125 OFFCURVE",
"211 175 OFFCURVE",
"196 217 CURVE SMOOTH",
"97 486 LINE",
"12 486 LINE",
"207 -1 LINE",
"196 -37 LINE SMOOTH",
"176 -97 OFFCURVE",
"141 -141 OFFCURVE",
"86 -141 CURVE SMOOTH",
"74 -141 OFFCURVE",
"59 -137 OFFCURVE",
"49 -134 CURVE"
);
}
);
width = 467;
}
);
leftKerningGroup = y;
note = y;
rightKerningGroup = y;
unicode = 0079;
},
{
glyphname = z;
layers = (
{
hints = (
{
horizontal = 1;
place = "{0, 67}";
type = Stem;
},
{
horizontal = 1;
place = "{419, 67}";
type = Stem;
},
{
place = "{31, 368}";
type = Stem;
}
);
layerId = "8B4EFE1E-6C47-485C-9646-016EA71CC488";
paths = (
{
closed = 1;
nodes = (
"31 0 LINE",
"399 0 LINE",
"399 67 LINE",
"135 67 LINE",
"391 442 LINE",
"391 486 LINE",
"59 486 LINE",
"59 419 LINE",
"287 419 LINE",
"31 44 LINE"
);
}
);
width = 425;
}
);
leftKerningGroup = z;
note = z;
rightKerningGroup = z;
unicode = 007A;
},
{
glyphname = Agrave;
layers = (
{
hints = (
{
horizontal = 1;
place = "{0, 21}";
target = up;
type = BottomGhost;
},
{
horizontal = 1;
place = "{200, 67}";
type = Stem;
},
{
horizontal = 1;
place = "{588, 68}";
type = Stem;
},
{
horizontal = 1;
place = "{706, 112}";
type = Stem;
},
{
place = "{0, 538}";
type = Stem;
}
);
layerId = "8B4EFE1E-6C47-485C-9646-016EA71CC488";
paths = (
{
closed = 1;
nodes = (
"319 706 LINE",
"231 818 LINE",
"137 818 LINE",
"250 706 LINE"
);
},
{
closed = 1;
nodes = (
"169 267 LINE",
"201 367 LINE SMOOTH",
"224 440 OFFCURVE",
"245 512 OFFCURVE",
"266 588 CURVE",
"270 588 LINE",
"291 512 OFFCURVE",
"312 440 OFFCURVE",
"335 367 CURVE SMOOTH",
"366 267 LINE"
);
},
{
closed = 1;
nodes = (
"450 0 LINE",
"538 0 LINE",
"316 656 LINE",
"222 656 LINE",
"0 0 LINE",
"85 0 LINE",
"148 200 LINE",
"387 200 LINE"
);
}
);
width = 538;
}
);
leftKerningGroup = A;
note = Agrave;
rightKerningGroup = A;
unicode = 00C0;
},
{
glyphname = Aacute;
layers = (
{
hints = (
{
horizontal = 1;
place = "{0, 21}";
target = up;
type = BottomGhost;
},
{
horizontal = 1;
place = "{200, 67}";
type = Stem;
},
{
horizontal = 1;
place = "{588, 68}";
type = Stem;
},
{
horizontal = 1;
place = "{706, 112}";
type = Stem;
},
{
place = "{0, 538}";
type = Stem;
}
);
layerId = "8B4EFE1E-6C47-485C-9646-016EA71CC488";
paths = (
{
closed = 1;
nodes = (
"399 818 LINE",
"305 818 LINE",
"217 706 LINE",
"286 706 LINE"
);
},
{
closed = 1;
nodes = (
"169 267 LINE",
"201 367 LINE SMOOTH",
"224 440 OFFCURVE",
"245 512 OFFCURVE",
"266 588 CURVE",
"270 588 LINE",
"291 512 OFFCURVE",
"312 440 OFFCURVE",
"335 367 CURVE SMOOTH",
"366 267 LINE"
);
},
{
closed = 1;
nodes = (
"450 0 LINE",
"538 0 LINE",
"316 656 LINE",
"222 656 LINE",
"0 0 LINE",
"85 0 LINE",
"148 200 LINE",
"387 200 LINE"
);
}
);
width = 538;
}
);
leftKerningGroup = A;
note = Aacute;
rightKerningGroup = A;
unicode = 00C1;
},
{
glyphname = Acircumflex;
layers = (
{
hints = (
{
horizontal = 1;
place = "{0, 21}";
target = up;
type = BottomGhost;
},
{
horizontal = 1;
place = "{200, 67}";
type = Stem;
},
{
horizontal = 1;
place = "{588, 68}";
type = Stem;
},
{
horizontal = 1;
place = "{706, 112}";
type = Stem;
},
{
place = "{0, 538}";
type = Stem;
}
);
layerId = "8B4EFE1E-6C47-485C-9646-016EA71CC488";
paths = (
{
closed = 1;
nodes = (
"266 774 LINE",
"270 774 LINE",
"337 706 LINE",
"404 706 LINE",
"308 818 LINE",
"228 818 LINE",
"132 706 LINE",
"199 706 LINE"
);
},
{
closed = 1;
nodes = (
"169 267 LINE",
"201 367 LINE SMOOTH",
"224 440 OFFCURVE",
"245 512 OFFCURVE",
"266 588 CURVE",
"270 588 LINE",
"291 512 OFFCURVE",
"312 440 OFFCURVE",
"335 367 CURVE SMOOTH",
"366 267 LINE"
);
},
{
closed = 1;
nodes = (
"450 0 LINE",
"538 0 LINE",
"316 656 LINE",
"222 656 LINE",
"0 0 LINE",
"85 0 LINE",
"148 200 LINE",
"387 200 LINE"
);
}
);
width = 538;
}
);
leftKerningGroup = A;
note = Acircumflex;
rightKerningGroup = A;
unicode = 00C2;
},
{
glyphname = Atilde;
layers = (
{
hints = (
{
horizontal = 1;
place = "{0, 21}";
target = up;
type = BottomGhost;
},
{
horizontal = 1;
place = "{200, 67}";
type = Stem;
},
{
horizontal = 1;
place = "{588, 68}";
type = Stem;
},
{
horizontal = 1;
place = "{711, 56}";
type = Stem;
},
{
place = "{123, 46}";
type = Stem;
},
{
place = "{367, 45}";
type = Stem;
},
{
horizontal = 1;
place = "{763, 56}";
type = Stem;
}
);
layerId = "8B4EFE1E-6C47-485C-9646-016EA71CC488";
paths = (
{
closed = 1;
nodes = (
"367 819 LINE",
"361 786 OFFCURVE",
"346 767 OFFCURVE",
"326 767 CURVE SMOOTH",
"289 767 OFFCURVE",
"260 819 OFFCURVE",
"208 819 CURVE SMOOTH",
"160 819 OFFCURVE",
"129 773 OFFCURVE",
"123 711 CURVE",
"169 711 LINE",
"174 745 OFFCURVE",
"189 763 OFFCURVE",
"209 763 CURVE SMOOTH",
"246 763 OFFCURVE",
"275 711 OFFCURVE",
"328 711 CURVE SMOOTH",
"376 711 OFFCURVE",
"407 758 OFFCURVE",
"412 819 CURVE"
);
},
{
closed = 1;
nodes = (
"169 267 LINE",
"201 367 LINE SMOOTH",
"224 440 OFFCURVE",
"245 512 OFFCURVE",
"266 588 CURVE",
"270 588 LINE",
"291 512 OFFCURVE",
"312 440 OFFCURVE",
"335 367 CURVE SMOOTH",
"366 267 LINE"
);
},
{
closed = 1;
nodes = (
"450 0 LINE",
"538 0 LINE",
"316 656 LINE",
"222 656 LINE",
"0 0 LINE",
"85 0 LINE",
"148 200 LINE",
"387 200 LINE"
);
}
);
width = 538;
}
);
leftKerningGroup = A;
note = Atilde;
rightKerningGroup = A;
unicode = 00C3;
},
{
glyphname = Adieresis;
layers = (
{
hints = (
{
horizontal = 1;
place = "{0, 21}";
target = up;
type = BottomGhost;
},
{
horizontal = 1;
place = "{200, 67}";
type = Stem;
},
{
horizontal = 1;
place = "{588, 68}";
type = Stem;
},
{
horizontal = 1;
place = "{715, 98}";
type = Stem;
},
{
place = "{133, 97}";
type = Stem;
},
{
place = "{305, 98}";
type = Stem;
}
);
layerId = "8B4EFE1E-6C47-485C-9646-016EA71CC488";
paths = (
{
closed = 1;
nodes = (
"382 715 OFFCURVE",
"403 736 OFFCURVE",
"403 764 CURVE SMOOTH",
"403 793 OFFCURVE",
"382 813 OFFCURVE",
"354 813 CURVE SMOOTH",
"326 813 OFFCURVE",
"305 793 OFFCURVE",
"305 764 CURVE SMOOTH",
"305 736 OFFCURVE",
"326 715 OFFCURVE",
"354 715 CURVE SMOOTH"
);
},
{
closed = 1;
nodes = (
"210 715 OFFCURVE",
"230 736 OFFCURVE",
"230 764 CURVE SMOOTH",
"230 793 OFFCURVE",
"210 813 OFFCURVE",
"181 813 CURVE SMOOTH",
"153 813 OFFCURVE",
"133 793 OFFCURVE",
"133 764 CURVE SMOOTH",
"133 736 OFFCURVE",
"153 715 OFFCURVE",
"181 715 CURVE SMOOTH"
);
},
{
closed = 1;
nodes = (
"169 267 LINE",
"201 367 LINE SMOOTH",
"224 440 OFFCURVE",
"245 512 OFFCURVE",
"266 588 CURVE",
"270 588 LINE",
"291 512 OFFCURVE",
"312 440 OFFCURVE",
"335 367 CURVE SMOOTH",
"366 267 LINE"
);
},
{
closed = 1;
nodes = (
"450 0 LINE",
"538 0 LINE",
"316 656 LINE",
"222 656 LINE",
"0 0 LINE",
"85 0 LINE",
"148 200 LINE",
"387 200 LINE"
);
}
);
width = 538;
}
);
leftKerningGroup = A;
note = Adieresis;
rightKerningGroup = A;
unicode = 00C4;
},
{
glyphname = Amacron;
layers = (
{
hints = (
{
horizontal = 1;
place = "{0, 21}";
target = up;
type = BottomGhost;
},
{
horizontal = 1;
place = "{200, 67}";
type = Stem;
},
{
horizontal = 1;
place = "{588, 68}";
type = Stem;
},
{
horizontal = 1;
place = "{729, 57}";
type = Stem;
},
{
place = "{144, 248}";
type = Stem;
}
);
layerId = "8B4EFE1E-6C47-485C-9646-016EA71CC488";
paths = (
{
closed = 1;
nodes = (
"392 786 LINE",
"144 786 LINE",
"144 729 LINE",
"392 729 LINE"
);
},
{
closed = 1;
nodes = (
"169 267 LINE",
"201 367 LINE SMOOTH",
"224 440 OFFCURVE",
"245 512 OFFCURVE",
"266 588 CURVE",
"270 588 LINE",
"291 512 OFFCURVE",
"312 440 OFFCURVE",
"335 367 CURVE SMOOTH",
"366 267 LINE"
);
},
{
closed = 1;
nodes = (
"450 0 LINE",
"538 0 LINE",
"316 656 LINE",
"222 656 LINE",
"0 0 LINE",
"85 0 LINE",
"148 200 LINE",
"387 200 LINE"
);
}
);
width = 538;
}
);
leftKerningGroup = A;
note = Amacron;
rightKerningGroup = A;
unicode = 0100;
},
{
glyphname = Abreve;
layers = (
{
hints = (
{
horizontal = 1;
place = "{0, 21}";
target = up;
type = BottomGhost;
},
{
horizontal = 1;
place = "{200, 67}";
type = Stem;
},
{
horizontal = 1;
place = "{588, 68}";
type = Stem;
},
{
horizontal = 1;
place = "{708, 47}";
type = Stem;
},
{
place = "{0, 538}";
type = Stem;
}
);
layerId = "8B4EFE1E-6C47-485C-9646-016EA71CC488";
paths = (
{
closed = 1;
nodes = (
"341 818 LINE",
"335 786 OFFCURVE",
"313 755 OFFCURVE",
"268 755 CURVE SMOOTH",
"223 755 OFFCURVE",
"201 786 OFFCURVE",
"195 818 CURVE",
"145 818 LINE",
"151 762 OFFCURVE",
"188 708 OFFCURVE",
"268 708 CURVE SMOOTH",
"348 708 OFFCURVE",
"384 762 OFFCURVE",
"391 818 CURVE"
);
},
{
closed = 1;
nodes = (
"169 267 LINE",
"201 367 LINE SMOOTH",
"224 440 OFFCURVE",
"245 512 OFFCURVE",
"266 588 CURVE",
"270 588 LINE",
"291 512 OFFCURVE",
"312 440 OFFCURVE",
"335 367 CURVE SMOOTH",
"366 267 LINE"
);
},
{
closed = 1;
nodes = (
"450 0 LINE",
"538 0 LINE",
"316 656 LINE",
"222 656 LINE",
"0 0 LINE",
"85 0 LINE",
"148 200 LINE",
"387 200 LINE"
);
}
);
width = 538;
}
);
leftKerningGroup = A;
note = Abreve;
rightKerningGroup = A;
unicode = 0102;
},
{
glyphname = Aring;
layers = (
{
hints = (
{
horizontal = 1;
place = "{0, 21}";
target = up;
type = BottomGhost;
},
{
horizontal = 1;
place = "{200, 67}";
type = Stem;
},
{
horizontal = 1;
place = "{588, 68}";
type = Stem;
},
{
horizontal = 1;
place = "{699, 36}";
type = Stem;
},
{
horizontal = 1;
place = "{838, 37}";
type = Stem;
},
{
place = "{174, 46}";
type = Stem;
},
{
place = "{315, 46}";
type = Stem;
}
);
layerId = "8B4EFE1E-6C47-485C-9646-016EA71CC488";
paths = (
{
closed = 1;
nodes = (
"293 838 OFFCURVE",
"315 818 OFFCURVE",
"315 787 CURVE SMOOTH",
"315 754 OFFCURVE",
"293 735 OFFCURVE",
"268 735 CURVE SMOOTH",
"241 735 OFFCURVE",
"220 754 OFFCURVE",
"220 787 CURVE SMOOTH",
"220 818 OFFCURVE",
"241 838 OFFCURVE",
"268 838 CURVE SMOOTH"
);
},
{
closed = 1;
nodes = (
"321 699 OFFCURVE",
"361 733 OFFCURVE",
"361 787 CURVE SMOOTH",
"361 840 OFFCURVE",
"321 875 OFFCURVE",
"268 875 CURVE SMOOTH",
"213 875 OFFCURVE",
"174 840 OFFCURVE",
"174 787 CURVE SMOOTH",
"174 733 OFFCURVE",
"213 699 OFFCURVE",
"268 699 CURVE SMOOTH"
);
},
{
closed = 1;
nodes = (
"169 267 LINE",
"201 367 LINE SMOOTH",
"224 440 OFFCURVE",
"245 512 OFFCURVE",
"266 588 CURVE",
"270 588 LINE",
"291 512 OFFCURVE",
"312 440 OFFCURVE",
"335 367 CURVE SMOOTH",
"366 267 LINE"
);
},
{
closed = 1;
nodes = (
"450 0 LINE",
"538 0 LINE",
"316 656 LINE",
"222 656 LINE",
"0 0 LINE",
"85 0 LINE",
"148 200 LINE",
"387 200 LINE"
);
}
);
width = 538;
}
);
leftKerningGroup = A;
note = Aring;
rightKerningGroup = A;
unicode = 00C5;
},
{
glyphname = uni01CD;
layers = (
{
hints = (
{
horizontal = 1;
place = "{0, 21}";
target = up;
type = BottomGhost;
},
{
horizontal = 1;
place = "{200, 67}";
type = Stem;
},
{
horizontal = 1;
place = "{588, 68}";
type = Stem;
},
{
horizontal = 1;
place = "{706, 112}";
type = Stem;
},
{
place = "{0, 538}";
type = Stem;
}
);
layerId = "8B4EFE1E-6C47-485C-9646-016EA71CC488";
paths = (
{
closed = 1;
nodes = (
"308 706 LINE",
"404 818 LINE",
"337 818 LINE",
"270 750 LINE",
"266 750 LINE",
"199 818 LINE",
"132 818 LINE",
"228 706 LINE"
);
},
{
closed = 1;
nodes = (
"169 267 LINE",
"201 367 LINE SMOOTH",
"224 440 OFFCURVE",
"245 512 OFFCURVE",
"266 588 CURVE",
"270 588 LINE",
"291 512 OFFCURVE",
"312 440 OFFCURVE",
"335 367 CURVE SMOOTH",
"366 267 LINE"
);
},
{
closed = 1;
nodes = (
"450 0 LINE",
"538 0 LINE",
"316 656 LINE",
"222 656 LINE",
"0 0 LINE",
"85 0 LINE",
"148 200 LINE",
"387 200 LINE"
);
}
);
width = 538;
}
);
leftKerningGroup = A;
note = uni01CD;
rightKerningGroup = A;
unicode = 01CD;
},
{
glyphname = uni1EA0;
layers = (
{
hints = (
{
horizontal = 1;
place = "{-206, 107}";
type = Stem;
},
{
horizontal = 1;
place = "{0, 21}";
target = up;
type = BottomGhost;
},
{
horizontal = 1;
place = "{200, 67}";
type = Stem;
},
{
horizontal = 1;
place = "{588, 68}";
type = Stem;
},
{
place = "{214, 108}";
type = Stem;
}
);
layerId = "8B4EFE1E-6C47-485C-9646-016EA71CC488";
paths = (
{
closed = 1;
nodes = (
"237 -99 OFFCURVE",
"214 -121 OFFCURVE",
"214 -152 CURVE SMOOTH",
"214 -184 OFFCURVE",
"237 -206 OFFCURVE",
"268 -206 CURVE SMOOTH",
"299 -206 OFFCURVE",
"322 -184 OFFCURVE",
"322 -152 CURVE SMOOTH",
"322 -121 OFFCURVE",
"299 -99 OFFCURVE",
"268 -99 CURVE SMOOTH"
);
},
{
closed = 1;
nodes = (
"169 267 LINE",
"201 367 LINE SMOOTH",
"224 440 OFFCURVE",
"245 512 OFFCURVE",
"266 588 CURVE",
"270 588 LINE",
"291 512 OFFCURVE",
"312 440 OFFCURVE",
"335 367 CURVE SMOOTH",
"366 267 LINE"
);
},
{
closed = 1;
nodes = (
"538 0 LINE",
"316 656 LINE",
"222 656 LINE",
"0 0 LINE",
"85 0 LINE",
"148 200 LINE",
"387 200 LINE",
"450 0 LINE"
);
}
);
width = 538;
}
);
leftKerningGroup = A;
note = uni1EA0;
rightKerningGroup = A;
unicode = 1EA0;
},
{
glyphname = uni1EA2;
layers = (
{
hints = (
{
horizontal = 1;
place = "{0, 21}";
target = up;
type = BottomGhost;
},
{
horizontal = 1;
place = "{200, 67}";
type = Stem;
},
{
horizontal = 1;
place = "{588, 68}";
type = Stem;
},
{
horizontal = 1;
place = "{824, 48}";
type = Stem;
},
{
place = "{287, 64}";
type = Stem;
}
);
layerId = "8B4EFE1E-6C47-485C-9646-016EA71CC488";
paths = (
{
closed = 1;
nodes = (
"240 698 LINE",
"298 708 OFFCURVE",
"351 733 OFFCURVE",
"351 791 CURVE SMOOTH",
"351 842 OFFCURVE",
"300 869 OFFCURVE",
"212 872 CURVE",
"204 824 LINE",
"259 822 OFFCURVE",
"287 808 OFFCURVE",
"287 782 CURVE SMOOTH",
"287 757 OFFCURVE",
"263 745 OFFCURVE",
"230 736 CURVE"
);
},
{
closed = 1;
nodes = (
"169 267 LINE",
"201 367 LINE SMOOTH",
"224 440 OFFCURVE",
"245 512 OFFCURVE",
"266 588 CURVE",
"270 588 LINE",
"291 512 OFFCURVE",
"312 440 OFFCURVE",
"335 367 CURVE SMOOTH",
"366 267 LINE"
);
},
{
closed = 1;
nodes = (
"450 0 LINE",
"538 0 LINE",
"316 656 LINE",
"222 656 LINE",
"0 0 LINE",
"85 0 LINE",
"148 200 LINE",
"387 200 LINE"
);
}
);
width = 538;
}
);
leftKerningGroup = A;
note = uni1EA2;
rightKerningGroup = A;
unicode = 1EA2;
},
{
glyphname = uni1EA4;
layers = (
{
hints = (
{
horizontal = 1;
place = "{0, 21}";
target = up;
type = BottomGhost;
},
{
horizontal = 1;
place = "{200, 67}";
type = Stem;
},
{
horizontal = 1;
place = "{588, 68}";
type = Stem;
},
{
horizontal = 1;
place = "{770, 111}";
type = Stem;
},
{
place = "{0, 538}";
type = Stem;
},
{
horizontal = 1;
place = "{706, 106}";
type = Stem;
}
);
layerId = "8B4EFE1E-6C47-485C-9646-016EA71CC488";
paths = (
{
closed = 1;
nodes = (
"501 881 LINE",
"430 881 LINE",
"359 770 LINE",
"411 770 LINE"
);
},
{
closed = 1;
nodes = (
"266 768 LINE",
"270 768 LINE",
"333 706 LINE",
"396 706 LINE",
"304 812 LINE",
"232 812 LINE",
"139 706 LINE",
"203 706 LINE"
);
},
{
closed = 1;
nodes = (
"169 267 LINE",
"201 367 LINE SMOOTH",
"224 440 OFFCURVE",
"245 512 OFFCURVE",
"266 588 CURVE",
"270 588 LINE",
"291 512 OFFCURVE",
"312 440 OFFCURVE",
"335 367 CURVE SMOOTH",
"366 267 LINE"
);
},
{
closed = 1;
nodes = (
"450 0 LINE",
"538 0 LINE",
"316 656 LINE",
"222 656 LINE",
"0 0 LINE",
"85 0 LINE",
"148 200 LINE",
"387 200 LINE"
);
}
);
width = 538;
}
);
leftKerningGroup = A;
note = uni1EA4;
rightKerningGroup = A;
unicode = 1EA4;
},
{
glyphname = uni1EA6;
layers = (
{
hints = (
{
horizontal = 1;
place = "{0, 21}";
target = up;
type = BottomGhost;
},
{
horizontal = 1;
place = "{200, 67}";
type = Stem;
},
{
horizontal = 1;
place = "{588, 68}";
type = Stem;
},
{
horizontal = 1;
place = "{770, 111}";
type = Stem;
},
{
place = "{0, 538}";
type = Stem;
},
{
horizontal = 1;
place = "{706, 106}";
type = Stem;
}
);
layerId = "8B4EFE1E-6C47-485C-9646-016EA71CC488";
paths = (
{
closed = 1;
nodes = (
"452 770 LINE",
"381 881 LINE",
"309 881 LINE",
"400 770 LINE"
);
},
{
closed = 1;
nodes = (
"266 768 LINE",
"270 768 LINE",
"333 706 LINE",
"396 706 LINE",
"304 812 LINE",
"232 812 LINE",
"139 706 LINE",
"203 706 LINE"
);
},
{
closed = 1;
nodes = (
"169 267 LINE",
"201 367 LINE SMOOTH",
"224 440 OFFCURVE",
"245 512 OFFCURVE",
"266 588 CURVE",
"270 588 LINE",
"291 512 OFFCURVE",
"312 440 OFFCURVE",
"335 367 CURVE SMOOTH",
"366 267 LINE"
);
},
{
closed = 1;
nodes = (
"450 0 LINE",
"538 0 LINE",
"316 656 LINE",
"222 656 LINE",
"0 0 LINE",
"85 0 LINE",
"148 200 LINE",
"387 200 LINE"
);
}
);
width = 538;
}
);
leftKerningGroup = A;
note = uni1EA6;
rightKerningGroup = A;
unicode = 1EA6;
},
{
glyphname = uni1EA8;
layers = (
{
hints = (
{
horizontal = 1;
place = "{0, 21}";
target = up;
type = BottomGhost;
},
{
horizontal = 1;
place = "{200, 67}";
type = Stem;
},
{
horizontal = 1;
place = "{588, 68}";
type = Stem;
},
{
horizontal = 1;
place = "{706, 106}";
type = Stem;
},
{
horizontal = 1;
place = "{864, 42}";
type = Stem;
},
{
place = "{417, 58}";
type = Stem;
}
);
layerId = "8B4EFE1E-6C47-485C-9646-016EA71CC488";
paths = (
{
closed = 1;
nodes = (
"383 754 LINE",
"430 762 OFFCURVE",
"475 782 OFFCURVE",
"475 833 CURVE SMOOTH",
"475 879 OFFCURVE",
"432 903 OFFCURVE",
"355 906 CURVE",
"346 864 LINE",
"395 861 OFFCURVE",
"417 851 OFFCURVE",
"417 825 CURVE SMOOTH",
"417 804 OFFCURVE",
"397 795 OFFCURVE",
"372 789 CURVE"
);
},
{
closed = 1;
nodes = (
"266 768 LINE",
"270 768 LINE",
"333 706 LINE",
"396 706 LINE",
"304 812 LINE",
"232 812 LINE",
"139 706 LINE",
"203 706 LINE"
);
},
{
closed = 1;
nodes = (
"169 267 LINE",
"201 367 LINE SMOOTH",
"224 440 OFFCURVE",
"245 512 OFFCURVE",
"266 588 CURVE",
"270 588 LINE",
"291 512 OFFCURVE",
"312 440 OFFCURVE",
"335 367 CURVE SMOOTH",
"366 267 LINE"
);
},
{
closed = 1;
nodes = (
"450 0 LINE",
"538 0 LINE",
"316 656 LINE",
"222 656 LINE",
"0 0 LINE",
"85 0 LINE",
"148 200 LINE",
"387 200 LINE"
);
}
);
width = 538;
}
);
leftKerningGroup = A;
note = uni1EA8;
rightKerningGroup = A;
unicode = 1EA8;
},
{
glyphname = uni1EAA;
layers = (
{
hints = (
{
horizontal = 1;
place = "{0, 21}";
target = up;
type = BottomGhost;
},
{
horizontal = 1;
place = "{200, 67}";
type = Stem;
},
{
horizontal = 1;
place = "{588, 68}";
type = Stem;
},
{
horizontal = 1;
place = "{706, 106}";
type = Stem;
},
{
horizontal = 1;
place = "{891, 48}";
type = Stem;
},
{
place = "{136, 42}";
type = Stem;
},
{
place = "{357, 43}";
type = Stem;
},
{
horizontal = 1;
place = "{846, 48}";
type = Stem;
}
);
layerId = "8B4EFE1E-6C47-485C-9646-016EA71CC488";
paths = (
{
closed = 1;
nodes = (
"357 939 LINE",
"353 911 OFFCURVE",
"338 894 OFFCURVE",
"318 894 CURVE SMOOTH",
"286 894 OFFCURVE",
"263 939 OFFCURVE",
"215 939 CURVE SMOOTH",
"169 939 OFFCURVE",
"141 899 OFFCURVE",
"136 846 CURVE",
"178 846 LINE",
"183 875 OFFCURVE",
"198 891 OFFCURVE",
"218 891 CURVE SMOOTH",
"250 891 OFFCURVE",
"273 846 OFFCURVE",
"321 846 CURVE SMOOTH",
"367 846 OFFCURVE",
"395 887 OFFCURVE",
"400 939 CURVE"
);
},
{
closed = 1;
nodes = (
"232 812 LINE",
"139 706 LINE",
"203 706 LINE",
"266 768 LINE",
"270 768 LINE",
"333 706 LINE",
"396 706 LINE",
"304 812 LINE"
);
},
{
closed = 1;
nodes = (
"169 267 LINE",
"201 367 LINE SMOOTH",
"224 440 OFFCURVE",
"245 512 OFFCURVE",
"266 588 CURVE",
"270 588 LINE",
"291 512 OFFCURVE",
"312 440 OFFCURVE",
"335 367 CURVE SMOOTH",
"366 267 LINE"
);
},
{
closed = 1;
nodes = (
"450 0 LINE",
"538 0 LINE",
"316 656 LINE",
"222 656 LINE",
"0 0 LINE",
"85 0 LINE",
"148 200 LINE",
"387 200 LINE"
);
}
);
width = 538;
}
);
leftKerningGroup = A;
note = uni1EAA;
rightKerningGroup = A;
unicode = 1EAA;
},
{
glyphname = uni1EAC;
layers = (
{
hints = (
{
horizontal = 1;
place = "{-206, 107}";
type = Stem;
},
{
horizontal = 1;
place = "{0, 21}";
target = up;
type = BottomGhost;
},
{
horizontal = 1;
place = "{200, 67}";
type = Stem;
},
{
horizontal = 1;
place = "{588, 68}";
type = Stem;
},
{
horizontal = 1;
place = "{706, 112}";
type = Stem;
},
{
place = "{214, 108}";
type = Stem;
}
);
layerId = "8B4EFE1E-6C47-485C-9646-016EA71CC488";
paths = (
{
closed = 1;
nodes = (
"266 774 LINE",
"270 774 LINE",
"337 706 LINE",
"404 706 LINE",
"308 818 LINE",
"228 818 LINE",
"132 706 LINE",
"199 706 LINE"
);
},
{
closed = 1;
nodes = (
"237 -99 OFFCURVE",
"214 -121 OFFCURVE",
"214 -152 CURVE SMOOTH",
"214 -184 OFFCURVE",
"237 -206 OFFCURVE",
"268 -206 CURVE SMOOTH",
"299 -206 OFFCURVE",
"322 -184 OFFCURVE",
"322 -152 CURVE SMOOTH",
"322 -121 OFFCURVE",
"299 -99 OFFCURVE",
"268 -99 CURVE SMOOTH"
);
},
{
closed = 1;
nodes = (
"169 267 LINE",
"201 367 LINE SMOOTH",
"224 440 OFFCURVE",
"245 512 OFFCURVE",
"266 588 CURVE",
"270 588 LINE",
"291 512 OFFCURVE",
"312 440 OFFCURVE",
"335 367 CURVE SMOOTH",
"366 267 LINE"
);
},
{
closed = 1;
nodes = (
"538 0 LINE",
"316 656 LINE",
"222 656 LINE",
"0 0 LINE",
"85 0 LINE",
"148 200 LINE",
"387 200 LINE",
"450 0 LINE"
);
}
);
width = 538;
}
);
leftKerningGroup = A;
note = uni1EAC;
rightKerningGroup = A;
unicode = 1EAC;
},
{
glyphname = uni1EAE;
layers = (
{
hints = (
{
horizontal = 1;
place = "{0, 21}";
target = up;
type = BottomGhost;
},
{
horizontal = 1;
place = "{200, 67}";
type = Stem;
},
{
horizontal = 1;
place = "{588, 68}";
type = Stem;
},
{
horizontal = 1;
place = "{708, 43}";
type = Stem;
},
{
horizontal = 1;
place = "{802, 13}";
type = Stem;
},
{
place = "{0, 538}";
type = Stem;
}
);
layerId = "8B4EFE1E-6C47-485C-9646-016EA71CC488";
paths = (
{
closed = 1;
nodes = (
"375 907 LINE",
"303 907 LINE",
"229 802 LINE",
"278 802 LINE"
);
},
{
closed = 1;
nodes = (
"345 815 LINE",
"337 781 OFFCURVE",
"316 751 OFFCURVE",
"268 751 CURVE SMOOTH",
"219 751 OFFCURVE",
"198 781 OFFCURVE",
"190 815 CURVE",
"146 815 LINE",
"153 760 OFFCURVE",
"190 708 OFFCURVE",
"268 708 CURVE SMOOTH",
"345 708 OFFCURVE",
"383 760 OFFCURVE",
"390 815 CURVE"
);
},
{
closed = 1;
nodes = (
"169 267 LINE",
"201 367 LINE SMOOTH",
"224 440 OFFCURVE",
"245 512 OFFCURVE",
"266 588 CURVE",
"270 588 LINE",
"291 512 OFFCURVE",
"312 440 OFFCURVE",
"335 367 CURVE SMOOTH",
"366 267 LINE"
);
},
{
closed = 1;
nodes = (
"450 0 LINE",
"538 0 LINE",
"316 656 LINE",
"222 656 LINE",
"0 0 LINE",
"85 0 LINE",
"148 200 LINE",
"387 200 LINE"
);
}
);
width = 538;
}
);
leftKerningGroup = A;
note = uni1EAE;
rightKerningGroup = A;
unicode = 1EAE;
},
{
glyphname = uni1EB0;
layers = (
{
hints = (
{
horizontal = 1;
place = "{0, 21}";
target = up;
type = BottomGhost;
},
{
horizontal = 1;
place = "{200, 67}";
type = Stem;
},
{
horizontal = 1;
place = "{588, 68}";
type = Stem;
},
{
horizontal = 1;
place = "{708, 43}";
type = Stem;
},
{
horizontal = 1;
place = "{802, 13}";
type = Stem;
},
{
place = "{0, 538}";
type = Stem;
}
);
layerId = "8B4EFE1E-6C47-485C-9646-016EA71CC488";
paths = (
{
closed = 1;
nodes = (
"307 802 LINE",
"233 907 LINE",
"161 907 LINE",
"258 802 LINE"
);
},
{
closed = 1;
nodes = (
"345 815 LINE",
"337 781 OFFCURVE",
"316 751 OFFCURVE",
"268 751 CURVE SMOOTH",
"219 751 OFFCURVE",
"198 781 OFFCURVE",
"190 815 CURVE",
"146 815 LINE",
"153 760 OFFCURVE",
"190 708 OFFCURVE",
"268 708 CURVE SMOOTH",
"345 708 OFFCURVE",
"383 760 OFFCURVE",
"390 815 CURVE"
);
},
{
closed = 1;
nodes = (
"169 267 LINE",
"201 367 LINE SMOOTH",
"224 440 OFFCURVE",
"245 512 OFFCURVE",
"266 588 CURVE",
"270 588 LINE",
"291 512 OFFCURVE",
"312 440 OFFCURVE",
"335 367 CURVE SMOOTH",
"366 267 LINE"
);
},
{
closed = 1;
nodes = (
"450 0 LINE",
"538 0 LINE",
"316 656 LINE",
"222 656 LINE",
"0 0 LINE",
"85 0 LINE",
"148 200 LINE",
"387 200 LINE"
);
}
);
width = 538;
}
);
leftKerningGroup = A;
note = uni1EB0;
rightKerningGroup = A;
unicode = 1EB0;
},
{
glyphname = uni1EB2;
layers = (
{
hints = (
{
horizontal = 1;
place = "{0, 21}";
target = up;
type = BottomGhost;
},
{
horizontal = 1;
place = "{200, 67}";
type = Stem;
},
{
horizontal = 1;
place = "{588, 68}";
type = Stem;
},
{
horizontal = 1;
place = "{708, 43}";
type = Stem;
},
{
horizontal = 1;
place = "{910, 42}";
type = Stem;
},
{
place = "{279, 58}";
type = Stem;
}
);
layerId = "8B4EFE1E-6C47-485C-9646-016EA71CC488";
paths = (
{
closed = 1;
nodes = (
"245 800 LINE",
"293 808 OFFCURVE",
"337 828 OFFCURVE",
"337 879 CURVE SMOOTH",
"337 926 OFFCURVE",
"295 949 OFFCURVE",
"217 952 CURVE",
"208 910 LINE",
"258 907 OFFCURVE",
"279 897 OFFCURVE",
"279 871 CURVE SMOOTH",
"279 850 OFFCURVE",
"259 841 OFFCURVE",
"234 835 CURVE"
);
},
{
closed = 1;
nodes = (
"345 815 LINE",
"337 781 OFFCURVE",
"316 751 OFFCURVE",
"268 751 CURVE SMOOTH",
"219 751 OFFCURVE",
"198 781 OFFCURVE",
"190 815 CURVE",
"146 815 LINE",
"153 760 OFFCURVE",
"190 708 OFFCURVE",
"268 708 CURVE SMOOTH",
"345 708 OFFCURVE",
"383 760 OFFCURVE",
"390 815 CURVE"
);
},
{
closed = 1;
nodes = (
"169 267 LINE",
"201 367 LINE SMOOTH",
"224 440 OFFCURVE",
"245 512 OFFCURVE",
"266 588 CURVE",
"270 588 LINE",
"291 512 OFFCURVE",
"312 440 OFFCURVE",
"335 367 CURVE SMOOTH",
"366 267 LINE"
);
},
{
closed = 1;
nodes = (
"450 0 LINE",
"538 0 LINE",
"316 656 LINE",
"222 656 LINE",
"0 0 LINE",
"85 0 LINE",
"148 200 LINE",
"387 200 LINE"
);
}
);
width = 538;
}
);
leftKerningGroup = A;
note = uni1EB2;
rightKerningGroup = A;
unicode = 1EB2;
},
{
glyphname = uni1EB4;
layers = (
{
hints = (
{
horizontal = 1;
place = "{0, 21}";
target = up;
type = BottomGhost;
},
{
horizontal = 1;
place = "{200, 67}";
type = Stem;
},
{
horizontal = 1;
place = "{588, 68}";
type = Stem;
},
{
horizontal = 1;
place = "{708, 43}";
type = Stem;
},
{
horizontal = 1;
place = "{891, 48}";
type = Stem;
},
{
place = "{136, 42}";
type = Stem;
},
{
place = "{357, 43}";
type = Stem;
},
{
horizontal = 1;
place = "{846, 48}";
type = Stem;
}
);
layerId = "8B4EFE1E-6C47-485C-9646-016EA71CC488";
paths = (
{
closed = 1;
nodes = (
"357 939 LINE",
"353 911 OFFCURVE",
"338 894 OFFCURVE",
"318 894 CURVE SMOOTH",
"286 894 OFFCURVE",
"263 939 OFFCURVE",
"215 939 CURVE SMOOTH",
"169 939 OFFCURVE",
"141 899 OFFCURVE",
"136 846 CURVE",
"178 846 LINE",
"183 875 OFFCURVE",
"198 891 OFFCURVE",
"218 891 CURVE SMOOTH",
"250 891 OFFCURVE",
"273 846 OFFCURVE",
"321 846 CURVE SMOOTH",
"367 846 OFFCURVE",
"395 887 OFFCURVE",
"400 939 CURVE"
);
},
{
closed = 1;
nodes = (
"146 815 LINE",
"153 760 OFFCURVE",
"190 708 OFFCURVE",
"268 708 CURVE SMOOTH",
"345 708 OFFCURVE",
"383 760 OFFCURVE",
"390 815 CURVE",
"345 815 LINE",
"337 781 OFFCURVE",
"316 751 OFFCURVE",
"268 751 CURVE SMOOTH",
"219 751 OFFCURVE",
"198 781 OFFCURVE",
"190 815 CURVE"
);
},
{
closed = 1;
nodes = (
"169 267 LINE",
"201 367 LINE SMOOTH",
"224 440 OFFCURVE",
"245 512 OFFCURVE",
"266 588 CURVE",
"270 588 LINE",
"291 512 OFFCURVE",
"312 440 OFFCURVE",
"335 367 CURVE SMOOTH",
"366 267 LINE"
);
},
{
closed = 1;
nodes = (
"450 0 LINE",
"538 0 LINE",
"316 656 LINE",
"222 656 LINE",
"0 0 LINE",
"85 0 LINE",
"148 200 LINE",
"387 200 LINE"
);
}
);
width = 538;
}
);
leftKerningGroup = A;
note = uni1EB4;
rightKerningGroup = A;
unicode = 1EB4;
},
{
glyphname = uni1EB6;
layers = (
{
hints = (
{
horizontal = 1;
place = "{-206, 107}";
type = Stem;
},
{
horizontal = 1;
place = "{0, 21}";
target = up;
type = BottomGhost;
},
{
horizontal = 1;
place = "{200, 67}";
type = Stem;
},
{
horizontal = 1;
place = "{588, 68}";
type = Stem;
},
{
horizontal = 1;
place = "{708, 47}";
type = Stem;
},
{
place = "{214, 108}";
type = Stem;
}
);
layerId = "8B4EFE1E-6C47-485C-9646-016EA71CC488";
paths = (
{
closed = 1;
nodes = (
"341 818 LINE",
"335 786 OFFCURVE",
"313 755 OFFCURVE",
"268 755 CURVE SMOOTH",
"223 755 OFFCURVE",
"201 786 OFFCURVE",
"195 818 CURVE",
"145 818 LINE",
"151 762 OFFCURVE",
"188 708 OFFCURVE",
"268 708 CURVE SMOOTH",
"348 708 OFFCURVE",
"384 762 OFFCURVE",
"391 818 CURVE"
);
},
{
closed = 1;
nodes = (
"237 -99 OFFCURVE",
"214 -121 OFFCURVE",
"214 -152 CURVE SMOOTH",
"214 -184 OFFCURVE",
"237 -206 OFFCURVE",
"268 -206 CURVE SMOOTH",
"299 -206 OFFCURVE",
"322 -184 OFFCURVE",
"322 -152 CURVE SMOOTH",
"322 -121 OFFCURVE",
"299 -99 OFFCURVE",
"268 -99 CURVE SMOOTH"
);
},
{
closed = 1;
nodes = (
"169 267 LINE",
"201 367 LINE SMOOTH",
"224 440 OFFCURVE",
"245 512 OFFCURVE",
"266 588 CURVE",
"270 588 LINE",
"291 512 OFFCURVE",
"312 440 OFFCURVE",
"335 367 CURVE SMOOTH",
"366 267 LINE"
);
},
{
closed = 1;
nodes = (
"538 0 LINE",
"316 656 LINE",
"222 656 LINE",
"0 0 LINE",
"85 0 LINE",
"148 200 LINE",
"387 200 LINE",
"450 0 LINE"
);
}
);
width = 538;
}
);
leftKerningGroup = A;
note = uni1EB6;
rightKerningGroup = A;
unicode = 1EB6;
},
{
glyphname = Aogonek;
layers = (
{
hints = (
{
horizontal = 1;
place = "{-212, 59}";
type = Stem;
},
{
horizontal = 1;
place = "{0, 21}";
target = up;
type = BottomGhost;
},
{
horizontal = 1;
place = "{200, 67}";
type = Stem;
},
{
horizontal = 1;
place = "{588, 68}";
type = Stem;
},
{
place = "{394, 64}";
type = Stem;
}
);
layerId = "8B4EFE1E-6C47-485C-9646-016EA71CC488";
paths = (
{
closed = 1;
nodes = (
"169 267 LINE",
"201 367 LINE SMOOTH",
"224 440 OFFCURVE",
"245 512 OFFCURVE",
"266 588 CURVE",
"270 588 LINE",
"291 512 OFFCURVE",
"312 440 OFFCURVE",
"335 367 CURVE SMOOTH",
"366 267 LINE"
);
},
{
closed = 1;
nodes = (
"546 -139 LINE",
"534 -148 OFFCURVE",
"521 -153 OFFCURVE",
"504 -153 CURVE SMOOTH",
"481 -153 OFFCURVE",
"458 -138 OFFCURVE",
"458 -107 CURVE SMOOTH",
"458 -65 OFFCURVE",
"492 -19 OFFCURVE",
"538 0 CURVE",
"316 656 LINE",
"222 656 LINE",
"0 0 LINE",
"85 0 LINE",
"148 200 LINE",
"387 200 LINE",
"450 0 LINE",
"469 0 LINE",
"434 -23 OFFCURVE",
"394 -71 OFFCURVE",
"394 -125 CURVE SMOOTH",
"394 -182 OFFCURVE",
"436 -212 OFFCURVE",
"489 -212 CURVE SMOOTH",
"516 -212 OFFCURVE",
"550 -199 OFFCURVE",
"569 -184 CURVE"
);
}
);
width = 538;
}
);
leftKerningGroup = A;
note = Aogonek;
rightKerningGroup = A;
unicode = 0104;
},
{
glyphname = AE;
layers = (
{
hints = (
{
horizontal = 1;
place = "{0, 71}";
type = Stem;
},
{
horizontal = 1;
place = "{191, 67}";
type = Stem;
},
{
horizontal = 1;
place = "{309, 71}";
type = Stem;
},
{
horizontal = 1;
place = "{586, 70}";
type = Stem;
},
{
place = "{399, 83}";
type = Stem;
},
{
horizontal = 1;
place = "{590, 66}";
type = Stem;
}
);
layerId = "8B4EFE1E-6C47-485C-9646-016EA71CC488";
paths = (
{
closed = 1;
nodes = (
"226 258 LINE",
"287 376 LINE SMOOTH",
"322 447 OFFCURVE",
"360 519 OFFCURVE",
"395 590 CURVE",
"399 590 LINE",
"399 258 LINE"
);
},
{
closed = 1;
nodes = (
"482 71 LINE",
"482 309 LINE",
"715 309 LINE",
"715 380 LINE",
"482 380 LINE",
"482 586 LINE",
"761 586 LINE",
"761 656 LINE",
"350 656 LINE",
"6 0 LINE",
"92 0 LINE",
"191 191 LINE",
"399 191 LINE",
"399 0 LINE",
"771 0 LINE",
"771 71 LINE"
);
}
);
width = 817;
}
);
note = AE;
unicode = 00C6;
},
{
glyphname = Ccedilla;
layers = (
{
hints = (
{
horizontal = 1;
place = "{-213, 41}";
type = Stem;
},
{
horizontal = 1;
place = "{-11, 72}";
type = Stem;
},
{
horizontal = 1;
place = "{595, 73}";
type = Stem;
},
{
place = "{49, 86}";
type = Stem;
},
{
place = "{345, 64}";
type = Stem;
}
);
layerId = "8B4EFE1E-6C47-485C-9646-016EA71CC488";
paths = (
{
closed = 1;
nodes = (
"489 134 LINE",
"447 87 OFFCURVE",
"401 61 OFFCURVE",
"339 61 CURVE SMOOTH",
"214 61 OFFCURVE",
"135 165 OFFCURVE",
"135 330 CURVE SMOOTH",
"135 493 OFFCURVE",
"218 595 OFFCURVE",
"343 595 CURVE SMOOTH",
"397 595 OFFCURVE",
"439 571 OFFCURVE",
"474 534 CURVE",
"521 587 LINE",
"482 630 OFFCURVE",
"420 668 OFFCURVE",
"342 668 CURVE SMOOTH",
"174 668 OFFCURVE",
"49 539 OFFCURVE",
"49 328 CURVE SMOOTH",
"49 124 OFFCURVE",
"161 0 OFFCURVE",
"314 -11 CURVE",
"281 -75 LINE",
"322 -85 OFFCURVE",
"345 -98 OFFCURVE",
"345 -124 CURVE SMOOTH",
"345 -151 OFFCURVE",
"308 -165 OFFCURVE",
"256 -172 CURVE",
"264 -213 LINE",
"340 -206 OFFCURVE",
"409 -179 OFFCURVE",
"409 -121 CURVE SMOOTH",
"409 -80 OFFCURVE",
"382 -61 OFFCURVE",
"349 -50 CURVE",
"369 -10 LINE",
"437 -2 OFFCURVE",
"492 31 OFFCURVE",
"536 83 CURVE"
);
}
);
width = 566;
}
);
leftKerningGroup = C;
note = Ccedilla;
rightKerningGroup = C;
unicode = 00C7;
},
{
glyphname = Cacute;
layers = (
{
hints = (
{
horizontal = 1;
place = "{-12, 73}";
type = Stem;
},
{
horizontal = 1;
place = "{595, 73}";
type = Stem;
},
{
horizontal = 1;
place = "{706, 112}";
type = Stem;
},
{
place = "{49, 86}";
type = Stem;
}
);
layerId = "8B4EFE1E-6C47-485C-9646-016EA71CC488";
paths = (
{
closed = 1;
nodes = (
"49 114 OFFCURVE",
"172 -12 OFFCURVE",
"337 -12 CURVE SMOOTH",
"420 -12 OFFCURVE",
"485 23 OFFCURVE",
"536 83 CURVE",
"489 134 LINE",
"447 87 OFFCURVE",
"401 61 OFFCURVE",
"339 61 CURVE SMOOTH",
"214 61 OFFCURVE",
"135 165 OFFCURVE",
"135 330 CURVE SMOOTH",
"135 493 OFFCURVE",
"218 595 OFFCURVE",
"343 595 CURVE SMOOTH",
"397 595 OFFCURVE",
"439 571 OFFCURVE",
"474 534 CURVE",
"521 587 LINE",
"482 630 OFFCURVE",
"420 668 OFFCURVE",
"342 668 CURVE SMOOTH",
"174 668 OFFCURVE",
"49 539 OFFCURVE",
"49 328 CURVE SMOOTH"
);
},
{
closed = 1;
nodes = (
"459 818 LINE",
"365 818 LINE",
"277 706 LINE",
"346 706 LINE"
);
}
);
width = 566;
}
);
leftKerningGroup = C;
note = Cacute;
rightKerningGroup = C;
unicode = 0106;
},
{
glyphname = Ccircumflex;
layers = (
{
hints = (
{
horizontal = 1;
place = "{-12, 73}";
type = Stem;
},
{
horizontal = 1;
place = "{595, 73}";
type = Stem;
},
{
horizontal = 1;
place = "{706, 112}";
type = Stem;
},
{
place = "{49, 86}";
type = Stem;
}
);
layerId = "8B4EFE1E-6C47-485C-9646-016EA71CC488";
paths = (
{
closed = 1;
nodes = (
"49 114 OFFCURVE",
"172 -12 OFFCURVE",
"337 -12 CURVE SMOOTH",
"420 -12 OFFCURVE",
"485 23 OFFCURVE",
"536 83 CURVE",
"489 134 LINE",
"447 87 OFFCURVE",
"401 61 OFFCURVE",
"339 61 CURVE SMOOTH",
"214 61 OFFCURVE",
"135 165 OFFCURVE",
"135 330 CURVE SMOOTH",
"135 493 OFFCURVE",
"218 595 OFFCURVE",
"343 595 CURVE SMOOTH",
"397 595 OFFCURVE",
"439 571 OFFCURVE",
"474 534 CURVE",
"521 587 LINE",
"482 630 OFFCURVE",
"420 668 OFFCURVE",
"342 668 CURVE SMOOTH",
"174 668 OFFCURVE",
"49 539 OFFCURVE",
"49 328 CURVE SMOOTH"
);
},
{
closed = 1;
nodes = (
"259 706 LINE",
"326 774 LINE",
"330 774 LINE",
"397 706 LINE",
"464 706 LINE",
"368 818 LINE",
"288 818 LINE",
"192 706 LINE"
);
}
);
width = 566;
}
);
leftKerningGroup = C;
note = Ccircumflex;
rightKerningGroup = C;
unicode = 0108;
},
{
glyphname = Ccaron;
layers = (
{
hints = (
{
horizontal = 1;
place = "{-12, 73}";
type = Stem;
},
{
horizontal = 1;
place = "{595, 73}";
type = Stem;
},
{
horizontal = 1;
place = "{706, 112}";
type = Stem;
},
{
place = "{49, 86}";
type = Stem;
}
);
layerId = "8B4EFE1E-6C47-485C-9646-016EA71CC488";
paths = (
{
closed = 1;
nodes = (
"49 114 OFFCURVE",
"172 -12 OFFCURVE",
"337 -12 CURVE SMOOTH",
"420 -12 OFFCURVE",
"485 23 OFFCURVE",
"536 83 CURVE",
"489 134 LINE",
"447 87 OFFCURVE",
"401 61 OFFCURVE",
"339 61 CURVE SMOOTH",
"214 61 OFFCURVE",
"135 165 OFFCURVE",
"135 330 CURVE SMOOTH",
"135 493 OFFCURVE",
"218 595 OFFCURVE",
"343 595 CURVE SMOOTH",
"397 595 OFFCURVE",
"439 571 OFFCURVE",
"474 534 CURVE",
"521 587 LINE",
"482 630 OFFCURVE",
"420 668 OFFCURVE",
"342 668 CURVE SMOOTH",
"174 668 OFFCURVE",
"49 539 OFFCURVE",
"49 328 CURVE SMOOTH"
);
},
{
closed = 1;
nodes = (
"397 818 LINE",
"330 750 LINE",
"326 750 LINE",
"259 818 LINE",
"192 818 LINE",
"288 706 LINE",
"368 706 LINE",
"464 818 LINE"
);
}
);
width = 566;
}
);
leftKerningGroup = C;
note = Ccaron;
rightKerningGroup = C;
unicode = 010C;
},
{
glyphname = Cdotaccent;
layers = (
{
hints = (
{
horizontal = 1;
place = "{-12, 73}";
type = Stem;
},
{
horizontal = 1;
place = "{595, 73}";
type = Stem;
},
{
horizontal = 1;
place = "{714, 107}";
type = Stem;
},
{
place = "{49, 86}";
type = Stem;
},
{
place = "{271, 114}";
type = Stem;
}
);
layerId = "8B4EFE1E-6C47-485C-9646-016EA71CC488";
paths = (
{
closed = 1;
nodes = (
"49 114 OFFCURVE",
"172 -12 OFFCURVE",
"337 -12 CURVE SMOOTH",
"420 -12 OFFCURVE",
"485 23 OFFCURVE",
"536 83 CURVE",
"489 134 LINE",
"447 87 OFFCURVE",
"401 61 OFFCURVE",
"339 61 CURVE SMOOTH",
"214 61 OFFCURVE",
"135 165 OFFCURVE",
"135 330 CURVE SMOOTH",
"135 493 OFFCURVE",
"218 595 OFFCURVE",
"343 595 CURVE SMOOTH",
"397 595 OFFCURVE",
"439 571 OFFCURVE",
"474 534 CURVE",
"521 587 LINE",
"482 630 OFFCURVE",
"420 668 OFFCURVE",
"342 668 CURVE SMOOTH",
"174 668 OFFCURVE",
"49 539 OFFCURVE",
"49 328 CURVE SMOOTH"
);
},
{
closed = 1;
nodes = (
"360 714 OFFCURVE",
"385 736 OFFCURVE",
"385 768 CURVE SMOOTH",
"385 799 OFFCURVE",
"360 821 OFFCURVE",
"328 821 CURVE SMOOTH",
"296 821 OFFCURVE",
"271 799 OFFCURVE",
"271 768 CURVE SMOOTH",
"271 736 OFFCURVE",
"296 714 OFFCURVE",
"328 714 CURVE SMOOTH"
);
}
);
width = 566;
}
);
leftKerningGroup = C;
note = Cdotaccent;
rightKerningGroup = C;
unicode = 010A;
},
{
glyphname = Dcaron;
layers = (
{
hints = (
{
horizontal = 1;
place = "{0, 68}";
type = Stem;
},
{
horizontal = 1;
place = "{588, 68}";
type = Stem;
},
{
horizontal = 1;
place = "{706, 112}";
type = Stem;
},
{
place = "{87, 84}";
type = Stem;
},
{
place = "{475, 86}";
type = Stem;
}
);
layerId = "8B4EFE1E-6C47-485C-9646-016EA71CC488";
paths = (
{
closed = 1;
nodes = (
"87 0 LINE",
"255 0 LINE SMOOTH",
"453 0 OFFCURVE",
"561 122 OFFCURVE",
"561 331 CURVE SMOOTH",
"561 539 OFFCURVE",
"453 656 OFFCURVE",
"251 656 CURVE SMOOTH",
"87 656 LINE"
);
},
{
closed = 1;
nodes = (
"171 68 LINE",
"171 588 LINE",
"245 588 LINE SMOOTH",
"399 588 OFFCURVE",
"475 496 OFFCURVE",
"475 331 CURVE SMOOTH",
"475 165 OFFCURVE",
"399 68 OFFCURVE",
"245 68 CURVE SMOOTH"
);
},
{
closed = 1;
nodes = (
"375 818 LINE",
"308 750 LINE",
"304 750 LINE",
"237 818 LINE",
"170 818 LINE",
"266 706 LINE",
"345 706 LINE",
"441 818 LINE"
);
}
);
width = 612;
}
);
note = Dcaron;
rightKerningGroup = D;
unicode = 010E;
},
{
glyphname = uni1E0C;
layers = (
{
hints = (
{
horizontal = 1;
place = "{-206, 107}";
type = Stem;
},
{
horizontal = 1;
place = "{0, 68}";
type = Stem;
},
{
horizontal = 1;
place = "{588, 68}";
type = Stem;
},
{
place = "{87, 84}";
type = Stem;
},
{
place = "{248, 108}";
type = Stem;
},
{
place = "{475, 86}";
type = Stem;
}
);
layerId = "8B4EFE1E-6C47-485C-9646-016EA71CC488";
paths = (
{
closed = 1;
nodes = (
"87 0 LINE",
"255 0 LINE SMOOTH",
"453 0 OFFCURVE",
"561 122 OFFCURVE",
"561 331 CURVE SMOOTH",
"561 539 OFFCURVE",
"453 656 OFFCURVE",
"251 656 CURVE SMOOTH",
"87 656 LINE"
);
},
{
closed = 1;
nodes = (
"171 68 LINE",
"171 588 LINE",
"245 588 LINE SMOOTH",
"399 588 OFFCURVE",
"475 496 OFFCURVE",
"475 331 CURVE SMOOTH",
"475 165 OFFCURVE",
"399 68 OFFCURVE",
"245 68 CURVE SMOOTH"
);
},
{
closed = 1;
nodes = (
"333 -206 OFFCURVE",
"356 -184 OFFCURVE",
"356 -152 CURVE SMOOTH",
"356 -121 OFFCURVE",
"333 -99 OFFCURVE",
"302 -99 CURVE SMOOTH",
"271 -99 OFFCURVE",
"248 -121 OFFCURVE",
"248 -152 CURVE SMOOTH",
"248 -184 OFFCURVE",
"271 -206 OFFCURVE",
"302 -206 CURVE SMOOTH"
);
}
);
width = 612;
}
);
note = uni1E0C;
rightKerningGroup = D;
unicode = 1E0C;
},
{
glyphname = uni1E0E;
layers = (
{
hints = (
{
horizontal = 1;
place = "{-171, 58}";
type = Stem;
},
{
horizontal = 1;
place = "{0, 68}";
type = Stem;
},
{
horizontal = 1;
place = "{588, 68}";
type = Stem;
},
{
place = "{87, 84}";
type = Stem;
},
{
place = "{475, 86}";
type = Stem;
},
{
place = "{178, 247}";
type = Stem;
}
);
layerId = "8B4EFE1E-6C47-485C-9646-016EA71CC488";
paths = (
{
closed = 1;
nodes = (
"87 0 LINE",
"255 0 LINE SMOOTH",
"453 0 OFFCURVE",
"561 122 OFFCURVE",
"561 331 CURVE SMOOTH",
"561 539 OFFCURVE",
"453 656 OFFCURVE",
"251 656 CURVE SMOOTH",
"87 656 LINE"
);
},
{
closed = 1;
nodes = (
"171 68 LINE",
"171 588 LINE",
"245 588 LINE SMOOTH",
"399 588 OFFCURVE",
"475 496 OFFCURVE",
"475 331 CURVE SMOOTH",
"475 165 OFFCURVE",
"399 68 OFFCURVE",
"245 68 CURVE SMOOTH"
);
},
{
closed = 1;
nodes = (
"425 -113 LINE",
"178 -113 LINE",
"178 -171 LINE",
"425 -171 LINE"
);
}
);
width = 612;
}
);
note = uni1E0E;
rightKerningGroup = D;
unicode = 1E0E;
},
{
glyphname = Dcroat;
layers = (
{
hints = (
{
horizontal = 1;
place = "{0, 68}";
type = Stem;
},
{
horizontal = 1;
place = "{321, 47}";
type = Stem;
},
{
horizontal = 1;
place = "{588, 68}";
type = Stem;
},
{
place = "{107, 83}";
type = Stem;
},
{
place = "{495, 86}";
type = Stem;
}
);
layerId = "8B4EFE1E-6C47-485C-9646-016EA71CC488";
paths = (
{
closed = 1;
nodes = (
"190 68 LINE",
"190 321 LINE",
"342 321 LINE",
"342 368 LINE",
"190 368 LINE",
"190 588 LINE",
"265 588 LINE SMOOTH",
"418 588 OFFCURVE",
"495 496 OFFCURVE",
"495 331 CURVE SMOOTH",
"495 165 OFFCURVE",
"418 68 OFFCURVE",
"265 68 CURVE SMOOTH"
);
},
{
closed = 1;
nodes = (
"107 656 LINE",
"107 368 LINE",
"30 364 LINE",
"30 321 LINE",
"107 321 LINE",
"107 0 LINE",
"275 0 LINE SMOOTH",
"473 0 OFFCURVE",
"581 122 OFFCURVE",
"581 331 CURVE SMOOTH",
"581 539 OFFCURVE",
"473 656 OFFCURVE",
"271 656 CURVE SMOOTH"
);
}
);
width = 631;
}
);
note = Dcroat;
rightKerningGroup = D;
unicode = 0110;
},
{
glyphname = Egrave;
layers = (
{
hints = (
{
horizontal = 1;
place = "{0, 71}";
type = Stem;
},
{
horizontal = 1;
place = "{309, 71}";
type = Stem;
},
{
horizontal = 1;
place = "{586, 70}";
type = Stem;
},
{
horizontal = 1;
place = "{706, 112}";
type = Stem;
},
{
place = "{87, 84}";
type = Stem;
}
);
layerId = "8B4EFE1E-6C47-485C-9646-016EA71CC488";
paths = (
{
closed = 1;
nodes = (
"87 0 LINE",
"475 0 LINE",
"475 71 LINE",
"171 71 LINE",
"171 309 LINE",
"419 309 LINE",
"419 380 LINE",
"171 380 LINE",
"171 586 LINE",
"465 586 LINE",
"465 656 LINE",
"87 656 LINE"
);
},
{
closed = 1;
nodes = (
"264 706 LINE",
"333 706 LINE",
"245 818 LINE",
"151 818 LINE"
);
}
);
width = 522;
}
);
note = Egrave;
unicode = 00C8;
},
{
glyphname = Eacute;
layers = (
{
hints = (
{
horizontal = 1;
place = "{0, 71}";
type = Stem;
},
{
horizontal = 1;
place = "{309, 71}";
type = Stem;
},
{
horizontal = 1;
place = "{586, 70}";
type = Stem;
},
{
horizontal = 1;
place = "{706, 112}";
type = Stem;
},
{
place = "{87, 84}";
type = Stem;
}
);
layerId = "8B4EFE1E-6C47-485C-9646-016EA71CC488";
paths = (
{
closed = 1;
nodes = (
"87 0 LINE",
"475 0 LINE",
"475 71 LINE",
"171 71 LINE",
"171 309 LINE",
"419 309 LINE",
"419 380 LINE",
"171 380 LINE",
"171 586 LINE",
"465 586 LINE",
"465 656 LINE",
"87 656 LINE"
);
},
{
closed = 1;
nodes = (
"413 818 LINE",
"319 818 LINE",
"231 706 LINE",
"300 706 LINE"
);
}
);
width = 522;
}
);
note = Eacute;
unicode = 00C9;
},
{
glyphname = Ecircumflex;
layers = (
{
hints = (
{
horizontal = 1;
place = "{0, 71}";
type = Stem;
},
{
horizontal = 1;
place = "{309, 71}";
type = Stem;
},
{
horizontal = 1;
place = "{586, 70}";
type = Stem;
},
{
horizontal = 1;
place = "{706, 112}";
type = Stem;
},
{
place = "{87, 84}";
type = Stem;
}
);
layerId = "8B4EFE1E-6C47-485C-9646-016EA71CC488";
paths = (
{
closed = 1;
nodes = (
"87 0 LINE",
"475 0 LINE",
"475 71 LINE",
"171 71 LINE",
"171 309 LINE",
"419 309 LINE",
"419 380 LINE",
"171 380 LINE",
"171 586 LINE",
"465 586 LINE",
"465 656 LINE",
"87 656 LINE"
);
},
{
closed = 1;
nodes = (
"213 706 LINE",
"280 774 LINE",
"284 774 LINE",
"351 706 LINE",
"418 706 LINE",
"322 818 LINE",
"242 818 LINE",
"146 706 LINE"
);
}
);
width = 522;
}
);
note = Ecircumflex;
unicode = 00CA;
},
{
glyphname = Ecaron;
layers = (
{
hints = (
{
horizontal = 1;
place = "{0, 71}";
type = Stem;
},
{
horizontal = 1;
place = "{309, 71}";
type = Stem;
},
{
horizontal = 1;
place = "{586, 70}";
type = Stem;
},
{
horizontal = 1;
place = "{706, 112}";
type = Stem;
},
{
place = "{87, 84}";
type = Stem;
}
);
layerId = "8B4EFE1E-6C47-485C-9646-016EA71CC488";
paths = (
{
closed = 1;
nodes = (
"87 0 LINE",
"475 0 LINE",
"475 71 LINE",
"171 71 LINE",
"171 309 LINE",
"419 309 LINE",
"419 380 LINE",
"171 380 LINE",
"171 586 LINE",
"465 586 LINE",
"465 656 LINE",
"87 656 LINE"
);
},
{
closed = 1;
nodes = (
"351 818 LINE",
"284 750 LINE",
"280 750 LINE",
"213 818 LINE",
"146 818 LINE",
"242 706 LINE",
"322 706 LINE",
"418 818 LINE"
);
}
);
width = 522;
}
);
note = Ecaron;
unicode = 011A;
},
{
glyphname = Edieresis;
layers = (
{
hints = (
{
horizontal = 1;
place = "{0, 71}";
type = Stem;
},
{
horizontal = 1;
place = "{309, 71}";
type = Stem;
},
{
horizontal = 1;
place = "{586, 70}";
type = Stem;
},
{
place = "{87, 84}";
type = Stem;
},
{
horizontal = 1;
place = "{715, 98}";
type = Stem;
},
{
place = "{147, 97}";
type = Stem;
},
{
place = "{319, 98}";
type = Stem;
}
);
layerId = "8B4EFE1E-6C47-485C-9646-016EA71CC488";
paths = (
{
closed = 1;
nodes = (
"87 0 LINE",
"475 0 LINE",
"475 71 LINE",
"171 71 LINE",
"171 309 LINE",
"419 309 LINE",
"419 380 LINE",
"171 380 LINE",
"171 586 LINE",
"465 586 LINE",
"465 656 LINE",
"87 656 LINE"
);
},
{
closed = 1;
nodes = (
"224 715 OFFCURVE",
"244 736 OFFCURVE",
"244 764 CURVE SMOOTH",
"244 793 OFFCURVE",
"224 813 OFFCURVE",
"195 813 CURVE SMOOTH",
"167 813 OFFCURVE",
"147 793 OFFCURVE",
"147 764 CURVE SMOOTH",
"147 736 OFFCURVE",
"167 715 OFFCURVE",
"195 715 CURVE SMOOTH"
);
},
{
closed = 1;
nodes = (
"396 715 OFFCURVE",
"417 736 OFFCURVE",
"417 764 CURVE SMOOTH",
"417 793 OFFCURVE",
"396 813 OFFCURVE",
"368 813 CURVE SMOOTH",
"340 813 OFFCURVE",
"319 793 OFFCURVE",
"319 764 CURVE SMOOTH",
"319 736 OFFCURVE",
"340 715 OFFCURVE",
"368 715 CURVE SMOOTH"
);
}
);
width = 522;
}
);
note = Edieresis;
unicode = 00CB;
},
{
glyphname = Emacron;
layers = (
{
hints = (
{
horizontal = 1;
place = "{0, 71}";
type = Stem;
},
{
horizontal = 1;
place = "{309, 71}";
type = Stem;
},
{
horizontal = 1;
place = "{586, 70}";
type = Stem;
},
{
horizontal = 1;
place = "{729, 57}";
type = Stem;
},
{
place = "{87, 84}";
type = Stem;
},
{
place = "{158, 248}";
type = Stem;
}
);
layerId = "8B4EFE1E-6C47-485C-9646-016EA71CC488";
paths = (
{
closed = 1;
nodes = (
"87 0 LINE",
"475 0 LINE",
"475 71 LINE",
"171 71 LINE",
"171 309 LINE",
"419 309 LINE",
"419 380 LINE",
"171 380 LINE",
"171 586 LINE",
"465 586 LINE",
"465 656 LINE",
"87 656 LINE"
);
},
{
closed = 1;
nodes = (
"158 729 LINE",
"406 729 LINE",
"406 786 LINE",
"158 786 LINE"
);
}
);
width = 522;
}
);
note = Emacron;
unicode = 0112;
},
{
glyphname = Ebreve;
layers = (
{
hints = (
{
horizontal = 1;
place = "{0, 71}";
type = Stem;
},
{
horizontal = 1;
place = "{309, 71}";
type = Stem;
},
{
horizontal = 1;
place = "{586, 70}";
type = Stem;
},
{
horizontal = 1;
place = "{708, 47}";
type = Stem;
},
{
place = "{87, 84}";
type = Stem;
}
);
layerId = "8B4EFE1E-6C47-485C-9646-016EA71CC488";
paths = (
{
closed = 1;
nodes = (
"87 0 LINE",
"475 0 LINE",
"475 71 LINE",
"171 71 LINE",
"171 309 LINE",
"419 309 LINE",
"419 380 LINE",
"171 380 LINE",
"171 586 LINE",
"465 586 LINE",
"465 656 LINE",
"87 656 LINE"
);
},
{
closed = 1;
nodes = (
"362 708 OFFCURVE",
"398 762 OFFCURVE",
"405 818 CURVE",
"355 818 LINE",
"349 786 OFFCURVE",
"327 755 OFFCURVE",
"282 755 CURVE SMOOTH",
"237 755 OFFCURVE",
"215 786 OFFCURVE",
"209 818 CURVE",
"159 818 LINE",
"165 762 OFFCURVE",
"202 708 OFFCURVE",
"282 708 CURVE SMOOTH"
);
}
);
width = 522;
}
);
note = Ebreve;
unicode = 0114;
},
{
glyphname = Edotaccent;
layers = (
{
hints = (
{
horizontal = 1;
place = "{0, 71}";
type = Stem;
},
{
horizontal = 1;
place = "{309, 71}";
type = Stem;
},
{
horizontal = 1;
place = "{586, 70}";
type = Stem;
},
{
horizontal = 1;
place = "{714, 107}";
type = Stem;
},
{
place = "{87, 84}";
type = Stem;
},
{
place = "{225, 114}";
type = Stem;
}
);
layerId = "8B4EFE1E-6C47-485C-9646-016EA71CC488";
paths = (
{
closed = 1;
nodes = (
"87 0 LINE",
"475 0 LINE",
"475 71 LINE",
"171 71 LINE",
"171 309 LINE",
"419 309 LINE",
"419 380 LINE",
"171 380 LINE",
"171 586 LINE",
"465 586 LINE",
"465 656 LINE",
"87 656 LINE"
);
},
{
closed = 1;
nodes = (
"314 714 OFFCURVE",
"339 736 OFFCURVE",
"339 768 CURVE SMOOTH",
"339 799 OFFCURVE",
"314 821 OFFCURVE",
"282 821 CURVE SMOOTH",
"250 821 OFFCURVE",
"225 799 OFFCURVE",
"225 768 CURVE SMOOTH",
"225 736 OFFCURVE",
"250 714 OFFCURVE",
"282 714 CURVE SMOOTH"
);
}
);
width = 522;
}
);
note = Edotaccent;
unicode = 0116;
},
{
glyphname = uni1EB8;
layers = (
{
hints = (
{
horizontal = 1;
place = "{-206, 107}";
type = Stem;
},
{
horizontal = 1;
place = "{0, 71}";
type = Stem;
},
{
horizontal = 1;
place = "{309, 71}";
type = Stem;
},
{
horizontal = 1;
place = "{586, 70}";
type = Stem;
},
{
place = "{87, 84}";
type = Stem;
},
{
place = "{239, 108}";
type = Stem;
}
);
layerId = "8B4EFE1E-6C47-485C-9646-016EA71CC488";
paths = (
{
closed = 1;
nodes = (
"87 0 LINE",
"475 0 LINE",
"475 71 LINE",
"171 71 LINE",
"171 309 LINE",
"419 309 LINE",
"419 380 LINE",
"171 380 LINE",
"171 586 LINE",
"465 586 LINE",
"465 656 LINE",
"87 656 LINE"
);
},
{
closed = 1;
nodes = (
"325 -206 OFFCURVE",
"347 -184 OFFCURVE",
"347 -152 CURVE SMOOTH",
"347 -121 OFFCURVE",
"325 -99 OFFCURVE",
"293 -99 CURVE SMOOTH",
"262 -99 OFFCURVE",
"239 -121 OFFCURVE",
"239 -152 CURVE SMOOTH",
"239 -184 OFFCURVE",
"262 -206 OFFCURVE",
"293 -206 CURVE SMOOTH"
);
}
);
width = 522;
}
);
note = uni1EB8;
unicode = 1EB8;
},
{
glyphname = uni1EBA;
layers = (
{
hints = (
{
horizontal = 1;
place = "{0, 71}";
type = Stem;
},
{
horizontal = 1;
place = "{309, 71}";
type = Stem;
},
{
horizontal = 1;
place = "{586, 70}";
type = Stem;
},
{
horizontal = 1;
place = "{824, 48}";
type = Stem;
},
{
place = "{87, 84}";
type = Stem;
},
{
place = "{301, 64}";
type = Stem;
}
);
layerId = "8B4EFE1E-6C47-485C-9646-016EA71CC488";
paths = (
{
closed = 1;
nodes = (
"87 0 LINE",
"475 0 LINE",
"475 71 LINE",
"171 71 LINE",
"171 309 LINE",
"419 309 LINE",
"419 380 LINE",
"171 380 LINE",
"171 586 LINE",
"465 586 LINE",
"465 656 LINE",
"87 656 LINE"
);
},
{
closed = 1;
nodes = (
"254 698 LINE",
"312 708 OFFCURVE",
"365 733 OFFCURVE",
"365 791 CURVE SMOOTH",
"365 842 OFFCURVE",
"314 869 OFFCURVE",
"226 872 CURVE",
"218 824 LINE",
"273 822 OFFCURVE",
"301 808 OFFCURVE",
"301 782 CURVE SMOOTH",
"301 757 OFFCURVE",
"277 745 OFFCURVE",
"244 736 CURVE"
);
}
);
width = 522;
}
);
note = uni1EBA;
unicode = 1EBA;
},
{
glyphname = uni1EBC;
layers = (
{
hints = (
{
horizontal = 1;
place = "{0, 71}";
type = Stem;
},
{
horizontal = 1;
place = "{309, 71}";
type = Stem;
},
{
horizontal = 1;
place = "{586, 70}";
type = Stem;
},
{
horizontal = 1;
place = "{711, 56}";
type = Stem;
},
{
place = "{87, 84}";
type = Stem;
},
{
place = "{381, 45}";
type = Stem;
},
{
place = "{137, 46}";
type = Stem;
},
{
horizontal = 1;
place = "{763, 56}";
type = Stem;
}
);
layerId = "8B4EFE1E-6C47-485C-9646-016EA71CC488";
paths = (
{
closed = 1;
nodes = (
"87 0 LINE",
"475 0 LINE",
"475 71 LINE",
"171 71 LINE",
"171 309 LINE",
"419 309 LINE",
"419 380 LINE",
"171 380 LINE",
"171 586 LINE",
"465 586 LINE",
"465 656 LINE",
"87 656 LINE"
);
},
{
closed = 1;
nodes = (
"390 711 OFFCURVE",
"421 758 OFFCURVE",
"426 819 CURVE",
"381 819 LINE",
"375 786 OFFCURVE",
"360 767 OFFCURVE",
"340 767 CURVE SMOOTH",
"303 767 OFFCURVE",
"274 819 OFFCURVE",
"222 819 CURVE SMOOTH",
"174 819 OFFCURVE",
"143 773 OFFCURVE",
"137 711 CURVE",
"183 711 LINE",
"188 745 OFFCURVE",
"203 763 OFFCURVE",
"223 763 CURVE SMOOTH",
"260 763 OFFCURVE",
"289 711 OFFCURVE",
"342 711 CURVE SMOOTH"
);
}
);
width = 522;
}
);
note = uni1EBC;
unicode = 1EBC;
},
{
glyphname = uni1EBE;
layers = (
{
hints = (
{
horizontal = 1;
place = "{0, 71}";
type = Stem;
},
{
horizontal = 1;
place = "{309, 71}";
type = Stem;
},
{
horizontal = 1;
place = "{586, 70}";
type = Stem;
},
{
horizontal = 1;
place = "{706, 106}";
type = Stem;
},
{
place = "{87, 84}";
type = Stem;
},
{
horizontal = 1;
place = "{770, 111}";
type = Stem;
}
);
layerId = "8B4EFE1E-6C47-485C-9646-016EA71CC488";
paths = (
{
closed = 1;
nodes = (
"87 0 LINE",
"475 0 LINE",
"475 71 LINE",
"171 71 LINE",
"171 309 LINE",
"419 309 LINE",
"419 380 LINE",
"171 380 LINE",
"171 586 LINE",
"465 586 LINE",
"465 656 LINE",
"87 656 LINE"
);
},
{
closed = 1;
nodes = (
"373 770 LINE",
"425 770 LINE",
"515 881 LINE",
"444 881 LINE"
);
},
{
closed = 1;
nodes = (
"153 706 LINE",
"217 706 LINE",
"280 768 LINE",
"284 768 LINE",
"347 706 LINE",
"410 706 LINE",
"318 812 LINE",
"246 812 LINE"
);
}
);
width = 522;
}
);
note = uni1EBE;
unicode = 1EBE;
},
{
glyphname = uni1EC0;
layers = (
{
hints = (
{
horizontal = 1;
place = "{0, 71}";
type = Stem;
},
{
horizontal = 1;
place = "{309, 71}";
type = Stem;
},
{
horizontal = 1;
place = "{586, 70}";
type = Stem;
},
{
horizontal = 1;
place = "{706, 106}";
type = Stem;
},
{
place = "{87, 84}";
type = Stem;
},
{
horizontal = 1;
place = "{770, 111}";
type = Stem;
}
);
layerId = "8B4EFE1E-6C47-485C-9646-016EA71CC488";
paths = (
{
closed = 1;
nodes = (
"87 0 LINE",
"475 0 LINE",
"475 71 LINE",
"171 71 LINE",
"171 309 LINE",
"419 309 LINE",
"419 380 LINE",
"171 380 LINE",
"171 586 LINE",
"465 586 LINE",
"465 656 LINE",
"87 656 LINE"
);
},
{
closed = 1;
nodes = (
"395 881 LINE",
"323 881 LINE",
"414 770 LINE",
"466 770 LINE"
);
},
{
closed = 1;
nodes = (
"153 706 LINE",
"217 706 LINE",
"280 768 LINE",
"284 768 LINE",
"347 706 LINE",
"410 706 LINE",
"318 812 LINE",
"246 812 LINE"
);
}
);
width = 522;
}
);
note = uni1EC0;
unicode = 1EC0;
},
{
glyphname = uni1EC2;
layers = (
{
hints = (
{
horizontal = 1;
place = "{0, 71}";
type = Stem;
},
{
horizontal = 1;
place = "{309, 71}";
type = Stem;
},
{
horizontal = 1;
place = "{586, 70}";
type = Stem;
},
{
horizontal = 1;
place = "{706, 106}";
type = Stem;
},
{
horizontal = 1;
place = "{864, 42}";
type = Stem;
},
{
place = "{87, 84}";
type = Stem;
},
{
place = "{431, 58}";
type = Stem;
}
);
layerId = "8B4EFE1E-6C47-485C-9646-016EA71CC488";
paths = (
{
closed = 1;
nodes = (
"87 0 LINE",
"475 0 LINE",
"475 71 LINE",
"171 71 LINE",
"171 309 LINE",
"419 309 LINE",
"419 380 LINE",
"171 380 LINE",
"171 586 LINE",
"465 586 LINE",
"465 656 LINE",
"87 656 LINE"
);
},
{
closed = 1;
nodes = (
"397 754 LINE",
"444 762 OFFCURVE",
"489 782 OFFCURVE",
"489 833 CURVE SMOOTH",
"489 879 OFFCURVE",
"446 903 OFFCURVE",
"369 906 CURVE",
"360 864 LINE",
"409 861 OFFCURVE",
"431 851 OFFCURVE",
"431 825 CURVE SMOOTH",
"431 804 OFFCURVE",
"411 795 OFFCURVE",
"386 789 CURVE"
);
},
{
closed = 1;
nodes = (
"153 706 LINE",
"217 706 LINE",
"280 768 LINE",
"284 768 LINE",
"347 706 LINE",
"410 706 LINE",
"318 812 LINE",
"246 812 LINE"
);
}
);
width = 522;
}
);
note = uni1EC2;
unicode = 1EC2;
},
{
glyphname = uni1EC4;
layers = (
{
hints = (
{
horizontal = 1;
place = "{0, 71}";
type = Stem;
},
{
horizontal = 1;
place = "{309, 71}";
type = Stem;
},
{
horizontal = 1;
place = "{586, 70}";
type = Stem;
},
{
horizontal = 1;
place = "{706, 106}";
type = Stem;
},
{
horizontal = 1;
place = "{891, 48}";
type = Stem;
},
{
place = "{87, 84}";
type = Stem;
},
{
place = "{150, 42}";
type = Stem;
},
{
place = "{371, 43}";
type = Stem;
},
{
horizontal = 1;
place = "{846, 48}";
type = Stem;
}
);
layerId = "8B4EFE1E-6C47-485C-9646-016EA71CC488";
paths = (
{
closed = 1;
nodes = (
"87 0 LINE",
"475 0 LINE",
"475 71 LINE",
"171 71 LINE",
"171 309 LINE",
"419 309 LINE",
"419 380 LINE",
"171 380 LINE",
"171 586 LINE",
"465 586 LINE",
"465 656 LINE",
"87 656 LINE"
);
},
{
closed = 1;
nodes = (
"153 706 LINE",
"217 706 LINE",
"280 768 LINE",
"284 768 LINE",
"347 706 LINE",
"410 706 LINE",
"318 812 LINE",
"246 812 LINE"
);
},
{
closed = 1;
nodes = (
"192 846 LINE",
"197 875 OFFCURVE",
"212 891 OFFCURVE",
"232 891 CURVE SMOOTH",
"264 891 OFFCURVE",
"287 846 OFFCURVE",
"335 846 CURVE SMOOTH",
"381 846 OFFCURVE",
"409 887 OFFCURVE",
"414 939 CURVE",
"371 939 LINE",
"367 911 OFFCURVE",
"352 894 OFFCURVE",
"332 894 CURVE SMOOTH",
"300 894 OFFCURVE",
"277 939 OFFCURVE",
"229 939 CURVE SMOOTH",
"183 939 OFFCURVE",
"155 899 OFFCURVE",
"150 846 CURVE"
);
}
);
width = 522;
}
);
note = uni1EC4;
unicode = 1EC4;
},
{
glyphname = uni1EC6;
layers = (
{
hints = (
{
horizontal = 1;
place = "{-206, 107}";
type = Stem;
},
{
horizontal = 1;
place = "{0, 71}";
type = Stem;
},
{
horizontal = 1;
place = "{309, 71}";
type = Stem;
},
{
horizontal = 1;
place = "{586, 70}";
type = Stem;
},
{
horizontal = 1;
place = "{706, 112}";
type = Stem;
},
{
place = "{87, 84}";
type = Stem;
},
{
place = "{239, 108}";
type = Stem;
}
);
layerId = "8B4EFE1E-6C47-485C-9646-016EA71CC488";
paths = (
{
closed = 1;
nodes = (
"87 0 LINE",
"475 0 LINE",
"475 71 LINE",
"171 71 LINE",
"171 309 LINE",
"419 309 LINE",
"419 380 LINE",
"171 380 LINE",
"171 586 LINE",
"465 586 LINE",
"465 656 LINE",
"87 656 LINE"
);
},
{
closed = 1;
nodes = (
"213 706 LINE",
"280 774 LINE",
"284 774 LINE",
"351 706 LINE",
"418 706 LINE",
"322 818 LINE",
"242 818 LINE",
"146 706 LINE"
);
},
{
closed = 1;
nodes = (
"325 -206 OFFCURVE",
"347 -184 OFFCURVE",
"347 -152 CURVE SMOOTH",
"347 -121 OFFCURVE",
"325 -99 OFFCURVE",
"293 -99 CURVE SMOOTH",
"262 -99 OFFCURVE",
"239 -121 OFFCURVE",
"239 -152 CURVE SMOOTH",
"239 -184 OFFCURVE",
"262 -206 OFFCURVE",
"293 -206 CURVE SMOOTH"
);
}
);
width = 522;
}
);
note = uni1EC6;
unicode = 1EC6;
},
{
glyphname = Eogonek;
layers = (
{
hints = (
{
horizontal = 1;
place = "{-212, 59}";
type = Stem;
},
{
horizontal = 1;
place = "{0, 71}";
type = Stem;
},
{
horizontal = 1;
place = "{309, 71}";
type = Stem;
},
{
horizontal = 1;
place = "{586, 70}";
type = Stem;
},
{
place = "{87, 84}";
type = Stem;
},
{
place = "{316, 64}";
type = Stem;
}
);
layerId = "8B4EFE1E-6C47-485C-9646-016EA71CC488";
paths = (
{
closed = 1;
nodes = (
"87 0 LINE",
"391 0 LINE",
"353 -24 OFFCURVE",
"316 -70 OFFCURVE",
"316 -125 CURVE SMOOTH",
"316 -182 OFFCURVE",
"358 -212 OFFCURVE",
"411 -212 CURVE SMOOTH",
"438 -212 OFFCURVE",
"472 -199 OFFCURVE",
"491 -184 CURVE",
"468 -139 LINE",
"456 -148 OFFCURVE",
"444 -153 OFFCURVE",
"428 -153 CURVE SMOOTH",
"404 -153 OFFCURVE",
"380 -138 OFFCURVE",
"380 -107 CURVE SMOOTH",
"380 -54 OFFCURVE",
"427 -6 OFFCURVE",
"472 0 CURVE SMOOTH",
"475 0 LINE",
"475 71 LINE",
"171 71 LINE",
"171 309 LINE",
"419 309 LINE",
"419 380 LINE",
"171 380 LINE",
"171 586 LINE",
"465 586 LINE",
"465 656 LINE",
"87 656 LINE"
);
}
);
width = 522;
}
);
note = Eogonek;
unicode = 0118;
},
{
glyphname = Gcircumflex;
layers = (
{
hints = (
{
horizontal = 1;
place = "{-12, 73}";
type = Stem;
},
{
horizontal = 1;
place = "{271, 69}";
type = Stem;
},
{
horizontal = 1;
place = "{595, 73}";
type = Stem;
},
{
horizontal = 1;
place = "{706, 112}";
type = Stem;
},
{
place = "{49, 86}";
type = Stem;
},
{
place = "{472, 76}";
type = Stem;
}
);
layerId = "8B4EFE1E-6C47-485C-9646-016EA71CC488";
paths = (
{
closed = 1;
nodes = (
"49 114 OFFCURVE",
"172 -12 OFFCURVE",
"344 -12 CURVE SMOOTH",
"432 -12 OFFCURVE",
"505 22 OFFCURVE",
"548 64 CURVE",
"548 340 LINE",
"333 340 LINE",
"333 271 LINE",
"472 271 LINE",
"472 100 LINE",
"446 76 OFFCURVE",
"400 61 OFFCURVE",
"353 61 CURVE SMOOTH",
"213 61 OFFCURVE",
"135 165 OFFCURVE",
"135 330 CURVE SMOOTH",
"135 493 OFFCURVE",
"220 595 OFFCURVE",
"353 595 CURVE SMOOTH",
"418 595 OFFCURVE",
"459 569 OFFCURVE",
"492 534 CURVE",
"540 587 LINE",
"501 627 OFFCURVE",
"441 668 OFFCURVE",
"352 668 CURVE SMOOTH",
"176 668 OFFCURVE",
"49 539 OFFCURVE",
"49 328 CURVE SMOOTH"
);
},
{
closed = 1;
nodes = (
"282 706 LINE",
"349 774 LINE",
"353 774 LINE",
"420 706 LINE",
"487 706 LINE",
"391 818 LINE",
"311 818 LINE",
"215 706 LINE"
);
}
);
width = 612;
}
);
leftKerningGroup = C;
note = Gcircumflex;
rightKerningGroup = G;
unicode = 011C;
},
{
glyphname = Gbreve;
layers = (
{
hints = (
{
horizontal = 1;
place = "{-12, 73}";
type = Stem;
},
{
horizontal = 1;
place = "{271, 69}";
type = Stem;
},
{
horizontal = 1;
place = "{595, 73}";
type = Stem;
},
{
horizontal = 1;
place = "{708, 47}";
type = Stem;
},
{
place = "{49, 86}";
type = Stem;
},
{
place = "{472, 76}";
type = Stem;
}
);
layerId = "8B4EFE1E-6C47-485C-9646-016EA71CC488";
paths = (
{
closed = 1;
nodes = (
"49 114 OFFCURVE",
"172 -12 OFFCURVE",
"344 -12 CURVE SMOOTH",
"432 -12 OFFCURVE",
"505 22 OFFCURVE",
"548 64 CURVE",
"548 340 LINE",
"333 340 LINE",
"333 271 LINE",
"472 271 LINE",
"472 100 LINE",
"446 76 OFFCURVE",
"400 61 OFFCURVE",
"353 61 CURVE SMOOTH",
"213 61 OFFCURVE",
"135 165 OFFCURVE",
"135 330 CURVE SMOOTH",
"135 493 OFFCURVE",
"220 595 OFFCURVE",
"353 595 CURVE SMOOTH",
"418 595 OFFCURVE",
"459 569 OFFCURVE",
"492 534 CURVE",
"540 587 LINE",
"501 627 OFFCURVE",
"441 668 OFFCURVE",
"352 668 CURVE SMOOTH",
"176 668 OFFCURVE",
"49 539 OFFCURVE",
"49 328 CURVE SMOOTH"
);
},
{
closed = 1;
nodes = (
"431 708 OFFCURVE",
"467 762 OFFCURVE",
"474 818 CURVE",
"424 818 LINE",
"418 786 OFFCURVE",
"396 755 OFFCURVE",
"351 755 CURVE SMOOTH",
"306 755 OFFCURVE",
"284 786 OFFCURVE",
"278 818 CURVE",
"228 818 LINE",
"235 762 OFFCURVE",
"271 708 OFFCURVE",
"351 708 CURVE SMOOTH"
);
}
);
width = 612;
}
);
leftKerningGroup = C;
note = Gbreve;
rightKerningGroup = G;
unicode = 011E;
},
{
glyphname = Gdotaccent;
layers = (
{
hints = (
{
horizontal = 1;
place = "{-12, 73}";
type = Stem;
},
{
horizontal = 1;
place = "{271, 69}";
type = Stem;
},
{
horizontal = 1;
place = "{595, 73}";
type = Stem;
},
{
horizontal = 1;
place = "{714, 107}";
type = Stem;
},
{
place = "{49, 86}";
type = Stem;
},
{
place = "{294, 114}";
type = Stem;
},
{
place = "{472, 76}";
type = Stem;
}
);
layerId = "8B4EFE1E-6C47-485C-9646-016EA71CC488";
paths = (
{
closed = 1;
nodes = (
"49 114 OFFCURVE",
"172 -12 OFFCURVE",
"344 -12 CURVE SMOOTH",
"432 -12 OFFCURVE",
"505 22 OFFCURVE",
"548 64 CURVE",
"548 340 LINE",
"333 340 LINE",
"333 271 LINE",
"472 271 LINE",
"472 100 LINE",
"446 76 OFFCURVE",
"400 61 OFFCURVE",
"353 61 CURVE SMOOTH",
"213 61 OFFCURVE",
"135 165 OFFCURVE",
"135 330 CURVE SMOOTH",
"135 493 OFFCURVE",
"220 595 OFFCURVE",
"353 595 CURVE SMOOTH",
"418 595 OFFCURVE",
"459 569 OFFCURVE",
"492 534 CURVE",
"540 587 LINE",
"501 627 OFFCURVE",
"441 668 OFFCURVE",
"352 668 CURVE SMOOTH",
"176 668 OFFCURVE",
"49 539 OFFCURVE",
"49 328 CURVE SMOOTH"
);
},
{
closed = 1;
nodes = (
"383 714 OFFCURVE",
"408 736 OFFCURVE",
"408 768 CURVE SMOOTH",
"408 799 OFFCURVE",
"383 821 OFFCURVE",
"351 821 CURVE SMOOTH",
"319 821 OFFCURVE",
"294 799 OFFCURVE",
"294 768 CURVE SMOOTH",
"294 736 OFFCURVE",
"319 714 OFFCURVE",
"351 714 CURVE SMOOTH"
);
}
);
width = 612;
}
);
leftKerningGroup = C;
note = Gdotaccent;
rightKerningGroup = G;
unicode = 0120;
},
{
glyphname = uni0122;
layers = (
{
hints = (
{
horizontal = 1;
place = "{-216, 40}";
type = Stem;
},
{
horizontal = 1;
place = "{-12, 73}";
type = Stem;
},
{
horizontal = 1;
place = "{271, 69}";
type = Stem;
},
{
horizontal = 1;
place = "{595, 73}";
type = Stem;
},
{
place = "{49, 86}";
type = Stem;
},
{
place = "{350, 64}";
type = Stem;
},
{
place = "{472, 76}";
type = Stem;
}
);
layerId = "8B4EFE1E-6C47-485C-9646-016EA71CC488";
paths = (
{
closed = 1;
nodes = (
"49 114 OFFCURVE",
"172 -12 OFFCURVE",
"344 -12 CURVE SMOOTH",
"432 -12 OFFCURVE",
"505 22 OFFCURVE",
"548 64 CURVE",
"548 340 LINE",
"333 340 LINE",
"333 271 LINE",
"472 271 LINE",
"472 100 LINE",
"446 76 OFFCURVE",
"400 61 OFFCURVE",
"353 61 CURVE SMOOTH",
"213 61 OFFCURVE",
"135 165 OFFCURVE",
"135 330 CURVE SMOOTH",
"135 493 OFFCURVE",
"220 595 OFFCURVE",
"353 595 CURVE SMOOTH",
"418 595 OFFCURVE",
"459 569 OFFCURVE",
"492 534 CURVE",
"540 587 LINE",
"501 627 OFFCURVE",
"441 668 OFFCURVE",
"352 668 CURVE SMOOTH",
"176 668 OFFCURVE",
"49 539 OFFCURVE",
"49 328 CURVE SMOOTH"
);
},
{
closed = 1;
nodes = (
"299 -86 LINE",
"327 -93 OFFCURVE",
"350 -104 OFFCURVE",
"350 -130 CURVE SMOOTH",
"350 -156 OFFCURVE",
"313 -169 OFFCURVE",
"261 -176 CURVE",
"269 -216 LINE",
"345 -210 OFFCURVE",
"414 -183 OFFCURVE",
"414 -125 CURVE SMOOTH",
"414 -80 OFFCURVE",
"384 -58 OFFCURVE",
"317 -48 CURVE"
);
}
);
width = 612;
}
);
leftKerningGroup = C;
note = uni0122;
rightKerningGroup = G;
unicode = 0122;
},
{
glyphname = Gcaron;
layers = (
{
hints = (
{
horizontal = 1;
place = "{-12, 73}";
type = Stem;
},
{
horizontal = 1;
place = "{271, 69}";
type = Stem;
},
{
horizontal = 1;
place = "{595, 73}";
type = Stem;
},
{
horizontal = 1;
place = "{706, 112}";
type = Stem;
},
{
place = "{49, 86}";
type = Stem;
},
{
place = "{472, 76}";
type = Stem;
}
);
layerId = "8B4EFE1E-6C47-485C-9646-016EA71CC488";
paths = (
{
closed = 1;
nodes = (
"49 114 OFFCURVE",
"172 -12 OFFCURVE",
"344 -12 CURVE SMOOTH",
"432 -12 OFFCURVE",
"505 22 OFFCURVE",
"548 64 CURVE",
"548 340 LINE",
"333 340 LINE",
"333 271 LINE",
"472 271 LINE",
"472 100 LINE",
"446 76 OFFCURVE",
"400 61 OFFCURVE",
"353 61 CURVE SMOOTH",
"213 61 OFFCURVE",
"135 165 OFFCURVE",
"135 330 CURVE SMOOTH",
"135 493 OFFCURVE",
"220 595 OFFCURVE",
"353 595 CURVE SMOOTH",
"418 595 OFFCURVE",
"459 569 OFFCURVE",
"492 534 CURVE",
"540 587 LINE",
"501 627 OFFCURVE",
"441 668 OFFCURVE",
"352 668 CURVE SMOOTH",
"176 668 OFFCURVE",
"49 539 OFFCURVE",
"49 328 CURVE SMOOTH"
);
},
{
closed = 1;
nodes = (
"420 818 LINE",
"353 750 LINE",
"349 750 LINE",
"282 818 LINE",
"215 818 LINE",
"311 706 LINE",
"391 706 LINE",
"487 818 LINE"
);
}
);
width = 612;
}
);
leftKerningGroup = C;
note = Gcaron;
rightKerningGroup = G;
unicode = 01E6;
},
{
glyphname = uni1E20;
layers = (
{
hints = (
{
horizontal = 1;
place = "{-12, 73}";
type = Stem;
},
{
horizontal = 1;
place = "{271, 69}";
type = Stem;
},
{
horizontal = 1;
place = "{595, 73}";
type = Stem;
},
{
horizontal = 1;
place = "{729, 57}";
type = Stem;
},
{
place = "{49, 86}";
type = Stem;
},
{
place = "{472, 76}";
type = Stem;
},
{
place = "{227, 248}";
type = Stem;
}
);
layerId = "8B4EFE1E-6C47-485C-9646-016EA71CC488";
paths = (
{
closed = 1;
nodes = (
"49 114 OFFCURVE",
"172 -12 OFFCURVE",
"344 -12 CURVE SMOOTH",
"432 -12 OFFCURVE",
"505 22 OFFCURVE",
"548 64 CURVE",
"548 340 LINE",
"333 340 LINE",
"333 271 LINE",
"472 271 LINE",
"472 100 LINE",
"446 76 OFFCURVE",
"400 61 OFFCURVE",
"353 61 CURVE SMOOTH",
"213 61 OFFCURVE",
"135 165 OFFCURVE",
"135 330 CURVE SMOOTH",
"135 493 OFFCURVE",
"220 595 OFFCURVE",
"353 595 CURVE SMOOTH",
"418 595 OFFCURVE",
"459 569 OFFCURVE",
"492 534 CURVE",
"540 587 LINE",
"501 627 OFFCURVE",
"441 668 OFFCURVE",
"352 668 CURVE SMOOTH",
"176 668 OFFCURVE",
"49 539 OFFCURVE",
"49 328 CURVE SMOOTH"
);
},
{
closed = 1;
nodes = (
"227 729 LINE",
"475 729 LINE",
"475 786 LINE",
"227 786 LINE"
);
}
);
width = 612;
}
);
leftKerningGroup = C;
note = uni1E20;
rightKerningGroup = G;
unicode = 1E20;
},
{
glyphname = uni00470303;
layers = (
{
hints = (
{
horizontal = 1;
place = "{-12, 73}";
type = Stem;
},
{
horizontal = 1;
place = "{271, 69}";
type = Stem;
},
{
horizontal = 1;
place = "{595, 73}";
type = Stem;
},
{
horizontal = 1;
place = "{763, 56}";
type = Stem;
},
{
place = "{49, 86}";
type = Stem;
},
{
place = "{472, 76}";
type = Stem;
},
{
horizontal = 1;
place = "{711, 56}";
type = Stem;
},
{
place = "{450, 46}";
type = Stem;
},
{
place = "{207, 45}";
type = Stem;
}
);
layerId = "8B4EFE1E-6C47-485C-9646-016EA71CC488";
paths = (
{
closed = 1;
nodes = (
"49 114 OFFCURVE",
"172 -12 OFFCURVE",
"344 -12 CURVE SMOOTH",
"432 -12 OFFCURVE",
"505 22 OFFCURVE",
"548 64 CURVE",
"548 340 LINE",
"333 340 LINE",
"333 271 LINE",
"472 271 LINE",
"472 100 LINE",
"446 76 OFFCURVE",
"400 61 OFFCURVE",
"353 61 CURVE SMOOTH",
"213 61 OFFCURVE",
"135 165 OFFCURVE",
"135 330 CURVE SMOOTH",
"135 493 OFFCURVE",
"220 595 OFFCURVE",
"353 595 CURVE SMOOTH",
"418 595 OFFCURVE",
"459 569 OFFCURVE",
"492 534 CURVE",
"540 587 LINE",
"501 627 OFFCURVE",
"441 668 OFFCURVE",
"352 668 CURVE SMOOTH",
"176 668 OFFCURVE",
"49 539 OFFCURVE",
"49 328 CURVE SMOOTH"
);
},
{
closed = 1;
nodes = (
"459 711 OFFCURVE",
"490 758 OFFCURVE",
"496 819 CURVE",
"450 819 LINE",
"445 786 OFFCURVE",
"429 767 OFFCURVE",
"410 767 CURVE SMOOTH",
"373 767 OFFCURVE",
"344 819 OFFCURVE",
"291 819 CURVE SMOOTH",
"243 819 OFFCURVE",
"212 773 OFFCURVE",
"207 711 CURVE",
"252 711 LINE",
"258 745 OFFCURVE",
"273 763 OFFCURVE",
"293 763 CURVE SMOOTH",
"329 763 OFFCURVE",
"359 711 OFFCURVE",
"411 711 CURVE SMOOTH"
);
}
);
width = 612;
}
);
leftKerningGroup = C;
note = uni00470303;
rightKerningGroup = G;
},
{
glyphname = Hcircumflex;
layers = (
{
hints = (
{
horizontal = 1;
place = "{0, 21}";
target = up;
type = BottomGhost;
},
{
horizontal = 1;
place = "{309, 72}";
type = Stem;
},
{
horizontal = 1;
place = "{656, -20}";
target = down;
type = TopGhost;
},
{
horizontal = 1;
place = "{706, 112}";
type = Stem;
},
{
place = "{87, 84}";
type = Stem;
},
{
place = "{476, 83}";
type = Stem;
}
);
layerId = "8B4EFE1E-6C47-485C-9646-016EA71CC488";
paths = (
{
closed = 1;
nodes = (
"87 0 LINE",
"171 0 LINE",
"171 309 LINE",
"476 309 LINE",
"476 0 LINE",
"559 0 LINE",
"559 656 LINE",
"476 656 LINE",
"476 381 LINE",
"171 381 LINE",
"171 656 LINE",
"87 656 LINE"
);
},
{
closed = 1;
nodes = (
"254 706 LINE",
"321 774 LINE",
"325 774 LINE",
"392 706 LINE",
"459 706 LINE",
"363 818 LINE",
"283 818 LINE",
"187 706 LINE"
);
}
);
width = 647;
}
);
note = Hcircumflex;
unicode = 0124;
},
{
glyphname = uni1E24;
layers = (
{
hints = (
{
horizontal = 1;
place = "{-206, 107}";
type = Stem;
},
{
horizontal = 1;
place = "{0, 21}";
target = up;
type = BottomGhost;
},
{
horizontal = 1;
place = "{309, 72}";
type = Stem;
},
{
horizontal = 1;
place = "{656, -20}";
target = down;
type = TopGhost;
},
{
place = "{87, 84}";
type = Stem;
},
{
place = "{269, 108}";
type = Stem;
},
{
place = "{476, 83}";
type = Stem;
}
);
layerId = "8B4EFE1E-6C47-485C-9646-016EA71CC488";
paths = (
{
closed = 1;
nodes = (
"87 0 LINE",
"171 0 LINE",
"171 309 LINE",
"476 309 LINE",
"476 0 LINE",
"559 0 LINE",
"559 656 LINE",
"476 656 LINE",
"476 381 LINE",
"171 381 LINE",
"171 656 LINE",
"87 656 LINE"
);
},
{
closed = 1;
nodes = (
"354 -206 OFFCURVE",
"377 -184 OFFCURVE",
"377 -152 CURVE SMOOTH",
"377 -121 OFFCURVE",
"354 -99 OFFCURVE",
"323 -99 CURVE SMOOTH",
"292 -99 OFFCURVE",
"269 -121 OFFCURVE",
"269 -152 CURVE SMOOTH",
"269 -184 OFFCURVE",
"292 -206 OFFCURVE",
"323 -206 CURVE SMOOTH"
);
}
);
width = 647;
}
);
note = uni1E24;
unicode = 1E24;
},
{
glyphname = uni1E2A;
layers = (
{
hints = (
{
horizontal = 1;
place = "{-206, 51}";
type = Stem;
},
{
horizontal = 1;
place = "{0, 21}";
target = up;
type = BottomGhost;
},
{
horizontal = 1;
place = "{309, 72}";
type = Stem;
},
{
horizontal = 1;
place = "{656, -20}";
target = down;
type = TopGhost;
},
{
place = "{87, 84}";
type = Stem;
},
{
place = "{476, 83}";
type = Stem;
},
{
place = "{197, 51}";
type = Stem;
},
{
place = "{398, 51}";
type = Stem;
}
);
layerId = "8B4EFE1E-6C47-485C-9646-016EA71CC488";
paths = (
{
closed = 1;
nodes = (
"87 0 LINE",
"171 0 LINE",
"171 309 LINE",
"476 309 LINE",
"476 0 LINE",
"559 0 LINE",
"559 656 LINE",
"476 656 LINE",
"476 381 LINE",
"171 381 LINE",
"171 656 LINE",
"87 656 LINE"
);
},
{
closed = 1;
nodes = (
"409 -206 OFFCURVE",
"445 -138 OFFCURVE",
"449 -79 CURVE",
"398 -79 LINE",
"393 -118 OFFCURVE",
"370 -155 OFFCURVE",
"323 -155 CURVE SMOOTH",
"276 -155 OFFCURVE",
"253 -118 OFFCURVE",
"248 -79 CURVE",
"197 -79 LINE",
"201 -138 OFFCURVE",
"237 -206 OFFCURVE",
"323 -206 CURVE SMOOTH"
);
}
);
width = 647;
}
);
note = uni1E2A;
unicode = 1E2A;
},
{
glyphname = Hbar;
layers = (
{
hints = (
{
horizontal = 1;
place = "{0, 21}";
target = up;
type = BottomGhost;
},
{
horizontal = 1;
place = "{309, 72}";
type = Stem;
},
{
horizontal = 1;
place = "{492, 47}";
type = Stem;
},
{
place = "{105, 83}";
type = Stem;
},
{
place = "{493, 84}";
type = Stem;
},
{
horizontal = 1;
place = "{492, 164}";
type = Stem;
}
);
layerId = "8B4EFE1E-6C47-485C-9646-016EA71CC488";
paths = (
{
closed = 1;
nodes = (
"493 381 LINE",
"188 381 LINE",
"188 492 LINE",
"493 492 LINE"
);
},
{
closed = 1;
nodes = (
"652 539 LINE",
"577 539 LINE",
"577 656 LINE",
"493 656 LINE",
"493 539 LINE",
"188 539 LINE",
"188 656 LINE",
"105 656 LINE",
"105 539 LINE",
"30 534 LINE",
"30 492 LINE",
"105 492 LINE",
"105 0 LINE",
"188 0 LINE",
"188 309 LINE",
"493 309 LINE",
"493 0 LINE",
"577 0 LINE",
"577 492 LINE",
"652 492 LINE"
);
}
);
width = 682;
}
);
note = Hbar;
unicode = 0126;
},
{
glyphname = Igrave;
layers = (
{
hints = (
{
horizontal = 1;
place = "{0, 21}";
target = up;
type = BottomGhost;
},
{
horizontal = 1;
place = "{656, -20}";
target = down;
type = TopGhost;
},
{
horizontal = 1;
place = "{706, 112}";
type = Stem;
},
{
place = "{87, 84}";
type = Stem;
}
);
layerId = "8B4EFE1E-6C47-485C-9646-016EA71CC488";
paths = (
{
closed = 1;
nodes = (
"87 0 LINE",
"171 0 LINE",
"171 656 LINE",
"87 656 LINE"
);
},
{
closed = 1;
nodes = (
"111 706 LINE",
"180 706 LINE",
"92 818 LINE",
"-2 818 LINE"
);
}
);
width = 258;
}
);
note = Igrave;
unicode = 00CC;
},
{
glyphname = Iacute;
layers = (
{
hints = (
{
horizontal = 1;
place = "{0, 21}";
target = up;
type = BottomGhost;
},
{
horizontal = 1;
place = "{656, -20}";
target = down;
type = TopGhost;
},
{
horizontal = 1;
place = "{706, 112}";
type = Stem;
},
{
place = "{87, 84}";
type = Stem;
}
);
layerId = "8B4EFE1E-6C47-485C-9646-016EA71CC488";
paths = (
{
closed = 1;
nodes = (
"87 0 LINE",
"171 0 LINE",
"171 656 LINE",
"87 656 LINE"
);
},
{
closed = 1;
nodes = (
"260 818 LINE",
"166 818 LINE",
"78 706 LINE",
"147 706 LINE"
);
}
);
width = 258;
}
);
note = Iacute;
unicode = 00CD;
},
{
glyphname = Icircumflex;
layers = (
{
hints = (
{
horizontal = 1;
place = "{0, 21}";
target = up;
type = BottomGhost;
},
{
horizontal = 1;
place = "{656, -20}";
target = down;
type = TopGhost;
},
{
horizontal = 1;
place = "{706, 112}";
type = Stem;
},
{
place = "{87, 84}";
type = Stem;
}
);
layerId = "8B4EFE1E-6C47-485C-9646-016EA71CC488";
paths = (
{
closed = 1;
nodes = (
"87 0 LINE",
"171 0 LINE",
"171 656 LINE",
"87 656 LINE"
);
},
{
closed = 1;
nodes = (
"60 706 LINE",
"127 774 LINE",
"131 774 LINE",
"198 706 LINE",
"265 706 LINE",
"169 818 LINE",
"89 818 LINE",
"-7 706 LINE"
);
}
);
width = 258;
}
);
note = Icircumflex;
unicode = 00CE;
},
{
glyphname = Itilde;
layers = (
{
hints = (
{
horizontal = 1;
place = "{0, 21}";
target = up;
type = BottomGhost;
},
{
horizontal = 1;
place = "{656, -20}";
target = down;
type = TopGhost;
},
{
horizontal = 1;
place = "{711, 56}";
type = Stem;
},
{
place = "{-16, 46}";
type = Stem;
},
{
place = "{87, 84}";
type = Stem;
},
{
place = "{228, 46}";
type = Stem;
},
{
horizontal = 1;
place = "{763, 56}";
type = Stem;
}
);
layerId = "8B4EFE1E-6C47-485C-9646-016EA71CC488";
paths = (
{
closed = 1;
nodes = (
"87 0 LINE",
"171 0 LINE",
"171 656 LINE",
"87 656 LINE"
);
},
{
closed = 1;
nodes = (
"237 711 OFFCURVE",
"268 758 OFFCURVE",
"274 819 CURVE",
"228 819 LINE",
"223 786 OFFCURVE",
"207 767 OFFCURVE",
"187 767 CURVE SMOOTH",
"151 767 OFFCURVE",
"121 819 OFFCURVE",
"69 819 CURVE SMOOTH",
"21 819 OFFCURVE",
"-10 773 OFFCURVE",
"-16 711 CURVE",
"30 711 LINE",
"35 745 OFFCURVE",
"51 763 OFFCURVE",
"70 763 CURVE SMOOTH",
"107 763 OFFCURVE",
"136 711 OFFCURVE",
"189 711 CURVE SMOOTH"
);
}
);
width = 258;
}
);
note = Itilde;
unicode = 0128;
},
{
glyphname = Idieresis;
layers = (
{
hints = (
{
horizontal = 1;
place = "{0, 21}";
target = up;
type = BottomGhost;
},
{
horizontal = 1;
place = "{656, -20}";
target = down;
type = TopGhost;
},
{
horizontal = 1;
place = "{715, 98}";
type = Stem;
},
{
place = "{87, 84}";
type = Stem;
},
{
place = "{-6, 98}";
type = Stem;
},
{
place = "{166, 98}";
type = Stem;
}
);
layerId = "8B4EFE1E-6C47-485C-9646-016EA71CC488";
paths = (
{
closed = 1;
nodes = (
"87 0 LINE",
"171 0 LINE",
"171 656 LINE",
"87 656 LINE"
);
},
{
closed = 1;
nodes = (
"71 715 OFFCURVE",
"92 736 OFFCURVE",
"92 764 CURVE SMOOTH",
"92 793 OFFCURVE",
"71 813 OFFCURVE",
"43 813 CURVE SMOOTH",
"14 813 OFFCURVE",
"-6 793 OFFCURVE",
"-6 764 CURVE SMOOTH",
"-6 736 OFFCURVE",
"14 715 OFFCURVE",
"43 715 CURVE SMOOTH"
);
},
{
closed = 1;
nodes = (
"244 715 OFFCURVE",
"264 736 OFFCURVE",
"264 764 CURVE SMOOTH",
"264 793 OFFCURVE",
"244 813 OFFCURVE",
"215 813 CURVE SMOOTH",
"187 813 OFFCURVE",
"166 793 OFFCURVE",
"166 764 CURVE SMOOTH",
"166 736 OFFCURVE",
"187 715 OFFCURVE",
"215 715 CURVE SMOOTH"
);
}
);
width = 258;
}
);
note = Idieresis;
unicode = 00CF;
},
{
glyphname = Imacron;
layers = (
{
hints = (
{
horizontal = 1;
place = "{0, 21}";
target = up;
type = BottomGhost;
},
{
horizontal = 1;
place = "{656, -20}";
target = down;
type = TopGhost;
},
{
horizontal = 1;
place = "{729, 57}";
type = Stem;
},
{
place = "{87, 84}";
type = Stem;
}
);
layerId = "8B4EFE1E-6C47-485C-9646-016EA71CC488";
paths = (
{
closed = 1;
nodes = (
"87 0 LINE",
"171 0 LINE",
"171 656 LINE",
"87 656 LINE"
);
},
{
closed = 1;
nodes = (
"5 729 LINE",
"253 729 LINE",
"253 786 LINE",
"5 786 LINE"
);
}
);
width = 258;
}
);
note = Imacron;
unicode = 012A;
},
{
glyphname = Idotaccent;
layers = (
{
hints = (
{
horizontal = 1;
place = "{0, 21}";
target = up;
type = BottomGhost;
},
{
horizontal = 1;
place = "{656, -20}";
target = down;
type = TopGhost;
},
{
horizontal = 1;
place = "{714, 107}";
type = Stem;
},
{
place = "{87, 84}";
type = Stem;
}
);
layerId = "8B4EFE1E-6C47-485C-9646-016EA71CC488";
paths = (
{
closed = 1;
nodes = (
"87 0 LINE",
"171 0 LINE",
"171 656 LINE",
"87 656 LINE"
);
},
{
closed = 1;
nodes = (
"161 714 OFFCURVE",
"186 736 OFFCURVE",
"186 768 CURVE SMOOTH",
"186 799 OFFCURVE",
"161 821 OFFCURVE",
"129 821 CURVE SMOOTH",
"97 821 OFFCURVE",
"72 799 OFFCURVE",
"72 768 CURVE SMOOTH",
"72 736 OFFCURVE",
"97 714 OFFCURVE",
"129 714 CURVE SMOOTH"
);
}
);
width = 258;
}
);
note = Idotaccent;
unicode = 0130;
},
{
glyphname = uni01CF;
layers = (
{
hints = (
{
horizontal = 1;
place = "{0, 21}";
target = up;
type = BottomGhost;
},
{
horizontal = 1;
place = "{656, -20}";
target = down;
type = TopGhost;
},
{
horizontal = 1;
place = "{706, 112}";
type = Stem;
},
{
place = "{87, 84}";
type = Stem;
}
);
layerId = "8B4EFE1E-6C47-485C-9646-016EA71CC488";
paths = (
{
closed = 1;
nodes = (
"87 0 LINE",
"171 0 LINE",
"171 656 LINE",
"87 656 LINE"
);
},
{
closed = 1;
nodes = (
"198 818 LINE",
"131 750 LINE",
"127 750 LINE",
"60 818 LINE",
"-7 818 LINE",
"89 706 LINE",
"169 706 LINE",
"265 818 LINE"
);
}
);
width = 258;
}
);
note = uni01CF;
unicode = 01CF;
},
{
glyphname = uni1EC8;
layers = (
{
hints = (
{
horizontal = 1;
place = "{0, 21}";
target = up;
type = BottomGhost;
},
{
horizontal = 1;
place = "{656, -20}";
target = down;
type = TopGhost;
},
{
horizontal = 1;
place = "{824, 48}";
type = Stem;
},
{
place = "{87, 84}";
type = Stem;
},
{
place = "{148, 64}";
type = Stem;
}
);
layerId = "8B4EFE1E-6C47-485C-9646-016EA71CC488";
paths = (
{
closed = 1;
nodes = (
"87 0 LINE",
"171 0 LINE",
"171 656 LINE",
"87 656 LINE"
);
},
{
closed = 1;
nodes = (
"101 698 LINE",
"159 708 OFFCURVE",
"212 733 OFFCURVE",
"212 791 CURVE SMOOTH",
"212 842 OFFCURVE",
"161 869 OFFCURVE",
"74 872 CURVE",
"65 824 LINE",
"120 822 OFFCURVE",
"148 808 OFFCURVE",
"148 782 CURVE SMOOTH",
"148 757 OFFCURVE",
"124 745 OFFCURVE",
"92 736 CURVE"
);
}
);
width = 258;
}
);
note = uni1EC8;
unicode = 1EC8;
},
{
glyphname = uni1ECA;
layers = (
{
hints = (
{
horizontal = 1;
place = "{-206, 107}";
type = Stem;
},
{
horizontal = 1;
place = "{0, 21}";
target = up;
type = BottomGhost;
},
{
horizontal = 1;
place = "{656, -20}";
target = down;
type = TopGhost;
},
{
place = "{87, 84}";
type = Stem;
},
{
place = "{75, 109}";
type = Stem;
}
);
layerId = "8B4EFE1E-6C47-485C-9646-016EA71CC488";
paths = (
{
closed = 1;
nodes = (
"87 0 LINE",
"171 0 LINE",
"171 656 LINE",
"87 656 LINE"
);
},
{
closed = 1;
nodes = (
"161 -206 OFFCURVE",
"184 -184 OFFCURVE",
"184 -152 CURVE SMOOTH",
"184 -121 OFFCURVE",
"161 -99 OFFCURVE",
"130 -99 CURVE SMOOTH",
"98 -99 OFFCURVE",
"75 -121 OFFCURVE",
"75 -152 CURVE SMOOTH",
"75 -184 OFFCURVE",
"98 -206 OFFCURVE",
"130 -206 CURVE SMOOTH"
);
}
);
width = 258;
}
);
note = uni1ECA;
unicode = 1ECA;
},
{
glyphname = Iogonek;
layers = (
{
hints = (
{
horizontal = 1;
place = "{-212, 59}";
type = Stem;
},
{
horizontal = 1;
place = "{0, 21}";
target = up;
type = BottomGhost;
},
{
horizontal = 1;
place = "{656, -20}";
target = down;
type = TopGhost;
},
{
place = "{87, 84}";
type = Stem;
},
{
place = "{41, 64}";
type = Stem;
}
);
layerId = "8B4EFE1E-6C47-485C-9646-016EA71CC488";
paths = (
{
closed = 1;
nodes = (
"87 0 LINE",
"107 0 LINE",
"75 -29 OFFCURVE",
"41 -68 OFFCURVE",
"41 -125 CURVE SMOOTH",
"41 -182 OFFCURVE",
"83 -212 OFFCURVE",
"136 -212 CURVE SMOOTH",
"163 -212 OFFCURVE",
"197 -199 OFFCURVE",
"216 -184 CURVE",
"193 -139 LINE",
"181 -148 OFFCURVE",
"169 -153 OFFCURVE",
"153 -153 CURVE SMOOTH",
"129 -153 OFFCURVE",
"105 -138 OFFCURVE",
"105 -107 CURVE SMOOTH",
"105 -66 OFFCURVE",
"129 -32 OFFCURVE",
"171 0 CURVE",
"171 656 LINE",
"87 656 LINE"
);
}
);
width = 258;
}
);
note = Iogonek;
unicode = 012E;
},
{
glyphname = Jcircumflex;
layers = (
{
hints = (
{
horizontal = 1;
place = "{-12, 73}";
type = Stem;
},
{
horizontal = 1;
place = "{656, -20}";
target = down;
type = TopGhost;
},
{
horizontal = 1;
place = "{706, 112}";
type = Stem;
},
{
place = "{307, 83}";
type = Stem;
}
);
layerId = "8B4EFE1E-6C47-485C-9646-016EA71CC488";
paths = (
{
closed = 1;
nodes = (
"29 93 LINE",
"67 24 OFFCURVE",
"126 -12 OFFCURVE",
"209 -12 CURVE SMOOTH",
"338 -12 OFFCURVE",
"390 80 OFFCURVE",
"390 193 CURVE SMOOTH",
"390 656 LINE",
"307 656 LINE",
"307 201 LINE SMOOTH",
"307 101 OFFCURVE",
"272 61 OFFCURVE",
"202 61 CURVE SMOOTH",
"155 61 OFFCURVE",
"118 83 OFFCURVE",
"88 135 CURVE"
);
},
{
closed = 1;
nodes = (
"276 706 LINE",
"343 774 LINE",
"347 774 LINE",
"414 706 LINE",
"481 706 LINE",
"385 818 LINE",
"305 818 LINE",
"209 706 LINE"
);
}
);
width = 474;
}
);
leftKerningGroup = J;
note = Jcircumflex;
rightKerningGroup = J;
unicode = 0134;
},
{
glyphname = uni0136;
layers = (
{
hints = (
{
horizontal = 1;
place = "{-216, 40}";
type = Stem;
},
{
horizontal = 1;
place = "{0, 21}";
target = up;
type = BottomGhost;
},
{
horizontal = 1;
place = "{656, -20}";
target = down;
type = TopGhost;
},
{
place = "{87, 84}";
type = Stem;
},
{
place = "{327, 64}";
type = Stem;
}
);
layerId = "8B4EFE1E-6C47-485C-9646-016EA71CC488";
paths = (
{
closed = 1;
nodes = (
"87 0 LINE",
"171 0 LINE",
"171 208 LINE",
"283 341 LINE",
"479 0 LINE",
"572 0 LINE",
"335 406 LINE",
"541 656 LINE",
"446 656 LINE",
"173 327 LINE",
"171 327 LINE",
"171 656 LINE",
"87 656 LINE"
);
},
{
closed = 1;
nodes = (
"276 -86 LINE",
"305 -93 OFFCURVE",
"327 -104 OFFCURVE",
"327 -130 CURVE SMOOTH",
"327 -156 OFFCURVE",
"291 -169 OFFCURVE",
"239 -176 CURVE",
"247 -216 LINE",
"322 -210 OFFCURVE",
"391 -183 OFFCURVE",
"391 -125 CURVE SMOOTH",
"391 -80 OFFCURVE",
"362 -58 OFFCURVE",
"294 -48 CURVE"
);
}
);
width = 574;
}
);
note = uni0136;
rightKerningGroup = K;
unicode = 0136;
},
{
glyphname = Lacute;
layers = (
{
hints = (
{
horizontal = 1;
place = "{0, 71}";
type = Stem;
},
{
horizontal = 1;
place = "{656, -20}";
target = down;
type = TopGhost;
},
{
horizontal = 1;
place = "{706, 112}";
type = Stem;
},
{
place = "{87, 84}";
type = Stem;
}
);
layerId = "8B4EFE1E-6C47-485C-9646-016EA71CC488";
paths = (
{
closed = 1;
nodes = (
"87 0 LINE",
"457 0 LINE",
"457 71 LINE",
"171 71 LINE",
"171 656 LINE",
"87 656 LINE"
);
},
{
closed = 1;
nodes = (
"263 818 LINE",
"169 818 LINE",
"81 706 LINE",
"150 706 LINE"
);
}
);
width = 481;
}
);
note = Lacute;
rightKerningGroup = L;
unicode = 0139;
},
{
glyphname = Lcaron;
layers = (
{
hints = (
{
horizontal = 1;
place = "{0, 71}";
type = Stem;
},
{
horizontal = 1;
place = "{656, -20}";
target = down;
type = TopGhost;
},
{
place = "{87, 84}";
type = Stem;
},
{
place = "{329, 49}";
type = Stem;
},
{
horizontal = 1;
place = "{514, 212}";
type = Stem;
}
);
layerId = "8B4EFE1E-6C47-485C-9646-016EA71CC488";
paths = (
{
closed = 1;
nodes = (
"87 0 LINE",
"457 0 LINE",
"457 71 LINE",
"171 71 LINE",
"171 656 LINE",
"87 656 LINE"
);
},
{
closed = 1;
nodes = (
"371 514 LINE",
"385 669 LINE",
"386 726 LINE",
"327 726 LINE",
"331 514 LINE"
);
}
);
width = 481;
}
);
note = Lcaron;
rightKerningGroup = Lcaron;
unicode = 013D;
},
{
glyphname = uni013B;
layers = (
{
hints = (
{
horizontal = 1;
place = "{-216, 40}";
type = Stem;
},
{
horizontal = 1;
place = "{0, 71}";
type = Stem;
},
{
horizontal = 1;
place = "{656, -20}";
target = down;
type = TopGhost;
},
{
place = "{87, 84}";
type = Stem;
},
{
place = "{289, 64}";
type = Stem;
}
);
layerId = "8B4EFE1E-6C47-485C-9646-016EA71CC488";
paths = (
{
closed = 1;
nodes = (
"87 0 LINE",
"457 0 LINE",
"457 71 LINE",
"171 71 LINE",
"171 656 LINE",
"87 656 LINE"
);
},
{
closed = 1;
nodes = (
"238 -86 LINE",
"267 -93 OFFCURVE",
"289 -104 OFFCURVE",
"289 -130 CURVE SMOOTH",
"289 -156 OFFCURVE",
"253 -169 OFFCURVE",
"201 -176 CURVE",
"209 -216 LINE",
"284 -210 OFFCURVE",
"353 -183 OFFCURVE",
"353 -125 CURVE SMOOTH",
"353 -80 OFFCURVE",
"324 -58 OFFCURVE",
"256 -48 CURVE"
);
}
);
width = 481;
}
);
note = uni013B;
rightKerningGroup = L;
unicode = 013B;
},
{
glyphname = Ldot;
layers = (
{
hints = (
{
horizontal = 1;
place = "{0, 71}";
type = Stem;
},
{
horizontal = 1;
place = "{263, 125}";
type = Stem;
},
{
horizontal = 1;
place = "{656, -20}";
target = down;
type = TopGhost;
},
{
place = "{87, 84}";
type = Stem;
},
{
place = "{315, 119}";
type = Stem;
}
);
layerId = "8B4EFE1E-6C47-485C-9646-016EA71CC488";
paths = (
{
closed = 1;
nodes = (
"87 0 LINE",
"457 0 LINE",
"457 71 LINE",
"171 71 LINE",
"171 656 LINE",
"87 656 LINE"
);
},
{
closed = 1;
nodes = (
"315 288 OFFCURVE",
"342 263 OFFCURVE",
"374 263 CURVE SMOOTH",
"407 263 OFFCURVE",
"434 288 OFFCURVE",
"434 325 CURVE SMOOTH",
"434 363 OFFCURVE",
"407 388 OFFCURVE",
"374 388 CURVE SMOOTH",
"342 388 OFFCURVE",
"315 363 OFFCURVE",
"315 325 CURVE SMOOTH"
);
}
);
width = 481;
}
);
note = Ldot;
rightKerningGroup = L;
unicode = 013F;
},
{
glyphname = uni1E36;
layers = (
{
hints = (
{
horizontal = 1;
place = "{-206, 107}";
type = Stem;
},
{
horizontal = 1;
place = "{0, 71}";
type = Stem;
},
{
horizontal = 1;
place = "{656, -20}";
target = down;
type = TopGhost;
},
{
place = "{87, 84}";
type = Stem;
},
{
place = "{231, 108}";
type = Stem;
}
);
layerId = "8B4EFE1E-6C47-485C-9646-016EA71CC488";
paths = (
{
closed = 1;
nodes = (
"87 0 LINE",
"457 0 LINE",
"457 71 LINE",
"171 71 LINE",
"171 656 LINE",
"87 656 LINE"
);
},
{
closed = 1;
nodes = (
"317 -206 OFFCURVE",
"339 -184 OFFCURVE",
"339 -152 CURVE SMOOTH",
"339 -121 OFFCURVE",
"317 -99 OFFCURVE",
"285 -99 CURVE SMOOTH",
"254 -99 OFFCURVE",
"231 -121 OFFCURVE",
"231 -152 CURVE SMOOTH",
"231 -184 OFFCURVE",
"254 -206 OFFCURVE",
"285 -206 CURVE SMOOTH"
);
}
);
width = 481;
}
);
note = uni1E36;
rightKerningGroup = L;
unicode = 1E36;
},
{
glyphname = uni1E38;
layers = (
{
hints = (
{
horizontal = 1;
place = "{-206, 107}";
type = Stem;
},
{
horizontal = 1;
place = "{0, 71}";
type = Stem;
},
{
horizontal = 1;
place = "{656, -20}";
target = down;
type = TopGhost;
},
{
horizontal = 1;
place = "{729, 57}";
type = Stem;
},
{
place = "{87, 84}";
type = Stem;
},
{
place = "{231, 108}";
type = Stem;
}
);
layerId = "8B4EFE1E-6C47-485C-9646-016EA71CC488";
paths = (
{
closed = 1;
nodes = (
"87 0 LINE",
"457 0 LINE",
"457 71 LINE",
"171 71 LINE",
"171 656 LINE",
"87 656 LINE"
);
},
{
closed = 1;
nodes = (
"8 729 LINE",
"256 729 LINE",
"256 786 LINE",
"8 786 LINE"
);
},
{
closed = 1;
nodes = (
"317 -206 OFFCURVE",
"339 -184 OFFCURVE",
"339 -152 CURVE SMOOTH",
"339 -121 OFFCURVE",
"317 -99 OFFCURVE",
"285 -99 CURVE SMOOTH",
"254 -99 OFFCURVE",
"231 -121 OFFCURVE",
"231 -152 CURVE SMOOTH",
"231 -184 OFFCURVE",
"254 -206 OFFCURVE",
"285 -206 CURVE SMOOTH"
);
}
);
width = 481;
}
);
note = uni1E38;
rightKerningGroup = L;
unicode = 1E38;
},
{
glyphname = uni1E3A;
layers = (
{
hints = (
{
horizontal = 1;
place = "{-171, 58}";
type = Stem;
},
{
horizontal = 1;
place = "{0, 71}";
type = Stem;
},
{
horizontal = 1;
place = "{656, -20}";
target = down;
type = TopGhost;
},
{
place = "{87, 84}";
type = Stem;
},
{
place = "{162, 246}";
type = Stem;
}
);
layerId = "8B4EFE1E-6C47-485C-9646-016EA71CC488";
paths = (
{
closed = 1;
nodes = (
"87 0 LINE",
"457 0 LINE",
"457 71 LINE",
"171 71 LINE",
"171 656 LINE",
"87 656 LINE"
);
},
{
closed = 1;
nodes = (
"408 -113 LINE",
"162 -113 LINE",
"162 -171 LINE",
"408 -171 LINE"
);
}
);
width = 481;
}
);
note = uni1E3A;
rightKerningGroup = L;
unicode = 1E3A;
},
{
glyphname = Lslash;
layers = (
{
hints = (
{
horizontal = 1;
place = "{0, 71}";
type = Stem;
},
{
horizontal = 1;
place = "{656, -20}";
target = down;
type = TopGhost;
},
{
place = "{90, 84}";
type = Stem;
}
);
layerId = "8B4EFE1E-6C47-485C-9646-016EA71CC488";
paths = (
{
closed = 1;
nodes = (
"174 71 LINE",
"174 277 LINE",
"362 377 LINE",
"362 445 LINE",
"174 344 LINE",
"174 656 LINE",
"90 656 LINE",
"90 303 LINE",
"10 261 LINE",
"10 194 LINE",
"90 236 LINE",
"90 0 LINE",
"460 0 LINE",
"460 71 LINE"
);
}
);
width = 484;
}
);
note = Lslash;
rightKerningGroup = L;
unicode = 0141;
},
{
glyphname = uni1E42;
layers = (
{
hints = (
{
horizontal = 1;
place = "{-206, 107}";
type = Stem;
},
{
horizontal = 1;
place = "{0, 21}";
target = up;
type = BottomGhost;
},
{
horizontal = 1;
place = "{66, 104}";
type = Stem;
},
{
horizontal = 1;
place = "{555, 101}";
type = Stem;
},
{
place = "{87, 77}";
type = Stem;
},
{
place = "{308, 108}";
type = Stem;
},
{
place = "{555, 79}";
type = Stem;
}
);
layerId = "8B4EFE1E-6C47-485C-9646-016EA71CC488";
paths = (
{
closed = 1;
nodes = (
"87 0 LINE",
"164 0 LINE",
"164 361 LINE SMOOTH",
"164 419 OFFCURVE",
"158 497 OFFCURVE",
"154 555 CURVE",
"158 555 LINE",
"210 409 LINE",
"336 66 LINE",
"384 66 LINE",
"510 409 LINE",
"562 555 LINE",
"566 555 LINE",
"562 497 OFFCURVE",
"555 419 OFFCURVE",
"555 361 CURVE SMOOTH",
"555 0 LINE",
"634 0 LINE",
"634 656 LINE",
"536 656 LINE",
"410 304 LINE",
"364 170 LINE",
"360 170 LINE",
"313 304 LINE",
"186 656 LINE",
"87 656 LINE"
);
},
{
closed = 1;
nodes = (
"393 -206 OFFCURVE",
"416 -184 OFFCURVE",
"416 -152 CURVE SMOOTH",
"416 -121 OFFCURVE",
"393 -99 OFFCURVE",
"362 -99 CURVE SMOOTH",
"331 -99 OFFCURVE",
"308 -121 OFFCURVE",
"308 -152 CURVE SMOOTH",
"308 -184 OFFCURVE",
"331 -206 OFFCURVE",
"362 -206 CURVE SMOOTH"
);
}
);
width = 722;
}
);
note = uni1E42;
unicode = 1E42;
},
{
glyphname = Nacute;
layers = (
{
hints = (
{
horizontal = 1;
place = "{0, 21}";
target = up;
type = BottomGhost;
},
{
horizontal = 1;
place = "{656, -20}";
target = down;
type = TopGhost;
},
{
horizontal = 1;
place = "{706, 112}";
type = Stem;
},
{
place = "{87, 79}";
type = Stem;
},
{
place = "{475, 79}";
type = Stem;
},
{
horizontal = 1;
place = "{548, 108}";
type = Stem;
},
{
horizontal = 1;
place = "{0, 108}";
type = Stem;
}
);
layerId = "8B4EFE1E-6C47-485C-9646-016EA71CC488";
paths = (
{
closed = 1;
nodes = (
"87 0 LINE",
"166 0 LINE",
"166 343 LINE SMOOTH",
"166 412 OFFCURVE",
"160 482 OFFCURVE",
"156 548 CURVE",
"160 548 LINE",
"231 413 LINE",
"468 0 LINE",
"554 0 LINE",
"554 656 LINE",
"475 656 LINE",
"475 317 LINE SMOOTH",
"475 248 OFFCURVE",
"482 174 OFFCURVE",
"486 108 CURVE",
"482 108 LINE",
"411 244 LINE",
"173 656 LINE",
"87 656 LINE"
);
},
{
closed = 1;
nodes = (
"455 818 LINE",
"361 818 LINE",
"273 706 LINE",
"342 706 LINE"
);
}
);
width = 642;
}
);
note = Nacute;
unicode = 0143;
},
{
glyphname = Ncaron;
layers = (
{
hints = (
{
horizontal = 1;
place = "{0, 21}";
target = up;
type = BottomGhost;
},
{
horizontal = 1;
place = "{656, -20}";
target = down;
type = TopGhost;
},
{
horizontal = 1;
place = "{706, 112}";
type = Stem;
},
{
place = "{87, 79}";
type = Stem;
},
{
place = "{475, 79}";
type = Stem;
},
{
horizontal = 1;
place = "{548, 108}";
type = Stem;
},
{
horizontal = 1;
place = "{0, 108}";
type = Stem;
}
);
layerId = "8B4EFE1E-6C47-485C-9646-016EA71CC488";
paths = (
{
closed = 1;
nodes = (
"87 0 LINE",
"166 0 LINE",
"166 343 LINE SMOOTH",
"166 412 OFFCURVE",
"160 482 OFFCURVE",
"156 548 CURVE",
"160 548 LINE",
"231 413 LINE",
"468 0 LINE",
"554 0 LINE",
"554 656 LINE",
"475 656 LINE",
"475 317 LINE SMOOTH",
"475 248 OFFCURVE",
"482 174 OFFCURVE",
"486 108 CURVE",
"482 108 LINE",
"411 244 LINE",
"173 656 LINE",
"87 656 LINE"
);
},
{
closed = 1;
nodes = (
"393 818 LINE",
"326 750 LINE",
"322 750 LINE",
"255 818 LINE",
"188 818 LINE",
"284 706 LINE",
"364 706 LINE",
"460 818 LINE"
);
}
);
width = 642;
}
);
note = Ncaron;
unicode = 0147;
},
{
glyphname = Ntilde;
layers = (
{
hints = (
{
horizontal = 1;
place = "{0, 21}";
target = up;
type = BottomGhost;
},
{
horizontal = 1;
place = "{656, -20}";
target = down;
type = TopGhost;
},
{
horizontal = 1;
place = "{763, 56}";
type = Stem;
},
{
place = "{87, 79}";
type = Stem;
},
{
place = "{475, 79}";
type = Stem;
},
{
horizontal = 1;
place = "{548, 108}";
type = Stem;
},
{
horizontal = 1;
place = "{0, 108}";
type = Stem;
},
{
horizontal = 1;
place = "{711, 56}";
type = Stem;
},
{
place = "{423, 46}";
type = Stem;
},
{
place = "{179, 46}";
type = Stem;
}
);
layerId = "8B4EFE1E-6C47-485C-9646-016EA71CC488";
paths = (
{
closed = 1;
nodes = (
"87 0 LINE",
"166 0 LINE",
"166 343 LINE SMOOTH",
"166 412 OFFCURVE",
"160 482 OFFCURVE",
"156 548 CURVE",
"160 548 LINE",
"231 413 LINE",
"468 0 LINE",
"554 0 LINE",
"554 656 LINE",
"475 656 LINE",
"475 317 LINE SMOOTH",
"475 248 OFFCURVE",
"482 174 OFFCURVE",
"486 108 CURVE",
"482 108 LINE",
"411 244 LINE",
"173 656 LINE",
"87 656 LINE"
);
},
{
closed = 1;
nodes = (
"432 711 OFFCURVE",
"463 758 OFFCURVE",
"469 819 CURVE",
"423 819 LINE",
"418 786 OFFCURVE",
"402 767 OFFCURVE",
"383 767 CURVE SMOOTH",
"346 767 OFFCURVE",
"317 819 OFFCURVE",
"264 819 CURVE SMOOTH",
"216 819 OFFCURVE",
"185 773 OFFCURVE",
"179 711 CURVE",
"225 711 LINE",
"230 745 OFFCURVE",
"246 763 OFFCURVE",
"265 763 CURVE SMOOTH",
"302 763 OFFCURVE",
"331 711 OFFCURVE",
"384 711 CURVE SMOOTH"
);
}
);
width = 642;
}
);
note = Ntilde;
unicode = 00D1;
},
{
glyphname = uni0145;
layers = (
{
hints = (
{
horizontal = 1;
place = "{-216, 40}";
type = Stem;
},
{
horizontal = 1;
place = "{0, 21}";
target = up;
type = BottomGhost;
},
{
horizontal = 1;
place = "{656, -20}";
target = down;
type = TopGhost;
},
{
place = "{87, 79}";
type = Stem;
},
{
place = "{475, 79}";
type = Stem;
},
{
horizontal = 1;
place = "{548, 108}";
type = Stem;
},
{
horizontal = 1;
place = "{0, 108}";
type = Stem;
},
{
place = "{329, 64}";
type = Stem;
}
);
layerId = "8B4EFE1E-6C47-485C-9646-016EA71CC488";
paths = (
{
closed = 1;
nodes = (
"87 0 LINE",
"166 0 LINE",
"166 343 LINE SMOOTH",
"166 412 OFFCURVE",
"160 482 OFFCURVE",
"156 548 CURVE",
"160 548 LINE",
"231 413 LINE",
"468 0 LINE",
"554 0 LINE",
"554 656 LINE",
"475 656 LINE",
"475 317 LINE SMOOTH",
"475 248 OFFCURVE",
"482 174 OFFCURVE",
"486 108 CURVE",
"482 108 LINE",
"411 244 LINE",
"173 656 LINE",
"87 656 LINE"
);
},
{
closed = 1;
nodes = (
"278 -86 LINE",
"307 -93 OFFCURVE",
"329 -104 OFFCURVE",
"329 -130 CURVE SMOOTH",
"329 -156 OFFCURVE",
"293 -169 OFFCURVE",
"241 -176 CURVE",
"249 -216 LINE",
"324 -210 OFFCURVE",
"393 -183 OFFCURVE",
"393 -125 CURVE SMOOTH",
"393 -80 OFFCURVE",
"364 -58 OFFCURVE",
"296 -48 CURVE"
);
}
);
width = 642;
}
);
note = uni0145;
unicode = 0145;
},
{
glyphname = uni1E44;
layers = (
{
hints = (
{
horizontal = 1;
place = "{0, 21}";
target = up;
type = BottomGhost;
},
{
horizontal = 1;
place = "{656, -20}";
target = down;
type = TopGhost;
},
{
horizontal = 1;
place = "{714, 107}";
type = Stem;
},
{
place = "{87, 79}";
type = Stem;
},
{
place = "{475, 79}";
type = Stem;
},
{
horizontal = 1;
place = "{548, 108}";
type = Stem;
},
{
horizontal = 1;
place = "{0, 108}";
type = Stem;
},
{
place = "{267, 114}";
type = Stem;
}
);
layerId = "8B4EFE1E-6C47-485C-9646-016EA71CC488";
paths = (
{
closed = 1;
nodes = (
"87 0 LINE",
"166 0 LINE",
"166 343 LINE SMOOTH",
"166 412 OFFCURVE",
"160 482 OFFCURVE",
"156 548 CURVE",
"160 548 LINE",
"231 413 LINE",
"468 0 LINE",
"554 0 LINE",
"554 656 LINE",
"475 656 LINE",
"475 317 LINE SMOOTH",
"475 248 OFFCURVE",
"482 174 OFFCURVE",
"486 108 CURVE",
"482 108 LINE",
"411 244 LINE",
"173 656 LINE",
"87 656 LINE"
);
},
{
closed = 1;
nodes = (
"356 714 OFFCURVE",
"381 736 OFFCURVE",
"381 768 CURVE SMOOTH",
"381 799 OFFCURVE",
"356 821 OFFCURVE",
"324 821 CURVE SMOOTH",
"292 821 OFFCURVE",
"267 799 OFFCURVE",
"267 768 CURVE SMOOTH",
"267 736 OFFCURVE",
"292 714 OFFCURVE",
"324 714 CURVE SMOOTH"
);
}
);
width = 642;
}
);
note = uni1E44;
unicode = 1E44;
},
{
glyphname = uni1E46;
layers = (
{
hints = (
{
horizontal = 1;
place = "{-206, 107}";
type = Stem;
},
{
horizontal = 1;
place = "{0, 21}";
target = up;
type = BottomGhost;
},
{
horizontal = 1;
place = "{656, -20}";
target = down;
type = TopGhost;
},
{
place = "{87, 79}";
type = Stem;
},
{
place = "{475, 79}";
type = Stem;
},
{
horizontal = 1;
place = "{548, 108}";
type = Stem;
},
{
horizontal = 1;
place = "{0, 108}";
type = Stem;
},
{
place = "{271, 108}";
type = Stem;
}
);
layerId = "8B4EFE1E-6C47-485C-9646-016EA71CC488";
paths = (
{
closed = 1;
nodes = (
"87 0 LINE",
"166 0 LINE",
"166 343 LINE SMOOTH",
"166 412 OFFCURVE",
"160 482 OFFCURVE",
"156 548 CURVE",
"160 548 LINE",
"231 413 LINE",
"468 0 LINE",
"554 0 LINE",
"554 656 LINE",
"475 656 LINE",
"475 317 LINE SMOOTH",
"475 248 OFFCURVE",
"482 174 OFFCURVE",
"486 108 CURVE",
"482 108 LINE",
"411 244 LINE",
"173 656 LINE",
"87 656 LINE"
);
},
{
closed = 1;
nodes = (
"357 -206 OFFCURVE",
"379 -184 OFFCURVE",
"379 -152 CURVE SMOOTH",
"379 -121 OFFCURVE",
"357 -99 OFFCURVE",
"325 -99 CURVE SMOOTH",
"294 -99 OFFCURVE",
"271 -121 OFFCURVE",
"271 -152 CURVE SMOOTH",
"271 -184 OFFCURVE",
"294 -206 OFFCURVE",
"325 -206 CURVE SMOOTH"
);
}
);
width = 642;
}
);
note = uni1E46;
unicode = 1E46;
},
{
glyphname = uni1E48;
layers = (
{
hints = (
{
horizontal = 1;
place = "{-171, 58}";
type = Stem;
},
{
horizontal = 1;
place = "{0, 21}";
target = up;
type = BottomGhost;
},
{
horizontal = 1;
place = "{656, -20}";
target = down;
type = TopGhost;
},
{
place = "{87, 79}";
type = Stem;
},
{
place = "{475, 79}";
type = Stem;
},
{
horizontal = 1;
place = "{548, 108}";
type = Stem;
},
{
horizontal = 1;
place = "{0, 108}";
type = Stem;
},
{
place = "{202, 246}";
type = Stem;
}
);
layerId = "8B4EFE1E-6C47-485C-9646-016EA71CC488";
paths = (
{
closed = 1;
nodes = (
"87 0 LINE",
"166 0 LINE",
"166 343 LINE SMOOTH",
"166 412 OFFCURVE",
"160 482 OFFCURVE",
"156 548 CURVE",
"160 548 LINE",
"231 413 LINE",
"468 0 LINE",
"554 0 LINE",
"554 656 LINE",
"475 656 LINE",
"475 317 LINE SMOOTH",
"475 248 OFFCURVE",
"482 174 OFFCURVE",
"486 108 CURVE",
"482 108 LINE",
"411 244 LINE",
"173 656 LINE",
"87 656 LINE"
);
},
{
closed = 1;
nodes = (
"448 -113 LINE",
"202 -113 LINE",
"202 -171 LINE",
"448 -171 LINE"
);
}
);
width = 642;
}
);
note = uni1E48;
unicode = 1E48;
},
{
glyphname = Ograve;
layers = (
{
hints = (
{
horizontal = 1;
place = "{-12, 73}";
type = Stem;
},
{
horizontal = 1;
place = "{595, 73}";
type = Stem;
},
{
horizontal = 1;
place = "{706, 112}";
type = Stem;
},
{
place = "{49, 86}";
type = Stem;
},
{
place = "{524, 86}";
type = Stem;
}
);
layerId = "8B4EFE1E-6C47-485C-9646-016EA71CC488";
paths = (
{
closed = 1;
nodes = (
"494 -12 OFFCURVE",
"610 120 OFFCURVE",
"610 331 CURVE SMOOTH",
"610 540 OFFCURVE",
"494 668 OFFCURVE",
"330 668 CURVE SMOOTH",
"165 668 OFFCURVE",
"49 541 OFFCURVE",
"49 331 CURVE SMOOTH",
"49 120 OFFCURVE",
"165 -12 OFFCURVE",
"330 -12 CURVE SMOOTH"
);
},
{
closed = 1;
nodes = (
"212 61 OFFCURVE",
"135 167 OFFCURVE",
"135 331 CURVE SMOOTH",
"135 494 OFFCURVE",
"212 595 OFFCURVE",
"330 595 CURVE SMOOTH",
"447 595 OFFCURVE",
"524 494 OFFCURVE",
"524 331 CURVE SMOOTH",
"524 167 OFFCURVE",
"447 61 OFFCURVE",
"330 61 CURVE SMOOTH"
);
},
{
closed = 1;
nodes = (
"312 706 LINE",
"381 706 LINE",
"293 818 LINE",
"199 818 LINE"
);
}
);
width = 659;
}
);
leftKerningGroup = C;
note = Ograve;
rightKerningGroup = D;
unicode = 00D2;
},
{
glyphname = Oacute;
layers = (
{
hints = (
{
horizontal = 1;
place = "{-12, 73}";
type = Stem;
},
{
horizontal = 1;
place = "{595, 73}";
type = Stem;
},
{
horizontal = 1;
place = "{706, 112}";
type = Stem;
},
{
place = "{49, 86}";
type = Stem;
},
{
place = "{524, 86}";
type = Stem;
}
);
layerId = "8B4EFE1E-6C47-485C-9646-016EA71CC488";
paths = (
{
closed = 1;
nodes = (
"494 -12 OFFCURVE",
"610 120 OFFCURVE",
"610 331 CURVE SMOOTH",
"610 540 OFFCURVE",
"494 668 OFFCURVE",
"330 668 CURVE SMOOTH",
"165 668 OFFCURVE",
"49 541 OFFCURVE",
"49 331 CURVE SMOOTH",
"49 120 OFFCURVE",
"165 -12 OFFCURVE",
"330 -12 CURVE SMOOTH"
);
},
{
closed = 1;
nodes = (
"212 61 OFFCURVE",
"135 167 OFFCURVE",
"135 331 CURVE SMOOTH",
"135 494 OFFCURVE",
"212 595 OFFCURVE",
"330 595 CURVE SMOOTH",
"447 595 OFFCURVE",
"524 494 OFFCURVE",
"524 331 CURVE SMOOTH",
"524 167 OFFCURVE",
"447 61 OFFCURVE",
"330 61 CURVE SMOOTH"
);
},
{
closed = 1;
nodes = (
"461 818 LINE",
"367 818 LINE",
"278 706 LINE",
"347 706 LINE"
);
}
);
width = 659;
}
);
leftKerningGroup = C;
note = Oacute;
rightKerningGroup = D;
unicode = 00D3;
},
{
glyphname = Ocircumflex;
layers = (
{
hints = (
{
horizontal = 1;
place = "{-12, 73}";
type = Stem;
},
{
horizontal = 1;
place = "{595, 73}";
type = Stem;
},
{
horizontal = 1;
place = "{706, 112}";
type = Stem;
},
{
place = "{49, 86}";
type = Stem;
},
{
place = "{524, 86}";
type = Stem;
}
);
layerId = "8B4EFE1E-6C47-485C-9646-016EA71CC488";
paths = (
{
closed = 1;
nodes = (
"494 -12 OFFCURVE",
"610 120 OFFCURVE",
"610 331 CURVE SMOOTH",
"610 540 OFFCURVE",
"494 668 OFFCURVE",
"330 668 CURVE SMOOTH",
"165 668 OFFCURVE",
"49 541 OFFCURVE",
"49 331 CURVE SMOOTH",
"49 120 OFFCURVE",
"165 -12 OFFCURVE",
"330 -12 CURVE SMOOTH"
);
},
{
closed = 1;
nodes = (
"212 61 OFFCURVE",
"135 167 OFFCURVE",
"135 331 CURVE SMOOTH",
"135 494 OFFCURVE",
"212 595 OFFCURVE",
"330 595 CURVE SMOOTH",
"447 595 OFFCURVE",
"524 494 OFFCURVE",
"524 331 CURVE SMOOTH",
"524 167 OFFCURVE",
"447 61 OFFCURVE",
"330 61 CURVE SMOOTH"
);
},
{
closed = 1;
nodes = (
"261 706 LINE",
"328 774 LINE",
"332 774 LINE",
"399 706 LINE",
"465 706 LINE",
"369 818 LINE",
"290 818 LINE",
"194 706 LINE"
);
}
);
width = 659;
}
);
leftKerningGroup = C;
note = Ocircumflex;
rightKerningGroup = D;
unicode = 00D4;
},
{
glyphname = Otilde;
layers = (
{
hints = (
{
horizontal = 1;
place = "{-12, 73}";
type = Stem;
},
{
horizontal = 1;
place = "{595, 73}";
type = Stem;
},
{
horizontal = 1;
place = "{763, 56}";
type = Stem;
},
{
place = "{49, 86}";
type = Stem;
},
{
place = "{524, 86}";
type = Stem;
},
{
horizontal = 1;
place = "{711, 56}";
type = Stem;
},
{
place = "{185, 46}";
type = Stem;
},
{
place = "{429, 45}";
type = Stem;
}
);
layerId = "8B4EFE1E-6C47-485C-9646-016EA71CC488";
paths = (
{
closed = 1;
nodes = (
"494 -12 OFFCURVE",
"610 120 OFFCURVE",
"610 331 CURVE SMOOTH",
"610 540 OFFCURVE",
"494 668 OFFCURVE",
"330 668 CURVE SMOOTH",
"165 668 OFFCURVE",
"49 541 OFFCURVE",
"49 331 CURVE SMOOTH",
"49 120 OFFCURVE",
"165 -12 OFFCURVE",
"330 -12 CURVE SMOOTH"
);
},
{
closed = 1;
nodes = (
"212 61 OFFCURVE",
"135 167 OFFCURVE",
"135 331 CURVE SMOOTH",
"135 494 OFFCURVE",
"212 595 OFFCURVE",
"330 595 CURVE SMOOTH",
"447 595 OFFCURVE",
"524 494 OFFCURVE",
"524 331 CURVE SMOOTH",
"524 167 OFFCURVE",
"447 61 OFFCURVE",
"330 61 CURVE SMOOTH"
);
},
{
closed = 1;
nodes = (
"437 711 OFFCURVE",
"468 758 OFFCURVE",
"474 819 CURVE",
"429 819 LINE",
"423 786 OFFCURVE",
"408 767 OFFCURVE",
"388 767 CURVE SMOOTH",
"351 767 OFFCURVE",
"322 819 OFFCURVE",
"269 819 CURVE SMOOTH",
"222 819 OFFCURVE",
"191 773 OFFCURVE",
"185 711 CURVE",
"231 711 LINE",
"236 745 OFFCURVE",
"251 763 OFFCURVE",
"271 763 CURVE SMOOTH",
"308 763 OFFCURVE",
"337 711 OFFCURVE",
"390 711 CURVE SMOOTH"
);
}
);
width = 659;
}
);
leftKerningGroup = C;
note = Otilde;
rightKerningGroup = D;
unicode = 00D5;
},
{
glyphname = Odieresis;
layers = (
{
hints = (
{
horizontal = 1;
place = "{-12, 73}";
type = Stem;
},
{
horizontal = 1;
place = "{595, 73}";
type = Stem;
},
{
horizontal = 1;
place = "{715, 98}";
type = Stem;
},
{
place = "{49, 86}";
type = Stem;
},
{
place = "{194, 98}";
type = Stem;
},
{
place = "{367, 98}";
type = Stem;
},
{
place = "{524, 86}";
type = Stem;
}
);
layerId = "8B4EFE1E-6C47-485C-9646-016EA71CC488";
paths = (
{
closed = 1;
nodes = (
"494 -12 OFFCURVE",
"610 120 OFFCURVE",
"610 331 CURVE SMOOTH",
"610 540 OFFCURVE",
"494 668 OFFCURVE",
"330 668 CURVE SMOOTH",
"165 668 OFFCURVE",
"49 541 OFFCURVE",
"49 331 CURVE SMOOTH",
"49 120 OFFCURVE",
"165 -12 OFFCURVE",
"330 -12 CURVE SMOOTH"
);
},
{
closed = 1;
nodes = (
"212 61 OFFCURVE",
"135 167 OFFCURVE",
"135 331 CURVE SMOOTH",
"135 494 OFFCURVE",
"212 595 OFFCURVE",
"330 595 CURVE SMOOTH",
"447 595 OFFCURVE",
"524 494 OFFCURVE",
"524 331 CURVE SMOOTH",
"524 167 OFFCURVE",
"447 61 OFFCURVE",
"330 61 CURVE SMOOTH"
);
},
{
closed = 1;
nodes = (
"272 715 OFFCURVE",
"292 736 OFFCURVE",
"292 764 CURVE SMOOTH",
"292 793 OFFCURVE",
"272 813 OFFCURVE",
"243 813 CURVE SMOOTH",
"215 813 OFFCURVE",
"194 793 OFFCURVE",
"194 764 CURVE SMOOTH",
"194 736 OFFCURVE",
"215 715 OFFCURVE",
"243 715 CURVE SMOOTH"
);
},
{
closed = 1;
nodes = (
"444 715 OFFCURVE",
"465 736 OFFCURVE",
"465 764 CURVE SMOOTH",
"465 793 OFFCURVE",
"444 813 OFFCURVE",
"416 813 CURVE SMOOTH",
"388 813 OFFCURVE",
"367 793 OFFCURVE",
"367 764 CURVE SMOOTH",
"367 736 OFFCURVE",
"388 715 OFFCURVE",
"416 715 CURVE SMOOTH"
);
}
);
width = 659;
}
);
leftKerningGroup = C;
note = Odieresis;
rightKerningGroup = D;
unicode = 00D6;
},
{
glyphname = Omacron;
layers = (
{
hints = (
{
horizontal = 1;
place = "{-12, 73}";
type = Stem;
},
{
horizontal = 1;
place = "{595, 73}";
type = Stem;
},
{
horizontal = 1;
place = "{729, 57}";
type = Stem;
},
{
place = "{49, 86}";
type = Stem;
},
{
place = "{206, 248}";
type = Stem;
},
{
place = "{524, 86}";
type = Stem;
}
);
layerId = "8B4EFE1E-6C47-485C-9646-016EA71CC488";
paths = (
{
closed = 1;
nodes = (
"494 -12 OFFCURVE",
"610 120 OFFCURVE",
"610 331 CURVE SMOOTH",
"610 540 OFFCURVE",
"494 668 OFFCURVE",
"330 668 CURVE SMOOTH",
"165 668 OFFCURVE",
"49 541 OFFCURVE",
"49 331 CURVE SMOOTH",
"49 120 OFFCURVE",
"165 -12 OFFCURVE",
"330 -12 CURVE SMOOTH"
);
},
{
closed = 1;
nodes = (
"212 61 OFFCURVE",
"135 167 OFFCURVE",
"135 331 CURVE SMOOTH",
"135 494 OFFCURVE",
"212 595 OFFCURVE",
"330 595 CURVE SMOOTH",
"447 595 OFFCURVE",
"524 494 OFFCURVE",
"524 331 CURVE SMOOTH",
"524 167 OFFCURVE",
"447 61 OFFCURVE",
"330 61 CURVE SMOOTH"
);
},
{
closed = 1;
nodes = (
"206 729 LINE",
"454 729 LINE",
"454 786 LINE",
"206 786 LINE"
);
}
);
width = 659;
}
);
leftKerningGroup = C;
note = Omacron;
rightKerningGroup = D;
unicode = 014C;
},
{
glyphname = Ohungarumlaut;
layers = (
{
hints = (
{
horizontal = 1;
place = "{-12, 73}";
type = Stem;
},
{
horizontal = 1;
place = "{595, 73}";
type = Stem;
},
{
horizontal = 1;
place = "{706, 112}";
type = Stem;
},
{
place = "{49, 86}";
type = Stem;
},
{
place = "{524, 86}";
type = Stem;
}
);
layerId = "8B4EFE1E-6C47-485C-9646-016EA71CC488";
paths = (
{
closed = 1;
nodes = (
"494 -12 OFFCURVE",
"610 120 OFFCURVE",
"610 331 CURVE SMOOTH",
"610 540 OFFCURVE",
"494 668 OFFCURVE",
"330 668 CURVE SMOOTH",
"165 668 OFFCURVE",
"49 541 OFFCURVE",
"49 331 CURVE SMOOTH",
"49 120 OFFCURVE",
"165 -12 OFFCURVE",
"330 -12 CURVE SMOOTH"
);
},
{
closed = 1;
nodes = (
"212 61 OFFCURVE",
"135 167 OFFCURVE",
"135 331 CURVE SMOOTH",
"135 494 OFFCURVE",
"212 595 OFFCURVE",
"330 595 CURVE SMOOTH",
"447 595 OFFCURVE",
"524 494 OFFCURVE",
"524 331 CURVE SMOOTH",
"524 167 OFFCURVE",
"447 61 OFFCURVE",
"330 61 CURVE SMOOTH"
);
},
{
closed = 1;
nodes = (
"280 706 LINE",
"364 818 LINE",
"287 818 LINE",
"221 706 LINE"
);
},
{
closed = 1;
nodes = (
"378 706 LINE",
"438 706 LINE",
"521 818 LINE",
"444 818 LINE"
);
}
);
width = 659;
}
);
leftKerningGroup = C;
note = Ohungarumlaut;
rightKerningGroup = D;
unicode = 0150;
},
{
glyphname = uni01D1;
layers = (
{
hints = (
{
horizontal = 1;
place = "{-12, 73}";
type = Stem;
},
{
horizontal = 1;
place = "{595, 73}";
type = Stem;
},
{
horizontal = 1;
place = "{706, 112}";
type = Stem;
},
{
place = "{49, 86}";
type = Stem;
},
{
place = "{524, 86}";
type = Stem;
}
);
layerId = "8B4EFE1E-6C47-485C-9646-016EA71CC488";
paths = (
{
closed = 1;
nodes = (
"494 -12 OFFCURVE",
"610 120 OFFCURVE",
"610 331 CURVE SMOOTH",
"610 540 OFFCURVE",
"494 668 OFFCURVE",
"330 668 CURVE SMOOTH",
"165 668 OFFCURVE",
"49 541 OFFCURVE",
"49 331 CURVE SMOOTH",
"49 120 OFFCURVE",
"165 -12 OFFCURVE",
"330 -12 CURVE SMOOTH"
);
},
{
closed = 1;
nodes = (
"212 61 OFFCURVE",
"135 167 OFFCURVE",
"135 331 CURVE SMOOTH",
"135 494 OFFCURVE",
"212 595 OFFCURVE",
"330 595 CURVE SMOOTH",
"447 595 OFFCURVE",
"524 494 OFFCURVE",
"524 331 CURVE SMOOTH",
"524 167 OFFCURVE",
"447 61 OFFCURVE",
"330 61 CURVE SMOOTH"
);
},
{
closed = 1;
nodes = (
"399 818 LINE",
"332 750 LINE",
"328 750 LINE",
"261 818 LINE",
"194 818 LINE",
"290 706 LINE",
"369 706 LINE",
"465 818 LINE"
);
}
);
width = 659;
}
);
leftKerningGroup = C;
note = uni01D1;
rightKerningGroup = D;
unicode = 01D1;
},
{
glyphname = uni1ECC;
layers = (
{
hints = (
{
horizontal = 1;
place = "{-206, 107}";
type = Stem;
},
{
horizontal = 1;
place = "{-12, 73}";
type = Stem;
},
{
horizontal = 1;
place = "{595, 73}";
type = Stem;
},
{
place = "{49, 86}";
type = Stem;
},
{
place = "{275, 109}";
type = Stem;
},
{
place = "{524, 86}";
type = Stem;
}
);
layerId = "8B4EFE1E-6C47-485C-9646-016EA71CC488";
paths = (
{
closed = 1;
nodes = (
"494 -12 OFFCURVE",
"610 120 OFFCURVE",
"610 331 CURVE SMOOTH",
"610 540 OFFCURVE",
"494 668 OFFCURVE",
"330 668 CURVE SMOOTH",
"165 668 OFFCURVE",
"49 541 OFFCURVE",
"49 331 CURVE SMOOTH",
"49 120 OFFCURVE",
"165 -12 OFFCURVE",
"330 -12 CURVE SMOOTH"
);
},
{
closed = 1;
nodes = (
"212 61 OFFCURVE",
"135 167 OFFCURVE",
"135 331 CURVE SMOOTH",
"135 494 OFFCURVE",
"212 595 OFFCURVE",
"330 595 CURVE SMOOTH",
"447 595 OFFCURVE",
"524 494 OFFCURVE",
"524 331 CURVE SMOOTH",
"524 167 OFFCURVE",
"447 61 OFFCURVE",
"330 61 CURVE SMOOTH"
);
},
{
closed = 1;
nodes = (
"361 -206 OFFCURVE",
"384 -184 OFFCURVE",
"384 -152 CURVE SMOOTH",
"384 -121 OFFCURVE",
"361 -99 OFFCURVE",
"330 -99 CURVE SMOOTH",
"298 -99 OFFCURVE",
"275 -121 OFFCURVE",
"275 -152 CURVE SMOOTH",
"275 -184 OFFCURVE",
"298 -206 OFFCURVE",
"330 -206 CURVE SMOOTH"
);
}
);
width = 659;
}
);
leftKerningGroup = C;
note = uni1ECC;
rightKerningGroup = D;
unicode = 1ECC;
},
{
glyphname = uni1ECE;
layers = (
{
hints = (
{
horizontal = 1;
place = "{-12, 73}";
type = Stem;
},
{
horizontal = 1;
place = "{595, 73}";
type = Stem;
},
{
horizontal = 1;
place = "{824, 48}";
type = Stem;
},
{
place = "{49, 86}";
type = Stem;
},
{
place = "{349, 63}";
type = Stem;
},
{
place = "{524, 86}";
type = Stem;
}
);
layerId = "8B4EFE1E-6C47-485C-9646-016EA71CC488";
paths = (
{
closed = 1;
nodes = (
"494 -12 OFFCURVE",
"610 120 OFFCURVE",
"610 331 CURVE SMOOTH",
"610 540 OFFCURVE",
"494 668 OFFCURVE",
"330 668 CURVE SMOOTH",
"165 668 OFFCURVE",
"49 541 OFFCURVE",
"49 331 CURVE SMOOTH",
"49 120 OFFCURVE",
"165 -12 OFFCURVE",
"330 -12 CURVE SMOOTH"
);
},
{
closed = 1;
nodes = (
"212 61 OFFCURVE",
"135 167 OFFCURVE",
"135 331 CURVE SMOOTH",
"135 494 OFFCURVE",
"212 595 OFFCURVE",
"330 595 CURVE SMOOTH",
"447 595 OFFCURVE",
"524 494 OFFCURVE",
"524 331 CURVE SMOOTH",
"524 167 OFFCURVE",
"447 61 OFFCURVE",
"330 61 CURVE SMOOTH"
);
},
{
closed = 1;
nodes = (
"302 698 LINE",
"360 708 OFFCURVE",
"412 733 OFFCURVE",
"412 791 CURVE SMOOTH",
"412 842 OFFCURVE",
"362 869 OFFCURVE",
"274 872 CURVE",
"266 824 LINE",
"321 822 OFFCURVE",
"349 808 OFFCURVE",
"349 782 CURVE SMOOTH",
"349 757 OFFCURVE",
"324 745 OFFCURVE",
"292 736 CURVE"
);
}
);
width = 659;
}
);
leftKerningGroup = C;
note = uni1ECE;
rightKerningGroup = D;
unicode = 1ECE;
},
{
glyphname = uni1ED0;
layers = (
{
hints = (
{
horizontal = 1;
place = "{-12, 73}";
type = Stem;
},
{
horizontal = 1;
place = "{595, 73}";
type = Stem;
},
{
horizontal = 1;
place = "{706, 106}";
type = Stem;
},
{
place = "{49, 86}";
type = Stem;
},
{
place = "{524, 86}";
type = Stem;
},
{
horizontal = 1;
place = "{770, 111}";
type = Stem;
}
);
layerId = "8B4EFE1E-6C47-485C-9646-016EA71CC488";
paths = (
{
closed = 1;
nodes = (
"494 -12 OFFCURVE",
"610 120 OFFCURVE",
"610 331 CURVE SMOOTH",
"610 540 OFFCURVE",
"494 668 OFFCURVE",
"330 668 CURVE SMOOTH",
"165 668 OFFCURVE",
"49 541 OFFCURVE",
"49 331 CURVE SMOOTH",
"49 120 OFFCURVE",
"165 -12 OFFCURVE",
"330 -12 CURVE SMOOTH"
);
},
{
closed = 1;
nodes = (
"212 61 OFFCURVE",
"135 167 OFFCURVE",
"135 331 CURVE SMOOTH",
"135 494 OFFCURVE",
"212 595 OFFCURVE",
"330 595 CURVE SMOOTH",
"447 595 OFFCURVE",
"524 494 OFFCURVE",
"524 331 CURVE SMOOTH",
"524 167 OFFCURVE",
"447 61 OFFCURVE",
"330 61 CURVE SMOOTH"
);
},
{
closed = 1;
nodes = (
"421 770 LINE",
"473 770 LINE",
"563 881 LINE",
"491 881 LINE"
);
},
{
closed = 1;
nodes = (
"201 706 LINE",
"264 706 LINE",
"328 768 LINE",
"332 768 LINE",
"395 706 LINE",
"458 706 LINE",
"366 812 LINE",
"293 812 LINE"
);
}
);
width = 659;
}
);
leftKerningGroup = C;
note = uni1ED0;
rightKerningGroup = D;
unicode = 1ED0;
},
{
glyphname = uni1ED2;
layers = (
{
hints = (
{
horizontal = 1;
place = "{-12, 73}";
type = Stem;
},
{
horizontal = 1;
place = "{595, 73}";
type = Stem;
},
{
horizontal = 1;
place = "{706, 106}";
type = Stem;
},
{
place = "{49, 86}";
type = Stem;
},
{
place = "{524, 86}";
type = Stem;
},
{
horizontal = 1;
place = "{770, 111}";
type = Stem;
}
);
layerId = "8B4EFE1E-6C47-485C-9646-016EA71CC488";
paths = (
{
closed = 1;
nodes = (
"494 -12 OFFCURVE",
"610 120 OFFCURVE",
"610 331 CURVE SMOOTH",
"610 540 OFFCURVE",
"494 668 OFFCURVE",
"330 668 CURVE SMOOTH",
"165 668 OFFCURVE",
"49 541 OFFCURVE",
"49 331 CURVE SMOOTH",
"49 120 OFFCURVE",
"165 -12 OFFCURVE",
"330 -12 CURVE SMOOTH"
);
},
{
closed = 1;
nodes = (
"212 61 OFFCURVE",
"135 167 OFFCURVE",
"135 331 CURVE SMOOTH",
"135 494 OFFCURVE",
"212 595 OFFCURVE",
"330 595 CURVE SMOOTH",
"447 595 OFFCURVE",
"524 494 OFFCURVE",
"524 331 CURVE SMOOTH",
"524 167 OFFCURVE",
"447 61 OFFCURVE",
"330 61 CURVE SMOOTH"
);
},
{
closed = 1;
nodes = (
"443 881 LINE",
"371 881 LINE",
"462 770 LINE",
"513 770 LINE"
);
},
{
closed = 1;
nodes = (
"201 706 LINE",
"264 706 LINE",
"328 768 LINE",
"332 768 LINE",
"395 706 LINE",
"458 706 LINE",
"366 812 LINE",
"293 812 LINE"
);
}
);
width = 659;
}
);
leftKerningGroup = C;
note = uni1ED2;
rightKerningGroup = D;
unicode = 1ED2;
},
{
glyphname = uni1ED4;
layers = (
{
hints = (
{
horizontal = 1;
place = "{-12, 73}";
type = Stem;
},
{
horizontal = 1;
place = "{595, 73}";
type = Stem;
},
{
horizontal = 1;
place = "{706, 106}";
type = Stem;
},
{
horizontal = 1;
place = "{864, 42}";
type = Stem;
},
{
place = "{49, 86}";
type = Stem;
},
{
place = "{524, 86}";
type = Stem;
},
{
place = "{478, 59}";
type = Stem;
}
);
layerId = "8B4EFE1E-6C47-485C-9646-016EA71CC488";
paths = (
{
closed = 1;
nodes = (
"494 -12 OFFCURVE",
"610 120 OFFCURVE",
"610 331 CURVE SMOOTH",
"610 540 OFFCURVE",
"494 668 OFFCURVE",
"330 668 CURVE SMOOTH",
"165 668 OFFCURVE",
"49 541 OFFCURVE",
"49 331 CURVE SMOOTH",
"49 120 OFFCURVE",
"165 -12 OFFCURVE",
"330 -12 CURVE SMOOTH"
);
},
{
closed = 1;
nodes = (
"212 61 OFFCURVE",
"135 167 OFFCURVE",
"135 331 CURVE SMOOTH",
"135 494 OFFCURVE",
"212 595 OFFCURVE",
"330 595 CURVE SMOOTH",
"447 595 OFFCURVE",
"524 494 OFFCURVE",
"524 331 CURVE SMOOTH",
"524 167 OFFCURVE",
"447 61 OFFCURVE",
"330 61 CURVE SMOOTH"
);
},
{
closed = 1;
nodes = (
"445 754 LINE",
"492 762 OFFCURVE",
"537 782 OFFCURVE",
"537 833 CURVE SMOOTH",
"537 879 OFFCURVE",
"494 903 OFFCURVE",
"416 906 CURVE",
"408 864 LINE",
"457 861 OFFCURVE",
"478 851 OFFCURVE",
"478 825 CURVE SMOOTH",
"478 804 OFFCURVE",
"459 795 OFFCURVE",
"434 789 CURVE"
);
},
{
closed = 1;
nodes = (
"201 706 LINE",
"264 706 LINE",
"328 768 LINE",
"332 768 LINE",
"395 706 LINE",
"458 706 LINE",
"366 812 LINE",
"293 812 LINE"
);
}
);
width = 659;
}
);
leftKerningGroup = C;
note = uni1ED4;
rightKerningGroup = D;
unicode = 1ED4;
},
{
glyphname = uni1ED6;
layers = (
{
hints = (
{
horizontal = 1;
place = "{-12, 73}";
type = Stem;
},
{
horizontal = 1;
place = "{595, 73}";
type = Stem;
},
{
horizontal = 1;
place = "{706, 106}";
type = Stem;
},
{
horizontal = 1;
place = "{846, 48}";
type = Stem;
},
{
place = "{49, 86}";
type = Stem;
},
{
place = "{198, 42}";
type = Stem;
},
{
place = "{524, 86}";
type = Stem;
},
{
horizontal = 1;
place = "{891, 48}";
type = Stem;
},
{
place = "{419, 43}";
type = Stem;
}
);
layerId = "8B4EFE1E-6C47-485C-9646-016EA71CC488";
paths = (
{
closed = 1;
nodes = (
"494 -12 OFFCURVE",
"610 120 OFFCURVE",
"610 331 CURVE SMOOTH",
"610 540 OFFCURVE",
"494 668 OFFCURVE",
"330 668 CURVE SMOOTH",
"165 668 OFFCURVE",
"49 541 OFFCURVE",
"49 331 CURVE SMOOTH",
"49 120 OFFCURVE",
"165 -12 OFFCURVE",
"330 -12 CURVE SMOOTH"
);
},
{
closed = 1;
nodes = (
"212 61 OFFCURVE",
"135 167 OFFCURVE",
"135 331 CURVE SMOOTH",
"135 494 OFFCURVE",
"212 595 OFFCURVE",
"330 595 CURVE SMOOTH",
"447 595 OFFCURVE",
"524 494 OFFCURVE",
"524 331 CURVE SMOOTH",
"524 167 OFFCURVE",
"447 61 OFFCURVE",
"330 61 CURVE SMOOTH"
);
},
{
closed = 1;
nodes = (
"201 706 LINE",
"264 706 LINE",
"328 768 LINE",
"332 768 LINE",
"395 706 LINE",
"458 706 LINE",
"366 812 LINE",
"293 812 LINE"
);
},
{
closed = 1;
nodes = (
"240 846 LINE",
"245 875 OFFCURVE",
"260 891 OFFCURVE",
"279 891 CURVE SMOOTH",
"312 891 OFFCURVE",
"335 846 OFFCURVE",
"383 846 CURVE SMOOTH",
"428 846 OFFCURVE",
"457 887 OFFCURVE",
"462 939 CURVE",
"419 939 LINE",
"414 911 OFFCURVE",
"400 894 OFFCURVE",
"380 894 CURVE SMOOTH",
"347 894 OFFCURVE",
"325 939 OFFCURVE",
"277 939 CURVE SMOOTH",
"231 939 OFFCURVE",
"203 899 OFFCURVE",
"198 846 CURVE"
);
}
);
width = 659;
}
);
leftKerningGroup = C;
note = uni1ED6;
rightKerningGroup = D;
unicode = 1ED6;
},
{
glyphname = uni1ED8;
layers = (
{
hints = (
{
horizontal = 1;
place = "{-206, 107}";
type = Stem;
},
{
horizontal = 1;
place = "{-12, 73}";
type = Stem;
},
{
horizontal = 1;
place = "{595, 73}";
type = Stem;
},
{
horizontal = 1;
place = "{706, 112}";
type = Stem;
},
{
place = "{49, 86}";
type = Stem;
},
{
place = "{275, 109}";
type = Stem;
},
{
place = "{524, 86}";
type = Stem;
}
);
layerId = "8B4EFE1E-6C47-485C-9646-016EA71CC488";
paths = (
{
closed = 1;
nodes = (
"494 -12 OFFCURVE",
"610 120 OFFCURVE",
"610 331 CURVE SMOOTH",
"610 540 OFFCURVE",
"494 668 OFFCURVE",
"330 668 CURVE SMOOTH",
"165 668 OFFCURVE",
"49 541 OFFCURVE",
"49 331 CURVE SMOOTH",
"49 120 OFFCURVE",
"165 -12 OFFCURVE",
"330 -12 CURVE SMOOTH"
);
},
{
closed = 1;
nodes = (
"212 61 OFFCURVE",
"135 167 OFFCURVE",
"135 331 CURVE SMOOTH",
"135 494 OFFCURVE",
"212 595 OFFCURVE",
"330 595 CURVE SMOOTH",
"447 595 OFFCURVE",
"524 494 OFFCURVE",
"524 331 CURVE SMOOTH",
"524 167 OFFCURVE",
"447 61 OFFCURVE",
"330 61 CURVE SMOOTH"
);
},
{
closed = 1;
nodes = (
"261 706 LINE",
"328 774 LINE",
"332 774 LINE",
"399 706 LINE",
"465 706 LINE",
"369 818 LINE",
"290 818 LINE",
"194 706 LINE"
);
},
{
closed = 1;
nodes = (
"361 -206 OFFCURVE",
"384 -184 OFFCURVE",
"384 -152 CURVE SMOOTH",
"384 -121 OFFCURVE",
"361 -99 OFFCURVE",
"330 -99 CURVE SMOOTH",
"298 -99 OFFCURVE",
"275 -121 OFFCURVE",
"275 -152 CURVE SMOOTH",
"275 -184 OFFCURVE",
"298 -206 OFFCURVE",
"330 -206 CURVE SMOOTH"
);
}
);
width = 659;
}
);
leftKerningGroup = C;
note = uni1ED8;
rightKerningGroup = D;
unicode = 1ED8;
},
{
glyphname = Oslash;
layers = (
{
hints = (
{
horizontal = 1;
place = "{-12, 73}";
type = Stem;
},
{
horizontal = 1;
place = "{595, 73}";
type = Stem;
},
{
place = "{49, 86}";
type = Stem;
},
{
place = "{524, 86}";
type = Stem;
},
{
horizontal = 1;
place = "{-12, 21}";
target = up;
type = BottomGhost;
}
);
layerId = "8B4EFE1E-6C47-485C-9646-016EA71CC488";
paths = (
{
closed = 1;
nodes = (
"492 489 LINE",
"513 447 OFFCURVE",
"524 393 OFFCURVE",
"524 331 CURVE SMOOTH",
"524 167 OFFCURVE",
"447 61 OFFCURVE",
"330 61 CURVE SMOOTH",
"280 61 OFFCURVE",
"237 80 OFFCURVE",
"205 114 CURVE"
);
},
{
closed = 1;
nodes = (
"170 165 LINE",
"147 209 OFFCURVE",
"135 266 OFFCURVE",
"135 331 CURVE SMOOTH",
"135 494 OFFCURVE",
"212 595 OFFCURVE",
"330 595 CURVE SMOOTH",
"381 595 OFFCURVE",
"425 576 OFFCURVE",
"458 540 CURVE"
);
},
{
closed = 1;
nodes = (
"617 651 LINE",
"570 686 LINE",
"507 603 LINE",
"460 645 OFFCURVE",
"399 668 OFFCURVE",
"330 668 CURVE SMOOTH",
"165 668 OFFCURVE",
"49 541 OFFCURVE",
"49 331 CURVE SMOOTH",
"49 234 OFFCURVE",
"73 154 OFFCURVE",
"116 96 CURVE",
"47 6 LINE",
"94 -30 LINE",
"156 51 LINE",
"203 10 OFFCURVE",
"262 -12 OFFCURVE",
"330 -12 CURVE SMOOTH",
"494 -12 OFFCURVE",
"610 120 OFFCURVE",
"610 331 CURVE SMOOTH",
"610 425 OFFCURVE",
"587 502 OFFCURVE",
"546 559 CURVE"
);
}
);
width = 659;
}
);
leftKerningGroup = C;
note = Oslash;
rightKerningGroup = D;
unicode = 00D8;
},
{
glyphname = OE;
layers = (
{
hints = (
{
horizontal = 1;
place = "{0, 71}";
type = Stem;
},
{
horizontal = 1;
place = "{309, 71}";
type = Stem;
},
{
horizontal = 1;
place = "{586, 70}";
type = Stem;
},
{
place = "{49, 86}";
type = Stem;
},
{
place = "{424, 84}";
type = Stem;
},
{
horizontal = 1;
place = "{0, 68}";
type = Stem;
}
);
layerId = "8B4EFE1E-6C47-485C-9646-016EA71CC488";
paths = (
{
closed = 1;
nodes = (
"49 122 OFFCURVE",
"167 0 OFFCURVE",
"366 0 CURVE SMOOTH",
"796 0 LINE",
"796 71 LINE",
"508 71 LINE",
"508 309 LINE",
"740 309 LINE",
"740 380 LINE",
"508 380 LINE",
"508 586 LINE",
"786 586 LINE",
"786 656 LINE",
"370 656 LINE SMOOTH",
"167 656 OFFCURVE",
"49 539 OFFCURVE",
"49 331 CURVE SMOOTH"
);
},
{
closed = 1;
nodes = (
"135 497 OFFCURVE",
"218 588 OFFCURVE",
"376 588 CURVE SMOOTH",
"424 588 LINE",
"424 68 LINE",
"376 68 LINE SMOOTH",
"218 68 OFFCURVE",
"135 164 OFFCURVE",
"135 331 CURVE SMOOTH"
);
}
);
width = 842;
}
);
leftKerningGroup = C;
note = OE;
unicode = 0152;
},
{
glyphname = Ohorn;
layers = (
{
hints = (
{
horizontal = 1;
place = "{-12, 73}";
type = Stem;
},
{
horizontal = 1;
place = "{595, 73}";
type = Stem;
},
{
place = "{49, 86}";
type = Stem;
},
{
place = "{524, 86}";
type = Stem;
},
{
place = "{541, 68}";
type = Stem;
}
);
layerId = "8B4EFE1E-6C47-485C-9646-016EA71CC488";
paths = (
{
closed = 1;
nodes = (
"212 61 OFFCURVE",
"135 167 OFFCURVE",
"135 331 CURVE SMOOTH",
"135 494 OFFCURVE",
"212 595 OFFCURVE",
"330 595 CURVE SMOOTH",
"447 595 OFFCURVE",
"524 494 OFFCURVE",
"524 331 CURVE SMOOTH",
"524 167 OFFCURVE",
"447 61 OFFCURVE",
"330 61 CURVE SMOOTH"
);
},
{
closed = 1;
nodes = (
"527 744 LINE",
"535 731 OFFCURVE",
"541 718 OFFCURVE",
"541 703 CURVE SMOOTH",
"541 666 OFFCURVE",
"515 646 OFFCURVE",
"460 636 CURVE",
"422 657 OFFCURVE",
"378 668 OFFCURVE",
"330 668 CURVE SMOOTH",
"165 668 OFFCURVE",
"49 541 OFFCURVE",
"49 331 CURVE SMOOTH",
"49 120 OFFCURVE",
"165 -12 OFFCURVE",
"330 -12 CURVE SMOOTH",
"494 -12 OFFCURVE",
"610 120 OFFCURVE",
"610 331 CURVE SMOOTH",
"610 452 OFFCURVE",
"571 545 OFFCURVE",
"507 603 CURVE",
"569 618 OFFCURVE",
"609 651 OFFCURVE",
"609 708 CURVE SMOOTH",
"609 733 OFFCURVE",
"599 755 OFFCURVE",
"586 773 CURVE"
);
}
);
width = 659;
}
);
leftKerningGroup = C;
note = Ohorn;
rightKerningGroup = Ohorn;
unicode = 01A0;
},
{
glyphname = uni1EDA;
layers = (
{
hints = (
{
horizontal = 1;
place = "{-12, 73}";
type = Stem;
},
{
horizontal = 1;
place = "{595, 73}";
type = Stem;
},
{
horizontal = 1;
place = "{706, 112}";
type = Stem;
},
{
place = "{49, 86}";
type = Stem;
},
{
place = "{524, 86}";
type = Stem;
},
{
place = "{541, 68}";
type = Stem;
}
);
layerId = "8B4EFE1E-6C47-485C-9646-016EA71CC488";
paths = (
{
closed = 1;
nodes = (
"461 818 LINE",
"367 818 LINE",
"278 706 LINE",
"347 706 LINE"
);
},
{
closed = 1;
nodes = (
"212 61 OFFCURVE",
"135 167 OFFCURVE",
"135 331 CURVE SMOOTH",
"135 494 OFFCURVE",
"212 595 OFFCURVE",
"330 595 CURVE SMOOTH",
"447 595 OFFCURVE",
"524 494 OFFCURVE",
"524 331 CURVE SMOOTH",
"524 167 OFFCURVE",
"447 61 OFFCURVE",
"330 61 CURVE SMOOTH"
);
},
{
closed = 1;
nodes = (
"527 744 LINE",
"535 731 OFFCURVE",
"541 718 OFFCURVE",
"541 703 CURVE SMOOTH",
"541 666 OFFCURVE",
"515 646 OFFCURVE",
"460 636 CURVE",
"422 657 OFFCURVE",
"378 668 OFFCURVE",
"330 668 CURVE SMOOTH",
"165 668 OFFCURVE",
"49 541 OFFCURVE",
"49 331 CURVE SMOOTH",
"49 120 OFFCURVE",
"165 -12 OFFCURVE",
"330 -12 CURVE SMOOTH",
"494 -12 OFFCURVE",
"610 120 OFFCURVE",
"610 331 CURVE SMOOTH",
"610 452 OFFCURVE",
"571 545 OFFCURVE",
"507 603 CURVE",
"569 618 OFFCURVE",
"609 651 OFFCURVE",
"609 708 CURVE SMOOTH",
"609 733 OFFCURVE",
"599 755 OFFCURVE",
"586 773 CURVE"
);
}
);
width = 659;
}
);
leftKerningGroup = C;
note = uni1EDA;
rightKerningGroup = Ohorn;
unicode = 1EDA;
},
{
glyphname = uni1EDC;
layers = (
{
hints = (
{
horizontal = 1;
place = "{-12, 73}";
type = Stem;
},
{
horizontal = 1;
place = "{595, 73}";
type = Stem;
},
{
horizontal = 1;
place = "{706, 112}";
type = Stem;
},
{
place = "{49, 86}";
type = Stem;
},
{
place = "{524, 86}";
type = Stem;
},
{
place = "{541, 68}";
type = Stem;
}
);
layerId = "8B4EFE1E-6C47-485C-9646-016EA71CC488";
paths = (
{
closed = 1;
nodes = (
"381 706 LINE",
"293 818 LINE",
"199 818 LINE",
"312 706 LINE"
);
},
{
closed = 1;
nodes = (
"212 61 OFFCURVE",
"135 167 OFFCURVE",
"135 331 CURVE SMOOTH",
"135 494 OFFCURVE",
"212 595 OFFCURVE",
"330 595 CURVE SMOOTH",
"447 595 OFFCURVE",
"524 494 OFFCURVE",
"524 331 CURVE SMOOTH",
"524 167 OFFCURVE",
"447 61 OFFCURVE",
"330 61 CURVE SMOOTH"
);
},
{
closed = 1;
nodes = (
"527 744 LINE",
"535 731 OFFCURVE",
"541 718 OFFCURVE",
"541 703 CURVE SMOOTH",
"541 666 OFFCURVE",
"515 646 OFFCURVE",
"460 636 CURVE",
"422 657 OFFCURVE",
"378 668 OFFCURVE",
"330 668 CURVE SMOOTH",
"165 668 OFFCURVE",
"49 541 OFFCURVE",
"49 331 CURVE SMOOTH",
"49 120 OFFCURVE",
"165 -12 OFFCURVE",
"330 -12 CURVE SMOOTH",
"494 -12 OFFCURVE",
"610 120 OFFCURVE",
"610 331 CURVE SMOOTH",
"610 452 OFFCURVE",
"571 545 OFFCURVE",
"507 603 CURVE",
"569 618 OFFCURVE",
"609 651 OFFCURVE",
"609 708 CURVE SMOOTH",
"609 733 OFFCURVE",
"599 755 OFFCURVE",
"586 773 CURVE"
);
}
);
width = 659;
}
);
leftKerningGroup = C;
note = uni1EDC;
rightKerningGroup = Ohorn;
unicode = 1EDC;
},
{
glyphname = uni1EDE;
layers = (
{
hints = (
{
horizontal = 1;
place = "{-12, 73}";
type = Stem;
},
{
horizontal = 1;
place = "{595, 73}";
type = Stem;
},
{
horizontal = 1;
place = "{824, 48}";
type = Stem;
},
{
place = "{49, 86}";
type = Stem;
},
{
place = "{349, 63}";
type = Stem;
},
{
place = "{524, 86}";
type = Stem;
},
{
place = "{541, 68}";
type = Stem;
}
);
layerId = "8B4EFE1E-6C47-485C-9646-016EA71CC488";
paths = (
{
closed = 1;
nodes = (
"302 698 LINE",
"360 708 OFFCURVE",
"412 733 OFFCURVE",
"412 791 CURVE SMOOTH",
"412 842 OFFCURVE",
"362 869 OFFCURVE",
"274 872 CURVE",
"266 824 LINE",
"321 822 OFFCURVE",
"349 808 OFFCURVE",
"349 782 CURVE SMOOTH",
"349 757 OFFCURVE",
"324 745 OFFCURVE",
"292 736 CURVE"
);
},
{
closed = 1;
nodes = (
"212 61 OFFCURVE",
"135 167 OFFCURVE",
"135 331 CURVE SMOOTH",
"135 494 OFFCURVE",
"212 595 OFFCURVE",
"330 595 CURVE SMOOTH",
"447 595 OFFCURVE",
"524 494 OFFCURVE",
"524 331 CURVE SMOOTH",
"524 167 OFFCURVE",
"447 61 OFFCURVE",
"330 61 CURVE SMOOTH"
);
},
{
closed = 1;
nodes = (
"527 744 LINE",
"535 731 OFFCURVE",
"541 718 OFFCURVE",
"541 703 CURVE SMOOTH",
"541 666 OFFCURVE",
"515 646 OFFCURVE",
"460 636 CURVE",
"422 657 OFFCURVE",
"378 668 OFFCURVE",
"330 668 CURVE SMOOTH",
"165 668 OFFCURVE",
"49 541 OFFCURVE",
"49 331 CURVE SMOOTH",
"49 120 OFFCURVE",
"165 -12 OFFCURVE",
"330 -12 CURVE SMOOTH",
"494 -12 OFFCURVE",
"610 120 OFFCURVE",
"610 331 CURVE SMOOTH",
"610 452 OFFCURVE",
"571 545 OFFCURVE",
"507 603 CURVE",
"569 618 OFFCURVE",
"609 651 OFFCURVE",
"609 708 CURVE SMOOTH",
"609 733 OFFCURVE",
"599 755 OFFCURVE",
"586 773 CURVE"
);
}
);
width = 659;
}
);
leftKerningGroup = C;
note = uni1EDE;
rightKerningGroup = Ohorn;
unicode = 1EDE;
},
{
glyphname = uni1EE0;
layers = (
{
hints = (
{
horizontal = 1;
place = "{-12, 73}";
type = Stem;
},
{
horizontal = 1;
place = "{595, 73}";
type = Stem;
},
{
horizontal = 1;
place = "{711, 56}";
type = Stem;
},
{
place = "{49, 86}";
type = Stem;
},
{
place = "{185, 46}";
type = Stem;
},
{
place = "{429, 45}";
type = Stem;
},
{
place = "{524, 86}";
type = Stem;
},
{
horizontal = 1;
place = "{763, 56}";
type = Stem;
},
{
place = "{541, 68}";
type = Stem;
}
);
layerId = "8B4EFE1E-6C47-485C-9646-016EA71CC488";
paths = (
{
closed = 1;
nodes = (
"429 819 LINE",
"423 786 OFFCURVE",
"408 767 OFFCURVE",
"388 767 CURVE SMOOTH",
"351 767 OFFCURVE",
"322 819 OFFCURVE",
"269 819 CURVE SMOOTH",
"222 819 OFFCURVE",
"191 773 OFFCURVE",
"185 711 CURVE",
"231 711 LINE",
"236 745 OFFCURVE",
"251 763 OFFCURVE",
"271 763 CURVE SMOOTH",
"308 763 OFFCURVE",
"337 711 OFFCURVE",
"390 711 CURVE SMOOTH",
"437 711 OFFCURVE",
"468 758 OFFCURVE",
"474 819 CURVE"
);
},
{
closed = 1;
nodes = (
"212 61 OFFCURVE",
"135 167 OFFCURVE",
"135 331 CURVE SMOOTH",
"135 494 OFFCURVE",
"212 595 OFFCURVE",
"330 595 CURVE SMOOTH",
"447 595 OFFCURVE",
"524 494 OFFCURVE",
"524 331 CURVE SMOOTH",
"524 167 OFFCURVE",
"447 61 OFFCURVE",
"330 61 CURVE SMOOTH"
);
},
{
closed = 1;
nodes = (
"527 744 LINE",
"535 731 OFFCURVE",
"541 718 OFFCURVE",
"541 703 CURVE SMOOTH",
"541 666 OFFCURVE",
"515 646 OFFCURVE",
"460 636 CURVE",
"422 657 OFFCURVE",
"378 668 OFFCURVE",
"330 668 CURVE SMOOTH",
"165 668 OFFCURVE",
"49 541 OFFCURVE",
"49 331 CURVE SMOOTH",
"49 120 OFFCURVE",
"165 -12 OFFCURVE",
"330 -12 CURVE SMOOTH",
"494 -12 OFFCURVE",
"610 120 OFFCURVE",
"610 331 CURVE SMOOTH",
"610 452 OFFCURVE",
"571 545 OFFCURVE",
"507 603 CURVE",
"569 618 OFFCURVE",
"609 651 OFFCURVE",
"609 708 CURVE SMOOTH",
"609 733 OFFCURVE",
"599 755 OFFCURVE",
"586 773 CURVE"
);
}
);
width = 659;
}
);
leftKerningGroup = C;
note = uni1EE0;
rightKerningGroup = Ohorn;
unicode = 1EE0;
},
{
glyphname = uni1EE2;
layers = (
{
hints = (
{
horizontal = 1;
place = "{-206, 107}";
type = Stem;
},
{
horizontal = 1;
place = "{-12, 73}";
type = Stem;
},
{
horizontal = 1;
place = "{595, 73}";
type = Stem;
},
{
place = "{49, 86}";
type = Stem;
},
{
place = "{275, 109}";
type = Stem;
},
{
place = "{524, 86}";
type = Stem;
},
{
place = "{541, 68}";
type = Stem;
}
);
layerId = "8B4EFE1E-6C47-485C-9646-016EA71CC488";
paths = (
{
closed = 1;
nodes = (
"298 -99 OFFCURVE",
"275 -121 OFFCURVE",
"275 -152 CURVE SMOOTH",
"275 -184 OFFCURVE",
"298 -206 OFFCURVE",
"330 -206 CURVE SMOOTH",
"361 -206 OFFCURVE",
"384 -184 OFFCURVE",
"384 -152 CURVE SMOOTH",
"384 -121 OFFCURVE",
"361 -99 OFFCURVE",
"330 -99 CURVE SMOOTH"
);
},
{
closed = 1;
nodes = (
"212 61 OFFCURVE",
"135 167 OFFCURVE",
"135 331 CURVE SMOOTH",
"135 494 OFFCURVE",
"212 595 OFFCURVE",
"330 595 CURVE SMOOTH",
"447 595 OFFCURVE",
"524 494 OFFCURVE",
"524 331 CURVE SMOOTH",
"524 167 OFFCURVE",
"447 61 OFFCURVE",
"330 61 CURVE SMOOTH"
);
},
{
closed = 1;
nodes = (
"527 744 LINE",
"535 731 OFFCURVE",
"541 718 OFFCURVE",
"541 703 CURVE SMOOTH",
"541 666 OFFCURVE",
"515 646 OFFCURVE",
"460 636 CURVE",
"422 657 OFFCURVE",
"378 668 OFFCURVE",
"330 668 CURVE SMOOTH",
"165 668 OFFCURVE",
"49 541 OFFCURVE",
"49 331 CURVE SMOOTH",
"49 120 OFFCURVE",
"165 -12 OFFCURVE",
"330 -12 CURVE SMOOTH",
"494 -12 OFFCURVE",
"610 120 OFFCURVE",
"610 331 CURVE SMOOTH",
"610 452 OFFCURVE",
"571 545 OFFCURVE",
"507 603 CURVE",
"569 618 OFFCURVE",
"609 651 OFFCURVE",
"609 708 CURVE SMOOTH",
"609 733 OFFCURVE",
"599 755 OFFCURVE",
"586 773 CURVE"
);
}
);
width = 659;
}
);
leftKerningGroup = C;
note = uni1EE2;
rightKerningGroup = Ohorn;
unicode = 1EE2;
},
{
glyphname = uni01EA;
layers = (
{
hints = (
{
horizontal = 1;
place = "{-212, 59}";
type = Stem;
},
{
horizontal = 1;
place = "{-11, 72}";
type = Stem;
},
{
horizontal = 1;
place = "{595, 73}";
type = Stem;
},
{
place = "{49, 86}";
type = Stem;
},
{
place = "{263, 65}";
type = Stem;
},
{
place = "{524, 86}";
type = Stem;
}
);
layerId = "8B4EFE1E-6C47-485C-9646-016EA71CC488";
paths = (
{
closed = 1;
nodes = (
"263 -182 OFFCURVE",
"306 -212 OFFCURVE",
"359 -212 CURVE SMOOTH",
"385 -212 OFFCURVE",
"419 -199 OFFCURVE",
"438 -184 CURVE",
"416 -139 LINE",
"404 -148 OFFCURVE",
"391 -153 OFFCURVE",
"375 -153 CURVE SMOOTH",
"352 -153 OFFCURVE",
"328 -138 OFFCURVE",
"328 -107 CURVE SMOOTH",
"328 -73 OFFCURVE",
"352 -31 OFFCURVE",
"406 -7 CURVE SMOOTH",
"536 53 OFFCURVE",
"610 152 OFFCURVE",
"610 331 CURVE SMOOTH",
"610 540 OFFCURVE",
"494 668 OFFCURVE",
"330 668 CURVE SMOOTH",
"165 668 OFFCURVE",
"49 541 OFFCURVE",
"49 331 CURVE SMOOTH",
"49 126 OFFCURVE",
"156 -7 OFFCURVE",
"325 -11 CURVE",
"289 -40 OFFCURVE",
"263 -81 OFFCURVE",
"263 -125 CURVE SMOOTH"
);
},
{
closed = 1;
nodes = (
"212 61 OFFCURVE",
"135 167 OFFCURVE",
"135 331 CURVE SMOOTH",
"135 494 OFFCURVE",
"212 595 OFFCURVE",
"330 595 CURVE SMOOTH",
"447 595 OFFCURVE",
"524 494 OFFCURVE",
"524 331 CURVE SMOOTH",
"524 167 OFFCURVE",
"447 61 OFFCURVE",
"330 61 CURVE SMOOTH"
);
}
);
width = 659;
}
);
leftKerningGroup = C;
note = uni01EA;
rightKerningGroup = D;
unicode = 01EA;
},
{
glyphname = Racute;
layers = (
{
hints = (
{
horizontal = 1;
place = "{0, 21}";
target = up;
type = BottomGhost;
},
{
horizontal = 1;
place = "{277, 68}";
type = Stem;
},
{
horizontal = 1;
place = "{589, 67}";
type = Stem;
},
{
horizontal = 1;
place = "{706, 112}";
type = Stem;
},
{
place = "{87, 84}";
type = Stem;
},
{
place = "{439, 83}";
type = Stem;
}
);
layerId = "8B4EFE1E-6C47-485C-9646-016EA71CC488";
paths = (
{
closed = 1;
nodes = (
"422 818 LINE",
"328 818 LINE",
"240 706 LINE",
"309 706 LINE"
);
},
{
closed = 1;
nodes = (
"171 589 LINE",
"281 589 LINE SMOOTH",
"383 589 OFFCURVE",
"439 558 OFFCURVE",
"439 472 CURVE SMOOTH",
"439 387 OFFCURVE",
"383 345 OFFCURVE",
"281 345 CURVE SMOOTH",
"171 345 LINE"
);
},
{
closed = 1;
nodes = (
"542 0 LINE",
"375 286 LINE",
"464 309 OFFCURVE",
"522 370 OFFCURVE",
"522 472 CURVE SMOOTH",
"522 608 OFFCURVE",
"426 656 OFFCURVE",
"293 656 CURVE SMOOTH",
"87 656 LINE",
"87 0 LINE",
"171 0 LINE",
"171 277 LINE",
"289 277 LINE",
"447 0 LINE"
);
}
);
width = 576;
}
);
note = Racute;
rightKerningGroup = R;
unicode = 0154;
},
{
glyphname = Rcaron;
layers = (
{
hints = (
{
horizontal = 1;
place = "{0, 21}";
target = up;
type = BottomGhost;
},
{
horizontal = 1;
place = "{277, 68}";
type = Stem;
},
{
horizontal = 1;
place = "{589, 67}";
type = Stem;
},
{
horizontal = 1;
place = "{706, 112}";
type = Stem;
},
{
place = "{87, 84}";
type = Stem;
},
{
place = "{439, 83}";
type = Stem;
}
);
layerId = "8B4EFE1E-6C47-485C-9646-016EA71CC488";
paths = (
{
closed = 1;
nodes = (
"331 706 LINE",
"427 818 LINE",
"360 818 LINE",
"293 750 LINE",
"289 750 LINE",
"222 818 LINE",
"156 818 LINE",
"252 706 LINE"
);
},
{
closed = 1;
nodes = (
"171 589 LINE",
"281 589 LINE SMOOTH",
"383 589 OFFCURVE",
"439 558 OFFCURVE",
"439 472 CURVE SMOOTH",
"439 387 OFFCURVE",
"383 345 OFFCURVE",
"281 345 CURVE SMOOTH",
"171 345 LINE"
);
},
{
closed = 1;
nodes = (
"542 0 LINE",
"375 286 LINE",
"464 309 OFFCURVE",
"522 370 OFFCURVE",
"522 472 CURVE SMOOTH",
"522 608 OFFCURVE",
"426 656 OFFCURVE",
"293 656 CURVE SMOOTH",
"87 656 LINE",
"87 0 LINE",
"171 0 LINE",
"171 277 LINE",
"289 277 LINE",
"447 0 LINE"
);
}
);
width = 576;
}
);
note = Rcaron;
rightKerningGroup = R;
unicode = 0158;
},
{
glyphname = uni0156;
layers = (
{
hints = (
{
horizontal = 1;
place = "{-216, 40}";
type = Stem;
},
{
horizontal = 1;
place = "{0, 21}";
target = up;
type = BottomGhost;
},
{
horizontal = 1;
place = "{277, 68}";
type = Stem;
},
{
horizontal = 1;
place = "{589, 67}";
type = Stem;
},
{
place = "{87, 84}";
type = Stem;
},
{
place = "{311, 64}";
type = Stem;
},
{
place = "{439, 83}";
type = Stem;
}
);
layerId = "8B4EFE1E-6C47-485C-9646-016EA71CC488";
paths = (
{
closed = 1;
nodes = (
"260 -86 LINE",
"288 -93 OFFCURVE",
"311 -104 OFFCURVE",
"311 -130 CURVE SMOOTH",
"311 -156 OFFCURVE",
"274 -169 OFFCURVE",
"222 -176 CURVE",
"230 -216 LINE",
"306 -210 OFFCURVE",
"375 -183 OFFCURVE",
"375 -125 CURVE SMOOTH",
"375 -80 OFFCURVE",
"345 -58 OFFCURVE",
"278 -48 CURVE"
);
},
{
closed = 1;
nodes = (
"171 589 LINE",
"281 589 LINE SMOOTH",
"383 589 OFFCURVE",
"439 558 OFFCURVE",
"439 472 CURVE SMOOTH",
"439 387 OFFCURVE",
"383 345 OFFCURVE",
"281 345 CURVE SMOOTH",
"171 345 LINE"
);
},
{
closed = 1;
nodes = (
"375 286 LINE",
"464 309 OFFCURVE",
"522 370 OFFCURVE",
"522 472 CURVE SMOOTH",
"522 608 OFFCURVE",
"426 656 OFFCURVE",
"293 656 CURVE SMOOTH",
"87 656 LINE",
"87 0 LINE",
"171 0 LINE",
"171 277 LINE",
"289 277 LINE",
"447 0 LINE",
"542 0 LINE"
);
}
);
width = 576;
}
);
note = uni0156;
rightKerningGroup = R;
unicode = 0156;
},
{
glyphname = uni1E5A;
layers = (
{
hints = (
{
horizontal = 1;
place = "{-206, 107}";
type = Stem;
},
{
horizontal = 1;
place = "{0, 21}";
target = up;
type = BottomGhost;
},
{
horizontal = 1;
place = "{277, 68}";
type = Stem;
},
{
horizontal = 1;
place = "{589, 67}";
type = Stem;
},
{
place = "{87, 84}";
type = Stem;
},
{
place = "{253, 108}";
type = Stem;
},
{
place = "{439, 83}";
type = Stem;
}
);
layerId = "8B4EFE1E-6C47-485C-9646-016EA71CC488";
paths = (
{
closed = 1;
nodes = (
"276 -99 OFFCURVE",
"253 -121 OFFCURVE",
"253 -152 CURVE SMOOTH",
"253 -184 OFFCURVE",
"276 -206 OFFCURVE",
"307 -206 CURVE SMOOTH",
"338 -206 OFFCURVE",
"361 -184 OFFCURVE",
"361 -152 CURVE SMOOTH",
"361 -121 OFFCURVE",
"338 -99 OFFCURVE",
"307 -99 CURVE SMOOTH"
);
},
{
closed = 1;
nodes = (
"171 589 LINE",
"281 589 LINE SMOOTH",
"383 589 OFFCURVE",
"439 558 OFFCURVE",
"439 472 CURVE SMOOTH",
"439 387 OFFCURVE",
"383 345 OFFCURVE",
"281 345 CURVE SMOOTH",
"171 345 LINE"
);
},
{
closed = 1;
nodes = (
"375 286 LINE",
"464 309 OFFCURVE",
"522 370 OFFCURVE",
"522 472 CURVE SMOOTH",
"522 608 OFFCURVE",
"426 656 OFFCURVE",
"293 656 CURVE SMOOTH",
"87 656 LINE",
"87 0 LINE",
"171 0 LINE",
"171 277 LINE",
"289 277 LINE",
"447 0 LINE",
"542 0 LINE"
);
}
);
width = 576;
}
);
note = uni1E5A;
rightKerningGroup = R;
unicode = 1E5A;
},
{
glyphname = uni1E5C;
layers = (
{
hints = (
{
horizontal = 1;
place = "{-206, 107}";
type = Stem;
},
{
horizontal = 1;
place = "{0, 21}";
target = up;
type = BottomGhost;
},
{
horizontal = 1;
place = "{277, 68}";
type = Stem;
},
{
horizontal = 1;
place = "{589, 67}";
type = Stem;
},
{
horizontal = 1;
place = "{729, 57}";
type = Stem;
},
{
place = "{167, 248}";
type = Stem;
},
{
place = "{439, 83}";
type = Stem;
},
{
place = "{87, 84}";
type = Stem;
},
{
place = "{253, 108}";
type = Stem;
}
);
layerId = "8B4EFE1E-6C47-485C-9646-016EA71CC488";
paths = (
{
closed = 1;
nodes = (
"415 786 LINE",
"167 786 LINE",
"167 729 LINE",
"415 729 LINE"
);
},
{
closed = 1;
nodes = (
"276 -99 OFFCURVE",
"253 -121 OFFCURVE",
"253 -152 CURVE SMOOTH",
"253 -184 OFFCURVE",
"276 -206 OFFCURVE",
"307 -206 CURVE SMOOTH",
"338 -206 OFFCURVE",
"361 -184 OFFCURVE",
"361 -152 CURVE SMOOTH",
"361 -121 OFFCURVE",
"338 -99 OFFCURVE",
"307 -99 CURVE SMOOTH"
);
},
{
closed = 1;
nodes = (
"171 589 LINE",
"281 589 LINE SMOOTH",
"383 589 OFFCURVE",
"439 558 OFFCURVE",
"439 472 CURVE SMOOTH",
"439 387 OFFCURVE",
"383 345 OFFCURVE",
"281 345 CURVE SMOOTH",
"171 345 LINE"
);
},
{
closed = 1;
nodes = (
"375 286 LINE",
"464 309 OFFCURVE",
"522 370 OFFCURVE",
"522 472 CURVE SMOOTH",
"522 608 OFFCURVE",
"426 656 OFFCURVE",
"293 656 CURVE SMOOTH",
"87 656 LINE",
"87 0 LINE",
"171 0 LINE",
"171 277 LINE",
"289 277 LINE",
"447 0 LINE",
"542 0 LINE"
);
}
);
width = 576;
}
);
note = uni1E5C;
rightKerningGroup = R;
unicode = 1E5C;
},
{
glyphname = uni1E5E;
layers = (
{
hints = (
{
horizontal = 1;
place = "{-171, 58}";
type = Stem;
},
{
horizontal = 1;
place = "{0, 21}";
target = up;
type = BottomGhost;
},
{
horizontal = 1;
place = "{277, 68}";
type = Stem;
},
{
horizontal = 1;
place = "{589, 67}";
type = Stem;
},
{
place = "{87, 84}";
type = Stem;
},
{
place = "{183, 246}";
type = Stem;
},
{
place = "{439, 83}";
type = Stem;
}
);
layerId = "8B4EFE1E-6C47-485C-9646-016EA71CC488";
paths = (
{
closed = 1;
nodes = (
"183 -171 LINE",
"429 -171 LINE",
"429 -113 LINE",
"183 -113 LINE"
);
},
{
closed = 1;
nodes = (
"171 589 LINE",
"281 589 LINE SMOOTH",
"383 589 OFFCURVE",
"439 558 OFFCURVE",
"439 472 CURVE SMOOTH",
"439 387 OFFCURVE",
"383 345 OFFCURVE",
"281 345 CURVE SMOOTH",
"171 345 LINE"
);
},
{
closed = 1;
nodes = (
"375 286 LINE",
"464 309 OFFCURVE",
"522 370 OFFCURVE",
"522 472 CURVE SMOOTH",
"522 608 OFFCURVE",
"426 656 OFFCURVE",
"293 656 CURVE SMOOTH",
"87 656 LINE",
"87 0 LINE",
"171 0 LINE",
"171 277 LINE",
"289 277 LINE",
"447 0 LINE",
"542 0 LINE"
);
}
);
width = 576;
}
);
note = uni1E5E;
rightKerningGroup = R;
unicode = 1E5E;
},
{
glyphname = Sacute;
layers = (
{
hints = (
{
horizontal = 1;
place = "{-12, 73}";
type = Stem;
},
{
horizontal = 1;
place = "{595, 73}";
type = Stem;
},
{
horizontal = 1;
place = "{706, 112}";
type = Stem;
},
{
place = "{71, 84}";
type = Stem;
},
{
place = "{408, 85}";
type = Stem;
}
);
layerId = "8B4EFE1E-6C47-485C-9646-016EA71CC488";
paths = (
{
closed = 1;
nodes = (
"40 85 LINE",
"97 26 OFFCURVE",
"177 -12 OFFCURVE",
"269 -12 CURVE SMOOTH",
"407 -12 OFFCURVE",
"493 71 OFFCURVE",
"493 175 CURVE SMOOTH",
"493 272 OFFCURVE",
"434 317 OFFCURVE",
"358 350 CURVE SMOOTH",
"264 390 LINE SMOOTH",
"213 412 OFFCURVE",
"155 436 OFFCURVE",
"155 499 CURVE SMOOTH",
"155 558 OFFCURVE",
"204 595 OFFCURVE",
"278 595 CURVE SMOOTH",
"338 595 OFFCURVE",
"387 571 OFFCURVE",
"427 533 CURVE",
"471 587 LINE",
"425 635 OFFCURVE",
"356 668 OFFCURVE",
"278 668 CURVE SMOOTH",
"159 668 OFFCURVE",
"71 594 OFFCURVE",
"71 494 CURVE SMOOTH",
"71 398 OFFCURVE",
"143 351 OFFCURVE",
"204 325 CURVE SMOOTH",
"298 284 LINE SMOOTH",
"360 256 OFFCURVE",
"408 235 OFFCURVE",
"408 168 CURVE SMOOTH",
"408 104 OFFCURVE",
"357 61 OFFCURVE",
"271 61 CURVE SMOOTH",
"202 61 OFFCURVE",
"137 94 OFFCURVE",
"90 143 CURVE"
);
},
{
closed = 1;
nodes = (
"407 818 LINE",
"313 818 LINE",
"225 706 LINE",
"294 706 LINE"
);
}
);
width = 529;
}
);
leftKerningGroup = S;
note = Sacute;
rightKerningGroup = S;
unicode = 015A;
},
{
glyphname = Scircumflex;
layers = (
{
hints = (
{
horizontal = 1;
place = "{-12, 73}";
type = Stem;
},
{
horizontal = 1;
place = "{595, 73}";
type = Stem;
},
{
horizontal = 1;
place = "{706, 112}";
type = Stem;
},
{
place = "{71, 84}";
type = Stem;
},
{
place = "{408, 85}";
type = Stem;
}
);
layerId = "8B4EFE1E-6C47-485C-9646-016EA71CC488";
paths = (
{
closed = 1;
nodes = (
"40 85 LINE",
"97 26 OFFCURVE",
"177 -12 OFFCURVE",
"269 -12 CURVE SMOOTH",
"407 -12 OFFCURVE",
"493 71 OFFCURVE",
"493 175 CURVE SMOOTH",
"493 272 OFFCURVE",
"434 317 OFFCURVE",
"358 350 CURVE SMOOTH",
"264 390 LINE SMOOTH",
"213 412 OFFCURVE",
"155 436 OFFCURVE",
"155 499 CURVE SMOOTH",
"155 558 OFFCURVE",
"204 595 OFFCURVE",
"278 595 CURVE SMOOTH",
"338 595 OFFCURVE",
"387 571 OFFCURVE",
"427 533 CURVE",
"471 587 LINE",
"425 635 OFFCURVE",
"356 668 OFFCURVE",
"278 668 CURVE SMOOTH",
"159 668 OFFCURVE",
"71 594 OFFCURVE",
"71 494 CURVE SMOOTH",
"71 398 OFFCURVE",
"143 351 OFFCURVE",
"204 325 CURVE SMOOTH",
"298 284 LINE SMOOTH",
"360 256 OFFCURVE",
"408 235 OFFCURVE",
"408 168 CURVE SMOOTH",
"408 104 OFFCURVE",
"357 61 OFFCURVE",
"271 61 CURVE SMOOTH",
"202 61 OFFCURVE",
"137 94 OFFCURVE",
"90 143 CURVE"
);
},
{
closed = 1;
nodes = (
"207 706 LINE",
"274 774 LINE",
"278 774 LINE",
"345 706 LINE",
"412 706 LINE",
"316 818 LINE",
"237 818 LINE",
"141 706 LINE"
);
}
);
width = 529;
}
);
leftKerningGroup = S;
note = Scircumflex;
rightKerningGroup = S;
unicode = 015C;
},
{
glyphname = Scaron;
layers = (
{
hints = (
{
horizontal = 1;
place = "{-12, 73}";
type = Stem;
},
{
horizontal = 1;
place = "{595, 73}";
type = Stem;
},
{
horizontal = 1;
place = "{706, 112}";
type = Stem;
},
{
place = "{71, 84}";
type = Stem;
},
{
place = "{408, 85}";
type = Stem;
}
);
layerId = "8B4EFE1E-6C47-485C-9646-016EA71CC488";
paths = (
{
closed = 1;
nodes = (
"40 85 LINE",
"97 26 OFFCURVE",
"177 -12 OFFCURVE",
"269 -12 CURVE SMOOTH",
"407 -12 OFFCURVE",
"493 71 OFFCURVE",
"493 175 CURVE SMOOTH",
"493 272 OFFCURVE",
"434 317 OFFCURVE",
"358 350 CURVE SMOOTH",
"264 390 LINE SMOOTH",
"213 412 OFFCURVE",
"155 436 OFFCURVE",
"155 499 CURVE SMOOTH",
"155 558 OFFCURVE",
"204 595 OFFCURVE",
"278 595 CURVE SMOOTH",
"338 595 OFFCURVE",
"387 571 OFFCURVE",
"427 533 CURVE",
"471 587 LINE",
"425 635 OFFCURVE",
"356 668 OFFCURVE",
"278 668 CURVE SMOOTH",
"159 668 OFFCURVE",
"71 594 OFFCURVE",
"71 494 CURVE SMOOTH",
"71 398 OFFCURVE",
"143 351 OFFCURVE",
"204 325 CURVE SMOOTH",
"298 284 LINE SMOOTH",
"360 256 OFFCURVE",
"408 235 OFFCURVE",
"408 168 CURVE SMOOTH",
"408 104 OFFCURVE",
"357 61 OFFCURVE",
"271 61 CURVE SMOOTH",
"202 61 OFFCURVE",
"137 94 OFFCURVE",
"90 143 CURVE"
);
},
{
closed = 1;
nodes = (
"345 818 LINE",
"278 750 LINE",
"274 750 LINE",
"207 818 LINE",
"141 818 LINE",
"237 706 LINE",
"316 706 LINE",
"412 818 LINE"
);
}
);
width = 529;
}
);
leftKerningGroup = S;
note = Scaron;
rightKerningGroup = S;
unicode = 0160;
},
{
glyphname = uni015E;
layers = (
{
hints = (
{
horizontal = 1;
place = "{-213, 41}";
type = Stem;
},
{
horizontal = 1;
place = "{-11, 72}";
type = Stem;
},
{
horizontal = 1;
place = "{595, 73}";
type = Stem;
},
{
place = "{71, 84}";
type = Stem;
},
{
place = "{274, 64}";
type = Stem;
},
{
place = "{408, 85}";
type = Stem;
}
);
layerId = "8B4EFE1E-6C47-485C-9646-016EA71CC488";
paths = (
{
closed = 1;
nodes = (
"264 390 LINE SMOOTH",
"213 412 OFFCURVE",
"155 436 OFFCURVE",
"155 499 CURVE SMOOTH",
"155 558 OFFCURVE",
"204 595 OFFCURVE",
"278 595 CURVE SMOOTH",
"338 595 OFFCURVE",
"387 571 OFFCURVE",
"427 533 CURVE",
"471 587 LINE",
"425 635 OFFCURVE",
"356 668 OFFCURVE",
"278 668 CURVE SMOOTH",
"159 668 OFFCURVE",
"71 594 OFFCURVE",
"71 494 CURVE SMOOTH",
"71 398 OFFCURVE",
"143 351 OFFCURVE",
"204 325 CURVE SMOOTH",
"298 284 LINE SMOOTH",
"360 256 OFFCURVE",
"408 235 OFFCURVE",
"408 168 CURVE SMOOTH",
"408 104 OFFCURVE",
"357 61 OFFCURVE",
"271 61 CURVE SMOOTH",
"202 61 OFFCURVE",
"137 94 OFFCURVE",
"90 143 CURVE",
"40 85 LINE",
"92 31 OFFCURVE",
"162 -5 OFFCURVE",
"244 -11 CURVE",
"211 -75 LINE",
"251 -85 OFFCURVE",
"274 -98 OFFCURVE",
"274 -124 CURVE SMOOTH",
"274 -151 OFFCURVE",
"238 -165 OFFCURVE",
"185 -172 CURVE",
"193 -213 LINE",
"269 -206 OFFCURVE",
"338 -179 OFFCURVE",
"338 -121 CURVE SMOOTH",
"338 -80 OFFCURVE",
"311 -61 OFFCURVE",
"279 -50 CURVE",
"298 -11 LINE",
"419 0 OFFCURVE",
"493 78 OFFCURVE",
"493 175 CURVE SMOOTH",
"493 272 OFFCURVE",
"434 317 OFFCURVE",
"358 350 CURVE SMOOTH"
);
}
);
width = 529;
}
);
leftKerningGroup = S;
note = uni015E;
rightKerningGroup = S;
unicode = 015E;
},
{
glyphname = uni0218;
layers = (
{
hints = (
{
horizontal = 1;
place = "{-216, 40}";
type = Stem;
},
{
horizontal = 1;
place = "{-12, 73}";
type = Stem;
},
{
horizontal = 1;
place = "{595, 73}";
type = Stem;
},
{
place = "{71, 84}";
type = Stem;
},
{
place = "{274, 64}";
type = Stem;
},
{
place = "{408, 85}";
type = Stem;
}
);
layerId = "8B4EFE1E-6C47-485C-9646-016EA71CC488";
paths = (
{
closed = 1;
nodes = (
"40 85 LINE",
"97 26 OFFCURVE",
"177 -12 OFFCURVE",
"269 -12 CURVE SMOOTH",
"407 -12 OFFCURVE",
"493 71 OFFCURVE",
"493 175 CURVE SMOOTH",
"493 272 OFFCURVE",
"434 317 OFFCURVE",
"358 350 CURVE SMOOTH",
"264 390 LINE SMOOTH",
"213 412 OFFCURVE",
"155 436 OFFCURVE",
"155 499 CURVE SMOOTH",
"155 558 OFFCURVE",
"204 595 OFFCURVE",
"278 595 CURVE SMOOTH",
"338 595 OFFCURVE",
"387 571 OFFCURVE",
"427 533 CURVE",
"471 587 LINE",
"425 635 OFFCURVE",
"356 668 OFFCURVE",
"278 668 CURVE SMOOTH",
"159 668 OFFCURVE",
"71 594 OFFCURVE",
"71 494 CURVE SMOOTH",
"71 398 OFFCURVE",
"143 351 OFFCURVE",
"204 325 CURVE SMOOTH",
"298 284 LINE SMOOTH",
"360 256 OFFCURVE",
"408 235 OFFCURVE",
"408 168 CURVE SMOOTH",
"408 104 OFFCURVE",
"357 61 OFFCURVE",
"271 61 CURVE SMOOTH",
"202 61 OFFCURVE",
"137 94 OFFCURVE",
"90 143 CURVE"
);
},
{
closed = 1;
nodes = (
"223 -86 LINE",
"251 -93 OFFCURVE",
"274 -104 OFFCURVE",
"274 -130 CURVE SMOOTH",
"274 -156 OFFCURVE",
"238 -169 OFFCURVE",
"185 -176 CURVE",
"193 -216 LINE",
"269 -210 OFFCURVE",
"338 -183 OFFCURVE",
"338 -125 CURVE SMOOTH",
"338 -80 OFFCURVE",
"309 -58 OFFCURVE",
"241 -48 CURVE"
);
}
);
width = 529;
}
);
leftKerningGroup = S;
note = uni0218;
rightKerningGroup = S;
unicode = 0218;
},
{
glyphname = uni1E60;
layers = (
{
hints = (
{
horizontal = 1;
place = "{-12, 73}";
type = Stem;
},
{
horizontal = 1;
place = "{595, 73}";
type = Stem;
},
{
horizontal = 1;
place = "{714, 107}";
type = Stem;
},
{
place = "{71, 84}";
type = Stem;
},
{
place = "{220, 113}";
type = Stem;
},
{
place = "{408, 85}";
type = Stem;
}
);
layerId = "8B4EFE1E-6C47-485C-9646-016EA71CC488";
paths = (
{
closed = 1;
nodes = (
"40 85 LINE",
"97 26 OFFCURVE",
"177 -12 OFFCURVE",
"269 -12 CURVE SMOOTH",
"407 -12 OFFCURVE",
"493 71 OFFCURVE",
"493 175 CURVE SMOOTH",
"493 272 OFFCURVE",
"434 317 OFFCURVE",
"358 350 CURVE SMOOTH",
"264 390 LINE SMOOTH",
"213 412 OFFCURVE",
"155 436 OFFCURVE",
"155 499 CURVE SMOOTH",
"155 558 OFFCURVE",
"204 595 OFFCURVE",
"278 595 CURVE SMOOTH",
"338 595 OFFCURVE",
"387 571 OFFCURVE",
"427 533 CURVE",
"471 587 LINE",
"425 635 OFFCURVE",
"356 668 OFFCURVE",
"278 668 CURVE SMOOTH",
"159 668 OFFCURVE",
"71 594 OFFCURVE",
"71 494 CURVE SMOOTH",
"71 398 OFFCURVE",
"143 351 OFFCURVE",
"204 325 CURVE SMOOTH",
"298 284 LINE SMOOTH",
"360 256 OFFCURVE",
"408 235 OFFCURVE",
"408 168 CURVE SMOOTH",
"408 104 OFFCURVE",
"357 61 OFFCURVE",
"271 61 CURVE SMOOTH",
"202 61 OFFCURVE",
"137 94 OFFCURVE",
"90 143 CURVE"
);
},
{
closed = 1;
nodes = (
"308 714 OFFCURVE",
"333 736 OFFCURVE",
"333 768 CURVE SMOOTH",
"333 799 OFFCURVE",
"308 821 OFFCURVE",
"276 821 CURVE SMOOTH",
"244 821 OFFCURVE",
"220 799 OFFCURVE",
"220 768 CURVE SMOOTH",
"220 736 OFFCURVE",
"244 714 OFFCURVE",
"276 714 CURVE SMOOTH"
);
}
);
width = 529;
}
);
leftKerningGroup = S;
note = uni1E60;
rightKerningGroup = S;
unicode = 1E60;
},
{
glyphname = uni1E62;
layers = (
{
hints = (
{
horizontal = 1;
place = "{-206, 107}";
type = Stem;
},
{
horizontal = 1;
place = "{-12, 73}";
type = Stem;
},
{
horizontal = 1;
place = "{595, 73}";
type = Stem;
},
{
place = "{71, 84}";
type = Stem;
},
{
place = "{216, 108}";
type = Stem;
},
{
place = "{408, 85}";
type = Stem;
}
);
layerId = "8B4EFE1E-6C47-485C-9646-016EA71CC488";
paths = (
{
closed = 1;
nodes = (
"40 85 LINE",
"97 26 OFFCURVE",
"177 -12 OFFCURVE",
"269 -12 CURVE SMOOTH",
"407 -12 OFFCURVE",
"493 71 OFFCURVE",
"493 175 CURVE SMOOTH",
"493 272 OFFCURVE",
"434 317 OFFCURVE",
"358 350 CURVE SMOOTH",
"264 390 LINE SMOOTH",
"213 412 OFFCURVE",
"155 436 OFFCURVE",
"155 499 CURVE SMOOTH",
"155 558 OFFCURVE",
"204 595 OFFCURVE",
"278 595 CURVE SMOOTH",
"338 595 OFFCURVE",
"387 571 OFFCURVE",
"427 533 CURVE",
"471 587 LINE",
"425 635 OFFCURVE",
"356 668 OFFCURVE",
"278 668 CURVE SMOOTH",
"159 668 OFFCURVE",
"71 594 OFFCURVE",
"71 494 CURVE SMOOTH",
"71 398 OFFCURVE",
"143 351 OFFCURVE",
"204 325 CURVE SMOOTH",
"298 284 LINE SMOOTH",
"360 256 OFFCURVE",
"408 235 OFFCURVE",
"408 168 CURVE SMOOTH",
"408 104 OFFCURVE",
"357 61 OFFCURVE",
"271 61 CURVE SMOOTH",
"202 61 OFFCURVE",
"137 94 OFFCURVE",
"90 143 CURVE"
);
},
{
closed = 1;
nodes = (
"301 -206 OFFCURVE",
"324 -184 OFFCURVE",
"324 -152 CURVE SMOOTH",
"324 -121 OFFCURVE",
"301 -99 OFFCURVE",
"270 -99 CURVE SMOOTH",
"239 -99 OFFCURVE",
"216 -121 OFFCURVE",
"216 -152 CURVE SMOOTH",
"216 -184 OFFCURVE",
"239 -206 OFFCURVE",
"270 -206 CURVE SMOOTH"
);
}
);
width = 529;
}
);
leftKerningGroup = S;
note = uni1E62;
rightKerningGroup = S;
unicode = 1E62;
},
{
glyphname = uni1E9E;
layers = (
{
hints = (
{
horizontal = 1;
place = "{0, 21}";
target = up;
type = BottomGhost;
},
{
horizontal = 1;
place = "{599, 69}";
type = Stem;
},
{
place = "{89, 83}";
type = Stem;
},
{
place = "{535, 86}";
type = Stem;
},
{
horizontal = 1;
place = "{-12, 70}";
type = Stem;
}
);
layerId = "8B4EFE1E-6C47-485C-9646-016EA71CC488";
paths = (
{
closed = 1;
nodes = (
"89 0 LINE",
"172 0 LINE",
"172 402 LINE SMOOTH",
"172 537 OFFCURVE",
"236 599 OFFCURVE",
"342 599 CURVE SMOOTH",
"409 599 OFFCURVE",
"452 562 OFFCURVE",
"474 517 CURVE",
"337 364 LINE",
"343 310 LINE",
"496 284 OFFCURVE",
"535 233 OFFCURVE",
"535 171 CURVE SMOOTH",
"535 105 OFFCURVE",
"494 58 OFFCURVE",
"424 58 CURVE SMOOTH",
"376 58 OFFCURVE",
"336 76 OFFCURVE",
"298 118 CURVE",
"251 64 LINE",
"291 19 OFFCURVE",
"355 -12 OFFCURVE",
"431 -12 CURVE SMOOTH",
"546 -12 OFFCURVE",
"621 67 OFFCURVE",
"621 171 CURVE SMOOTH",
"621 266 OFFCURVE",
"563 334 OFFCURVE",
"424 362 CURVE",
"562 514 LINE",
"526 607 OFFCURVE",
"456 668 OFFCURVE",
"345 668 CURVE SMOOTH",
"171 668 OFFCURVE",
"89 559 OFFCURVE",
"89 417 CURVE SMOOTH"
);
}
);
width = 662;
}
);
note = uni1E9E;
unicode = 1E9E;
},
{
glyphname = Tcaron;
layers = (
{
hints = (
{
horizontal = 1;
place = "{0, 21}";
target = up;
type = BottomGhost;
},
{
horizontal = 1;
place = "{586, 70}";
type = Stem;
},
{
horizontal = 1;
place = "{706, 112}";
type = Stem;
},
{
place = "{224, 83}";
type = Stem;
}
);
layerId = "8B4EFE1E-6C47-485C-9646-016EA71CC488";
paths = (
{
closed = 1;
nodes = (
"224 0 LINE",
"307 0 LINE",
"307 586 LINE",
"506 586 LINE",
"506 656 LINE",
"25 656 LINE",
"25 586 LINE",
"224 586 LINE"
);
},
{
closed = 1;
nodes = (
"334 818 LINE",
"267 750 LINE",
"263 750 LINE",
"196 818 LINE",
"129 818 LINE",
"225 706 LINE",
"305 706 LINE",
"401 818 LINE"
);
}
);
width = 531;
}
);
leftKerningGroup = T;
note = Tcaron;
rightKerningGroup = T;
unicode = 0164;
},
{
glyphname = uni0162;
layers = (
{
hints = (
{
horizontal = 1;
place = "{0, 21}";
target = up;
type = BottomGhost;
},
{
horizontal = 1;
place = "{586, 70}";
type = Stem;
},
{
place = "{224, 83}";
type = Stem;
},
{
horizontal = 1;
place = "{-213, 41}";
type = Stem;
},
{
place = "{266, 64}";
type = Stem;
}
);
layerId = "8B4EFE1E-6C47-485C-9646-016EA71CC488";
paths = (
{
closed = 1;
nodes = (
"307 0 LINE",
"307 586 LINE",
"506 586 LINE",
"506 656 LINE",
"25 656 LINE",
"25 586 LINE",
"224 586 LINE",
"224 0 LINE",
"241 0 LINE",
"203 -75 LINE",
"243 -85 OFFCURVE",
"266 -98 OFFCURVE",
"266 -124 CURVE SMOOTH",
"266 -151 OFFCURVE",
"230 -165 OFFCURVE",
"177 -172 CURVE",
"185 -213 LINE",
"261 -206 OFFCURVE",
"330 -179 OFFCURVE",
"330 -121 CURVE SMOOTH",
"330 -80 OFFCURVE",
"303 -61 OFFCURVE",
"271 -50 CURVE",
"295 0 LINE"
);
}
);
width = 531;
}
);
leftKerningGroup = T;
note = uni0162;
rightKerningGroup = T;
unicode = 0162;
},
